<svg id="Layer_1" data-name="Layer 1" xmlns="http://www.w3.org/2000/svg" viewBox="0 0 1000 600"><defs><style>.cls-44{fill:#fff}.cls-4{fill:#ad7d5a}.cls-10,.cls-23,.cls-24,.cls-29,.cls-37,.cls-39,.cls-4,.cls-41,.cls-42,.cls-43,.cls-44,.cls-45,.cls-54{stroke:#000}.cls-10,.cls-11,.cls-12,.cls-23,.cls-29,.cls-4,.cls-5,.cls-54{stroke-miterlimit:3.11}.cls-10,.cls-11,.cls-12,.cls-29,.cls-4{stroke-width:.48px}.cls-12,.cls-39,.cls-5,.cls-54,.cls-9{fill:none}.cls-5{stroke:#060;stroke-width:.48px}.cls-6{fill:#5ac800}.cls-10,.cls-24,.cls-43{fill:#d67c59}.cls-11{fill:#338a00;stroke:#030}.cls-12{stroke:#004b00}.cls-54{stroke-width:.66px}.cls-52{fill:#ffe682}.cls-23{fill:#006ac8;stroke-width:.57px}.cls-24{stroke-miterlimit:6.67;stroke-width:.48px}.cls-29,.cls-42{fill:#e8e8e6}.cls-37,.cls-39,.cls-41,.cls-42,.cls-43,.cls-44,.cls-45{stroke-miterlimit:3.73}.cls-37,.cls-39,.cls-42,.cls-43,.cls-44,.cls-45{stroke-width:.48px}.cls-41{stroke-width:.28px}.cls-45{fill:#653024}</style></defs><path d="M0 0h1000v600H0z" fill-rule="evenodd" fill="#d90f19"/><path d="M0 60h1000v480H0z" fill="#171696" fill-rule="evenodd"/><circle cx="500" cy="300" r="175" fill="#fff"/><path class="cls-4" d="M408.91 366.94a35.21 35.21 0 00-1 5.13c0 .47-.47 3 1 3.13 1 .09 1.33-2.66 1.33-2.66s-.95 3 .29 3.42c1.71.38 1.9-3.33 1.9-3.33-.2 1.05-1.33 3.71.28 4s2.18-3.61 2.18-3.61-1.42 3.9.29 4 1.61-3.8 1.61-3.8-.85 4.66 1.43 4.28c1.23-.19 1.52-1.81 1.8-2.76.38-1.42 1.23-3.22.19-6.17-.76-2.18-.47-2.75-.47-2.75s-2.66 2-4.75 3.32c-.95.57-6.08-2.18-6.08-2.18zm27.73-4.09c-.47-.29-.38 1.71-.57 2.66s.19 3 3.42 2.85 6.27-.95 8.26-.48a27.46 27.46 0 006.56.67 9.49 9.49 0 003.41-.48c.67-.28 2.09.38 2.76.38s1.71-1 1.61-1.71c-.09-1.23-1.23-1.23-2.85-1.33a27.18 27.18 0 01-4.65-.85 28.29 28.29 0 00-5.32-1.9s-4.55.19-5.5.19-6.56.28-7.13 0z"/><path class="cls-5" d="M421.35 369.6l-.19-4.37 1.81 1.52.47-3.32c.76-.19 2 1.33 2 1.33l-.19-3.33 2.75 3a8.11 8.11 0 01.76-4.08s2.09 1.8 2.09 3.89c0 1.81 1.8-2.56 1.8-2.56l1.52 4.84 1.23-1.8 1.05 3.79 2.28-3.32 1.8 3.89 4.08-.28.48 2.28 1.8-2 2.38 1.52a15.49 15.49 0 013-.57c1 0 2.27 1.33 2.27 1.33a6.38 6.38 0 011.52-1.8c.76-.48 1.81.76 2.09 1.52l1.52-2.76a15.58 15.58 0 012.28 2.76 11.21 11.21 0 01.76-3c.48-.76 1.23.28 1.8 1.23l1.24-4.08a3.94 3.94 0 012.28 1.8c1 1.52 1-2.28 1-2.28a20.72 20.72 0 012.85 5.13m57.17-.76a10.57 10.57 0 011.8-3.13s2 2.38 2 3.13a12.37 12.37 0 001.61-1l1.52 1.52 1.8-1.23 1.71 1.51 3.14-1.32 1.23 1.32 4.84-.56 1.81.75 1.71-2.18 1.61 1.71 2.56-2.56a6.36 6.36 0 011.52 1.8 9.15 9.15 0 002.57-1.8s2-.76 2.28.47c0 0 1.23-.95 1.13-2s1.43-.29 1.9 1c0 0 .57-2.09 2.09-2.28a4.72 4.72 0 01.76 3.52 13 13 0 013.32-2 11.08 11.08 0 01-.28 4.85s2.37-3.9 2.85-2.57a10.92 10.92 0 01.19 5.13l2.09-1.33.76 2.57 2.27-.48m-106.61 7.74a18.3 18.3 0 012.75-3.61 10.41 10.41 0 013 4.09 10.51 10.51 0 011.05-2.85s2.84 1.33 3.32 3.13a8.84 8.84 0 011.8-2.27c.76-.58 1.52 2 1.52 3.51 0 0 1.81-1.9 2.85-2 0 0 2 .95 2.57 4.28 0 0 1.9-1.81 2.56-1.52 0 0 2.28 1.52 1.71 3.61-.29 1.14 2.28-1.33 5.41-2.09l2.75 2.09s2.57-3.42 3.33-4.56c0 0 2.09.76 2.09 2 0 0 .95-3.61 1.71-4s1.8 1.14 1.8 2.19c0 0 .29-2.75 1.81-3.33 0 0 1.51 1.05 1.51 2.1 0 0 1.62-3.14 2.85-3.9"/><path class="cls-6" d="M421.35 369.6l-.19-4.37 1.81 1.52.47-3.32c.76-.2 2 1.33 2 1.33l-.19-3.33 2.75 3a8.15 8.15 0 01.76-4.09s2.09 1.81 2.09 3.9c0 1.81 1.8-2.57 1.8-2.57l1.52 4.85 1.23-1.81 1.05 3.8 2.28-3.32 1.8 3.89 4.08-.28.48 2.27 1.8-2 2.38 1.52a15.49 15.49 0 013-.57c1 0 2.27 1.33 2.27 1.33a6.37 6.37 0 011.52-1.81c.76-.47 1.81.76 2.09 1.52l1.52-2.75a15.43 15.43 0 012.28 2.75 11.29 11.29 0 01.76-3c.47-.76 1.23.29 1.8 1.24l1.23-4.08a3.91 3.91 0 012.28 1.8c1.05 1.52 1.05-2.28 1.05-2.28a20.81 20.81 0 012.84 5.13s-15.72 5.4-26.81 3.92c-13.05-1.74-23.8-4.21-23.8-4.21m107.79-.47a10.44 10.44 0 011.8-3.13s2 2.37 2 3.13a13.28 13.28 0 001.61-1l1.52 1.51 1.81-1.23 1.71 1.52 3.13-1.33 1.23 1.33 4.84-.57 1.81.76 1.71-2.18 1.61 1.7 2.56-2.56a6.3 6.3 0 011.52 1.81 9.24 9.24 0 002.57-1.81s2-.76 2.28.48c0 0 1.23-1 1.14-2s1.42-.28 1.9 1c0 0 .56-2.08 2.08-2.27a4.68 4.68 0 01.76 3.51s2.28-1.81 3.32-2a11 11 0 01-.28 4.84s2.37-3.89 2.85-2.56a10.87 10.87 0 01.19 5.12l2.09-1.33.76 2.57 2.27-.48a122.57 122.57 0 01-26.18.86 108.58 108.58 0 01-24.61-5.7m-9.39 9.43c.61-.38-4.24 10-16 10.54-16.39.77-30.4-7.41-30.4-7.41a18.3 18.3 0 012.75-3.61 10.41 10.41 0 013 4.09 10.3 10.3 0 011-2.85s2.85 1.33 3.33 3.13a8.84 8.84 0 011.8-2.27c.76-.58 1.52 2 1.52 3.51 0 0 1.81-1.9 2.85-2 0 0 2 .95 2.56 4.28 0 0 1.9-1.81 2.57-1.52 0 0 2.28 1.52 1.71 3.6-.29 1.15 2.27-1.32 5.41-2.08l2.75 2.08s2.57-3.41 3.33-4.55c0 0 2.09.76 2.09 2 0 0 .95-3.61 1.7-4s1.81 1.14 1.81 2.19c0 0 .28-2.76 1.8-3.32 0 0 1.52 1 1.52 2.09 0 0 1.61-3.14 2.85-3.9z"/><path d="M531.6 183.26a4.73 4.73 0 01-2.18-.85l2.18.85" fill="#6f6"/><path d="M531.6 183.26a4.73 4.73 0 01-2.18-.85" stroke="#060" fill="none" stroke-width=".48" stroke-miterlimit="3.11"/><path class="cls-9" d="M507 202.07l1.23.76 1.33.19s1.42 1.32 3 2.56c1.23 1 1.23-.19 1.23-.19l.76 3h1a29.14 29.14 0 00-.29 3l1.8-1.53 2.09 1.81s1.52-1.33 2.28-1.33a1.18 1.18 0 001-.76h.09c-5-2.37-7.21-4.84-5.69-7.41 2.47-4.27 6.55-1.52 7.88-.95l18.42 9.88s1.23-.76.38-1.52a3.78 3.78 0 01-1-3.41c.28-.76 2.37 2.37 3.41 2.65s3.42.67 3.42.67l-.09-.95s3 2.09 3 3.13c0 0 2.19-1.14 1.43-1.8s3.32 1.61 3.61 2.85l.85-1a10 10 0 011.33-4.46 4.72 4.72 0 012-1.81s.95-1.61 1.9-1.61a4.75 4.75 0 01-1.33-1.42 3.49 3.49 0 00-1.62-1.14 14.59 14.59 0 001.81-1.52 1.53 1.53 0 01.76-.67 11.54 11.54 0 00-3.71-2.09s-.09-2.46-2-2.65h.86s-1.43-2.66-2.76-2.76a3.5 3.5 0 011.62-1s-1.62-2.09-3.8-1.33l1.43-.57s-1-1.14-4.28-.57a2.44 2.44 0 00-1.14-2.37s-1.23.09-1.23 1a4.27 4.27 0 00-2.56-1c-1.43 0 .47 1.52.47 1.52s-1.9-1.24-3-.86c0 0 .48-2.18-.76-3.32a4.53 4.53 0 00-1.8 1.71l-.38-.95s-1.9 2.28-2.28 1.61a7.91 7.91 0 01-.57-2l-1.14 1.71.19-2.38a6.73 6.73 0 00-2.37 3.23 4.24 4.24 0 00-1.33 2.38 1.21 1.21 0 00-2 0c-.86 1.33 0 1 0 1a2.31 2.31 0 01-1.33.67l.19.76a3.45 3.45 0 00-2.19-.38l.48 1.13s-2.47.2-2.57-1.8c0 0-2.08-1-2.37.1 0 0-1.71 0-1.52 1a2.32 2.32 0 00-1.33-1.14c-.95-.29-.19 1.23-.19 1.23a2.84 2.84 0 00-1.42-1.71c-1.14-.47-.19 1-.19 1s-1.52-1.23-.76-2.18c0 0-1.42 1.33-.76 2.57l-1 .66s-.47-.47-.38-.86-1.62 1.14-1.62 1.14-1-2.46 0-2.46a2.14 2.14 0 00-2.08 2.09 11.2 11.2 0 00-2.38.47c-1.23.38.86 1.23.86 1.23a5.12 5.12 0 00-2.85.19l.66.86s-.66-.67-2.28-.1.38.76.38.76a5.46 5.46 0 00-2.56 0c-.85.38.28 1.05.28 1.05s-3.13-1-3.6-.67 1 1.81 1 1.81-1.9.47-2.28 1.9l1.71.66a2.84 2.84 0 00-1.14 1.14c-.38.76 1.14.38 1.14.38s-2.09 1.52-2.09 2.66a2.8 2.8 0 002.66-.67c1.14-1.13.38-.75.38-.75l.1.75s2.18-.94 2.18-1.51-.38.76-.38.76l2.19-1.14 1.42.95"/><path class="cls-9" d="M505.2 172.43l-.47-2.08a23.11 23.11 0 014.84.57l.85-2a15.08 15.08 0 013 1.81s4.47-1.14 5.8-.67l-.57 2.09a33.09 33.09 0 015.41.76c1.23.48-.57 1.52-.57 1.52s4.65.57 6.64 1.8 2.09 2.28 1.05 2.57l2.56 4.08s-4.08.48-4.84 1.52-1.52-1-1.52-1l-.76 2.85a24.46 24.46 0 01-3.61-2.28s-1.24 1.52-.47 2.28a5.32 5.32 0 01-4.66-3s-2-.29-2 1.52c0 0-2.28-2.57-2.85-3.33l-2.57.76a4.06 4.06 0 00-1.7-1.33c-1.05-.19-.29 1.33-.29 1.33l-1.52-1.8-1.52-1.81s-1.33 1.81-2.38 1.81-1-1.24-.76-2.1-3-.95-3.32 0c0 0-.95-3.79 2.56-4.84l3.61-.95"/><path class="cls-10" d="M528.84 184.5s.57-1.33 1.62-.57 1.23 4.08 1.23 4.08l-1.52.76s.86-1.23-1.33-4.27zm-8.63 29.82s.76-1-.28-3.33l1.51-.47a6.31 6.31 0 01-.19 3.8h-1m26.3-5.23l-3.61 2.19 1.81.85 4.37-2.56-2.57-.48m-48.34 14.15c-.95.76-1 2.09-1.61 2.85s-1.9 1.8-2 2.94a6.11 6.11 0 00.19 3.42c.56 1.52 2.94 8.26 2 13.39s-.66 7.31-.28 8.08 1.51 2.84 2.18 2.84c1.52-.19.85-.66 1.42-1.61 1.43-2.47 0-21.56-.66-26.88a26.37 26.37 0 00-2.57-8.16c-.19-.48-.56-1.72-.85-2.48-1.42-3.42-3.13-6.36-3.13-13.48 0 0-4.66 1-8.65-8-2.08-4.56-5.12-4.09-8.73-5.6l1.61-1s3 1.52 4.56 1.52 1.05-3 1.05-3l1.52-1.52v6.65c0 3 4.17 7.22 6.64 8.45 1.52.76 3.52-2.37 3-5.41a32.37 32.37 0 010-7.12l2.09 1.23a3.93 3.93 0 00-.57 2.09c.29.76 1.33-.76 2.09-1.52 0 0 .19.19.95.19 0 0-1.52 2.56-2.28 3.9s-.75 6.08-.75 7.88.66 6 .66 7.31c0 1 1.8 4.84 3.23 7.22l1.61 3.42c1.14 1.8 1.23 3 1.9 4.56a24.54 24.54 0 011.52 6.74c.19 1 .38 4.56.67 6.93s2.18.48 4.46-1.14 2.28-5.79 2.28-5.79 1.8-1.52 1.52-.67 1 1.9 1 1.9c-1.43 3.23-.57 2.85.85 2.76s6.36-3.9 6.36-3.9c.67-.19 3.61-.19 3.14 0s-1.33 1.71-1.33 1.71l3.22-.38c-1.13.86-5.41 3.32-6.36 3.9a88.74 88.74 0 01-8.35 4c-2.19.95-6.46 3-6.65 5.23s.29 8.07 0 10-.95 10.35-.95 10.35H494s2-7.41-.1-9.4-6.64-8.17-9.68-10.26 2-.47 2-.47v-2.21l4.65 5.6s8.08-7.12 0-16.81c-2.56-3-5.12-7.69-7.12-8.17a9.21 9.21 0 00-6.64 0c-3.61 1.05-12.25 1.05-15.86-4.65l3-.48 2.56-1s-1 3.61 6.17 3.61 8.17 0 7.6-6.65l2.09-1 1.52 1.52s-1.05 3.61-.48 5.12 3 2.57 5 4.09a3.15 3.15 0 002.08.76c.86-.1 1.05-.1 2.19-1.24a26.31 26.31 0 013-3.32s.85-1.33 1-1.52l1.05 2.75z"/><path class="cls-10" d="M499.69 218.21a21.73 21.73 0 001.81-3c1.14-1.9 2.47-3 4-5.41a10.69 10.69 0 001.42-7.69l1.33.76.09 3.61a21.26 21.26 0 012.57-1.9l.76.38a80.89 80.89 0 00-11 15.38l-.95-2.09zm-49.94-19.75c.76 1.32 1.52 3.89 3.8 5.89l1.52-.48s-3.51-4.08-3.51-5.88l-1.81.47m8.92-2.29s.48 4.85-.75 6.65l1.52-.75s1-3.33.75-5.13l-1.52-.76zm50.05-15.29s-.29 6.84 1 11l1.8-.57a1.6 1.6 0 011.23-1.8 25.19 25.19 0 006.93-3.52l-.56-1.52a28.55 28.55 0 01-4.09 2.76c-1.23.47-2 1-3 .76s-2.27-2-1.52-5.89zm20.12 31.92a45.17 45.17 0 00-.19 6.93l1.62.38s-.38-5.79.66-6.27l-2.09-1m7.23 3.61s-1.81 3.13-3.89 3.42l3.32-.67a9.61 9.61 0 002.37-2l-1.8-.76"/><path class="cls-11" d="M507 202.06l1.23.76 1.33.19s1.43 1.33 3 2.56c1.23 1.05 1.23-.19 1.23-.19l.76 3h1a29.46 29.46 0 00-.29 3l1.81-1.52 2.09 1.81s1.52-1.33 2.27-1.33a1.2 1.2 0 001.05-.76h.1c-5-2.38-7.22-4.85-5.7-7.41 2.47-4.27 6.55-1.52 7.88-.95l18.42 9.88s1.23-.76.38-1.53a3.8 3.8 0 01-1-3.41c.29-.76 2.38 2.37 3.42 2.66s3.42.66 3.42.66l-.1-.95s3 2.09 3 3.14c0 0 2.19-1.14 1.42-1.81s3.33 1.62 3.61 2.85l.86-.95a9.75 9.75 0 011.33-4.46 4.73 4.73 0 012-1.81s.95-1.61 1.9-1.61a4.75 4.75 0 01-1.33-1.42 3.36 3.36 0 00-1.61-1.14 15.68 15.68 0 001.8-1.52 1.53 1.53 0 01.76-.67 11.3 11.3 0 00-3.7-2.08s-.1-2.48-2-2.66h.86s-1.42-2.66-2.75-2.76a3.45 3.45 0 011.61-1s-1.62-2.09-3.8-1.33l1.43-.57s-1-1.14-4.28-.57a2.44 2.44 0 00-1.13-2.37s-1.24.09-1.24 1a4.28 4.28 0 00-2.56-1c-1.42 0 .47 1.52.47 1.52s-1.89-1.24-3-.86c0 0 .48-2.18-.76-3.32a4.53 4.53 0 00-1.8 1.71l-.38-.95s-1.9 2.28-2.28 1.61a8.36 8.36 0 01-.56-2l-1.14 1.71.19-2.38a6.78 6.78 0 00-2.38 3.23 4.24 4.24 0 00-1.33 2.37 1.22 1.22 0 00-2 0c-.86 1.33 0 1.05 0 1.05a2.34 2.34 0 01-1.33.66l.19.76a3.48 3.48 0 00-2.18-.38l.47 1.14s-2.47.19-2.56-1.8c0 0-2.09-1-2.38.09l-1.52.95a2.25 2.25 0 00-1.33-1.13c-.95-.29-.19 1.23-.19 1.23a2.84 2.84 0 00-1.42-1.71c-1.14-.47-.19 1-.19 1s-1.52-1.23-.76-2.18c0 0-1.42 1.33-.76 2.57l-1 .66s-.47-.48-.38-.86-1.61 1.14-1.61 1.14-1-2.46 0-2.46a2.14 2.14 0 00-2.09 2.09 11.16 11.16 0 00-2.37.47c-1.24.38.85 1.23.85 1.23a5.12 5.12 0 00-2.85.19l.67.86s-.67-.67-2.28-.1.38.76.38.76a5.47 5.47 0 00-2.56 0c-.86.38.28 1.05.28 1.05s-3.13-1-3.61-.67 1.05 1.81 1.05 1.81-1.9.47-2.28 1.9l1.71.66a2.84 2.84 0 00-1.14 1.14c-.38.76 1.14.38 1.14.38s-2.09 1.52-2.09 2.66a2.8 2.8 0 002.66-.67c1.14-1.14.38-.76.38-.76l.09.76s2.19-.94 2.19-1.51-.38.75-.38.75l2.18-1.14 1.43 1z"/><path class="cls-11" d="M505.2 172.44l-.47-2.09 4.84.57.85-2a15.39 15.39 0 013 1.8s4.46-1.13 5.79-.66l-.56 2.09a33.09 33.09 0 015.41.76c1.23.47-.57 1.52-.57 1.52s4.65.57 6.65 1.8 2.09 2.28 1 2.57l2.56 4.08s-4.08.47-4.84 1.52-1.52-1.05-1.52-1.05l-.76 2.85a23.18 23.18 0 01-3.6-2.28s-1.24 1.53-.48 2.28l-4.65-3s-2-.28-2 1.53c0 0-2.27-2.57-2.84-3.33l-2.57.76a4 4 0 00-1.71-1.33c-1-.19-.28 1.33-.28 1.33l-1.52-1.8-1.52-1.8s-1.33 1.8-2.38 1.8-.95-1.24-.76-2.09-3-.95-3.32 0c0 0-.95-3.8 2.56-4.84l3.61-.95zm-18.41 13l-1.62 1.56-.95-.48-1.9 2.09-.38-1.14-1 1.71-1.61-.57-.76 1.24-1.43-.29a9.11 9.11 0 01-2 1.43c-.76.19 0-1.71 0-1.71s-1.14 1.9-2 1.9-.47-.86-.47-.86-.47 1.23-1.42 1.43-.48-.95-.48-.95l-1.52 1.14V191l-.66-.29s.38-1.71 1-2.09-.66-1.51-.66-1.51l.66-.76s-1.9-.48-1.9-.1c0 0 .95-2.56 2.28-3l.1-2.85a5.45 5.45 0 012.56-1.23c1.33-.19-.38-2.19-.38-2.19l3-1.8.38-2.18 4.65.37.95-2 3.7.95 3.14-1.62 2.27 2.67 3.42.28s-.09 2.37-.09 3a39 39 0 014.56 1.61 25.52 25.52 0 00-.76 3 14.4 14.4 0 013.7-.57s.29 2.66.38 3.32c0 0 4.84 1.52 5.13 2.38a6.27 6.27 0 00-1.62 1.51 36.51 36.51 0 01.57 3.9l-.38.57a6.63 6.63 0 00-2.56-1.52l-.95 2.09-1.71-1.14-1.05.09s-.85-1-1.52-1l-.09-1-1.33.85s-2.09-1-2.09-1.71.1-1.52.1-1.52l-2.14 1.49a4.52 4.52 0 01-.38-1.61c.1-.48-.85 1.14-.85 1.14a9.54 9.54 0 01-1.05-2.38l-.28 1.62s-2.28-.76-2.57-2.28z"/><path class="cls-11" d="M456.4 194.75s4 2 4 2.95c0 0 1-2.09.47-2.85l1.52 1.05s.47-1.9-.1-2.47 3.42-2.09 4.28.47c0 0 2.37-2.47-2.19-4.56 0 0-.38-1.52 2.38-1.14a2.18 2.18 0 00-.86-1.33h2.66a9.09 9.09 0 00-4-1.71c-2.27-.38-.85-.66-.95-1.14a8.16 8.16 0 010-2.18 3.26 3.26 0 00-2.37.09l.38-.47s-2.47-.67-3.42-.1a2 2 0 01-1.23-2.09 2.23 2.23 0 00-2.09 1.43 4.69 4.69 0 01-3.13 1.52 7.45 7.45 0 01-1.71-.76l-1.14 2.66-1.81-.1.57 1s-2.75-.76-3.61 0a4.44 4.44 0 01.76 2.75 10.55 10.55 0 00-2.65.76c-.57.38.75.66.75.66s-2.46.76-3 1.52l1 .76-1.22 1.53.95.19s-1.62.48-2.47.76 1.52.48 1.52.48l-1.14 1 1.8.28a27.88 27.88 0 00-1.51 5.61s2.18-2.66 2.75-2.85l-1.71 2.85s3.23-1 3.51-1.52.57-1 .57-1l.1 1.62a13.78 13.78 0 001.42-2.38c.1-.66 2 .67 2 .67v-1s1.71.57 2.27.66.76-.28.76-.28l1.62-.19-.29 1.33a4.33 4.33 0 001.42-1.52c.19-.76.76 0 .76 0l.76-3h1.62zm-13 13.49l1.52 3.14a7.73 7.73 0 00-3 1.51c.28 5.23-1.05 4.94-1.05 4.94a5.1 5.1 0 01-.24 2.71l7.55-4.51.1-.48 8.93-4.18.28.48 2.56-1.43 1.81 4.75-1.8 1.05c.09 1.61 2 4.46 2 4.46l2.37-.57 2.57-1s.09 1.43.09 1 2.76-1.33 2.76-1.33L471 220c1-.09 2.66-2.38 2.66-2.38l2 .77a5 5 0 00.67-2c0-.76 2.46-.76 2.46-.76l1.71 1.23 2.19-1.8s.66 1.33 1.52 1.52 3.32 1.9 3.32 1.52a16 16 0 011-2.47l4 1.62a21.78 21.78 0 00-1.89-4s1.89-1.52 1.52-1.9-1.52 0-1.52 0l1.13-2.28h-1.47l.47-.57-2.47-1 1.33-2.66c-.57-.67-7.12-2-7.12-2l1.52-1.42s-.76-1.14-1.52-1.14-4.75.1-4.94-.28a10.9 10.9 0 00-1.71-1.81l-2.47 1.81-1.23-.38-2.19.85s0 1.24-.28.38a15.87 15.87 0 00-2.28-2.75c-.38.66-2.94 3.7-2.94 3.7s-.38 1.62-1.24.47-2.94-2.37-3.23-1.42-2.09 2-2.47 1.71-2.47-.09-2.66.48-2.37 2.37-2.37 2.37a7.76 7.76 0 00-3.71-.28A5.49 5.49 0 00448 207l-4.65 1.24zm42.92 38.46v-2l2.28 1.52 1.33-1.52 1.71 1.7 1-1.7v2.75l2.57-2.27 1.51.66v-2.19s1.81-3 1.05-3.6l1.52-.48a43.38 43.38 0 00-3.32-3 3.4 3.4 0 00-1.81-.57 15.3 15.3 0 00-3.32-2.56 1.73 1.73 0 00-2 .57 3.65 3.65 0 00-2.09-1.81c-1.23-.28-1.23 1.05-1.23 1.05a7.21 7.21 0 00-2.18-1.43c-1.24-.56-.38 1.14-.38 1.14l-4.37-1.32.57 1.32-4.08-1 .47 1.52-2.85-.48-.19 1.24-4.08.76.76 1.33-2.57-1V237l-2.85 1 1.05.95s-3.8 1.81-4.56 2.38 1.52 1.51 1.52 1.51l-4.08-.57 1.52 1.34-3.58 3.39 2.56 1.81-1.52 2.27 3.8.76 1.52 2.56 3.13-.56v2.84l4.56-3.6s3.33 2.94 3.61 2.08a24.4 24.4 0 00.19-3.32h1.61v-2.56l1.24 1 2.09-3 2.75 3.8 2.09-4.84 3 .47zm18.61-11.49l-.47-4.36-1.33 1.33.57-4.09-2.09-.38.76-4-1.52-.77.38-1.89 1.52-1.14 2.75-2.66 6.36.1.76-2.09 4.56.76c.76.85 3.13-1.71 3.13-1.71h1l1 2s3.32-.48 4.84.57l-1.81 2.47 3.33.28 2.27.48 2.38-.77 3-.19.76 1.24H540l-1 1.14 3.7 1.7-.7.77a13.38 13.38 0 003.61.75h.76s.76 1.81-.29 2.57c0 0 1.05 2.56 3.32 3s2.28.47 2.57 1a2.49 2.49 0 01-2.56 3V237a12.92 12.92 0 00-2.28 2.56l-1.52-1.05a5.55 5.55 0 00-1.33 2.57s-3.32-4.37-4.56-4.56-1 2.47-1 2.47L535 236l-.48 2.09-3-2.57-1.8 1.24-3.23-3.33-3.13.39 1.23-1.62h-3.8l-.75-3.32-.57 2.75-2.28-1.52-2.95 3.23a5.4 5.4 0 01-.85-1.9c-.47-1.52-1.8 1.8-1.8 1.8l-1.05-2.37-1.23 2.37a7.77 7.77 0 00-2.09-2.37c-.95-.47-2 2.85-2.28 4.37zm.57 10l.19-1.51 5.41-2.1 4.56-1.7 2.28-1.05 1 1.81 1.33-2.57 2.09 2.66 1.14-1.42 1.8 1.32h1.52l.29 2s3.8.28 4.08-.47.76 2.56.76 2.56l3.61.47.76 4.09s1.8 3.8 1.23 5.32-2-2-2-2a27.45 27.45 0 01-.57 3.61c-.19.76-4.85-.76-4.85-.76l-2 3.8s-2.09-3-3-3-1 3-1 3-3-3.61-4.37-5.13-1.52 1.52-1.52 1.52-2-3.32-2-4.27-1.81-2.09-1.81-2.09-3.14 3.61-5.41 4.56c0 0 .28-2.28-.48-3s-3 1.52-3 1.52a9.41 9.41 0 010-7.13z"/><path class="cls-12" d="M530.56 188.58l.48 1.89a11.77 11.77 0 012.84-.28 9.47 9.47 0 01-.66 2.18s2.28-.37 3.32.29l-.47 1.14 2.66 1.14-2.47 2s4 1.42 4.75 2.57c0 0-2.57 1.8-3 1.71s-.09.75.57 1.61l-2.18-.1a9.2 9.2 0 01.76 2.76c-.1.76-3.61.57-3.61.57m13.67-5.13s.66-3.8-.38-4.74c0 0 2.47 2.09 4.08 2.18s-.09-3.14-.09-3.14a23.63 23.63 0 003.51 1.52c1.14.19-.86-2.37-.86-2.37s.67-1.24 2.57-.1M512 179.18a2.14 2.14 0 00-.29-1.33c-2.28-3.14 2.38 2.37 3.32 2.56m4.37 0a6.19 6.19 0 002.28 1.14c.76 0-.47-3-.85-3.42s2.75 1.23 3.89 1.42 1.33-1.89 1.33-1.89a22.05 22.05 0 014.27 1m-24.46-.66s-.28-2-.37-2.85m-23.55 12.35c-.19-.38.95-2.09.48-2.85a3.17 3.17 0 001.33.67c.57.09.37-2.19.37-2.19l.76.28s2-.95 1.62-1.71 1.33 1.14 1.33 1.14 1.14-1.14 1.14-1.61 1.33 1.14 1.33 1.14 1.42-.29 1.42-1.14 1.8.28 1.8.28a3.3 3.3 0 00.67-1.71M475 189.34s.85-2-.1-3.32m-23 9.58c.09-.94.57-3.51.09-3.89s1 .38 2.09.67m9-.38c-1.14-1.14-1.81-1.71-3.61-1.71m-15.67 8.07a6 6 0 00.48-3.23m24.3 50.33l1.24-2.56 1.52 3.61 1-2.28.38.76 2.28-2.47 2.47 3.7m39.6-16.05l1.61-3.22 2.19 1.14 1-3.14 2.28 1.43 1.33-2.95 2.56.67.19-2.09a9 9 0 012.28 1.8c.57.76 0-2.56 0-2.56l2.09.95a1.35 1.35 0 00-.57-2.38"/><path class="cls-12" d="M523.53 226.1l2.28 3.32 1.9-2.18 1.71 3.7 2.18-1.33 3.13 1.8 1.43-1.14 3.42 2.47 1.42-2.94 3 .95 2-3.41m-82-8.93s1.33-2.29.86-3.33 2.75 1.8 2.75 1.8.76-2.28.29-3.32 3.8 3 3.8 3 .76-3.51 0-4.27 4.17 1 4.17 1 2-.57 1.24-1.61 3.32 1.51 3.32 1.51.95-2.56 0-3.51 3 1.24 3 1.24l-1.52-2.76 3.32.19-.28-3m29.43 43.87l2.19-1 1.9 1.9 2.08-3.33 2.57 2.47.38-2.47 2.75 1.15.57-1.53 3 1.62.28-2.28 1.52.48.29-1.53"/><path d="M464.75 357.34a67.38 67.38 0 01-5.75-12.63l41.11-36.18 41.12 36.09a62.44 62.44 0 01-6 12.91l-.33.53-3.09-1.19a5.52 5.52 0 01-2.37 1.33 3.52 3.52 0 01-2.66-1.24 5.34 5.34 0 01-3.61 1.24 3.57 3.57 0 01-2.56-1.33s-1.9 1.52-3.23 1.23a4.82 4.82 0 01-2.09-1.14 3.15 3.15 0 01-2.75 1.14 10.52 10.52 0 01-2.95-1.14 18.55 18.55 0 01-3.89 1.23c-1.52.29-2.85-1.33-2.85-1.33a9.2 9.2 0 01-2.75 1.33 18.47 18.47 0 01-3.61-1.33 22.3 22.3 0 01-4 .95 18.89 18.89 0 01-3.89-1.23 22.55 22.55 0 01-4 .76 11.08 11.08 0 01-3.23-.76s-2.27 1.05-3.51.76a13.09 13.09 0 01-2.37-.76 9.29 9.29 0 01-4.09.76 12.62 12.62 0 01-3.32-1.33s-.29.76-3.23 1.33h-.09" fill="#9dc9e2"/><path d="M500.08 266.93v41.6L459 344.9a82 82 0 01-4.27-26.4v-51.57h45.39" stroke-width=".66" stroke-miterlimit="3.11" stroke="#000" fill="#fff"/><path d="M500.08 266.93v41.6l41 36.37a81.73 81.73 0 004.27-26.4v-51.57h-45.27" fill="#ffe682" stroke-width=".66" stroke-miterlimit="3.11" stroke="#000"/><path class="cls-10" d="M473.55 348.7c3.09 1.68 2.05 1.15 8.45 3.42 5.23 1.8 11.3 2.66 20.13 2.66 7.73 0 12.08-.62 14.52-1.29s3.14-1.75 3.14-1.75l-6.36 6.45s-25.57 1.38-30.19-1.61c-1.81-.95-5.7-4.08-9.69-7.88z"/><path d="M511.06 336.64s8.17 4.65 0 13.58m-36.74-1L486.09 338l-1.33 15m6.17 1.13v-24.9m20.13 25.07v-26.59m-10.16 27.07v-28.59" stroke-linecap="round" fill="none" stroke-width=".48" stroke-miterlimit="3.11" stroke="#000"/><path d="M490.93 330.56l-5.32 1.72 5.32.56v-2.28m10-3.9l-5.6 2.09 5.6.19zm10.16 1.52l-5.6 2.1 5.6.28v-2.38zm3.33 12.07c-.29-1.14 3.32-1 3.32-1s1 3.8 0 6.17l-3-.57a14 14 0 00-.28-4.56z" stroke-linejoin="round" stroke-width=".48" stroke="#000" fill="#d90f19"/><path d="M476.12 347.65l10-9.68-.48 5.79s-5.12 3.32-5.12 5.7l-4.37-1.81m5.31 2a9 9 0 013.89-4.56l-.28 6.08-3.61-1.52zm14.35-16.81a26.74 26.74 0 017.12 0s-.48 4.09 0 4.84c0 0-5.61-1.33-7.88.76 0 0-.76-3.8.76-5.6zm-8.65 1.05a26.76 26.76 0 017.12 0s-.76 4.56-.28 5.32c0 0-4.56-2.57-6.84-.48 0 0-1.52-3.13 0-4.84z" stroke-linejoin="round" stroke-width=".48" stroke="#000" fill="#fff"/><path d="M486.84 339.2a31.73 31.73 0 017.12 0s-.47 4.08 0 4.84c0 0-5.31-1.23-7.59.76 0 0-1.05-3.8.47-5.6zm8.17-.76s5.89-.75 8.92-.28c0 0-1.23 3.32.29 5.6 0 0-6.36-1.71-8.74.28 0 0-2-3.79-.47-5.6zm-8.63 6.37l7.88.57s-.76 5.79-.29 6.55c0 0-6.36-1.52-7.6.57 0 0-2.09-5.32 0-7.69zm8.92 0s6.83-.48 10 0c0 0-1.81 4.37.19 8.16 0 0-8.93-2.56-10.16-.47 0 0-2.09-5.32 0-7.69zm10.44-12a26.74 26.74 0 017.12 0s-.47 4.09 0 4.84c0 0-5.6-1.33-7.87.76.01.03-.77-3.77.75-5.57zm0 5.6a32.37 32.37 0 017.12 0s-.47 4.09 0 4.85c0 0-5.6-1.24-7.87.76 0 0-.77-3.8.75-5.61zm.48 5.89a27.79 27.79 0 017.21 0s-1 6.36-.57 7.12c0 0-4.64-2.18-6.83-.28 0 0-1.33-5 .19-6.84z" stroke-linejoin="round" stroke-linecap="round" stroke-width=".48" stroke="#000" fill="#fff"/><path d="M514.67 344.81s1.32 4.84 3 5.41l-2.24 2.78s-2.76-2-3-4.27a12.55 12.55 0 002.28-3.89z" stroke-width=".48" stroke-miterlimit="3.11" stroke="#000" fill="#fff"/><path d="M535 357.91c-6.55 10.93-17.28 21.18-34.94 27.54-17.95-6.45-28.87-17.19-35.32-28l.09-.1c2.94-.57 3.23-1.33 3.23-1.33a12.62 12.62 0 003.32 1.33 9.38 9.38 0 004.08-.76 12.64 12.64 0 002.38.76c1.23.29 3.51-.76 3.51-.76a11.08 11.08 0 003.23.76 22.75 22.75 0 004-.76 18.78 18.78 0 003.89 1.24 22.53 22.53 0 004-.95 18.47 18.47 0 003.61 1.33 9.33 9.33 0 002.75-1.33s1.33 1.61 2.85 1.33a18.35 18.35 0 003.89-1.24 10.06 10.06 0 002.94 1.14 3.16 3.16 0 002.76-1.14 4.71 4.71 0 002.08 1.14c1.33.29 3.23-1.23 3.23-1.23a3.58 3.58 0 002.57 1.33 5.34 5.34 0 003.61-1.24 3.51 3.51 0 002.65 1.24 5.45 5.45 0 002.37-1.33l3.23 1" fill="#006ac8"/><path d="M533.41 360.39c-1.43.09-1.62-.86-1.62-.86s-1.89 1.62-3.7 1.33a4.16 4.16 0 01-2.75-1.52s-2 1.62-3.33 1.33a4.48 4.48 0 01-2.27-1.14 3.41 3.41 0 01-2.85 1.14 7.88 7.88 0 01-3-1.14 26.8 26.8 0 01-4.18 1.33c-1.62.29-2.94-1.52-2.94-1.52a34.85 34.85 0 01-4.47 1.24 16 16 0 01-3.51-1.24 7.68 7.68 0 01-2.85 1.14 18 18 0 01-4.18-1.33 24 24 0 01-4.18.76 12 12 0 01-3.32-.76s-2.47 1.05-3.8.76a12.38 12.38 0 01-2.37-.76s-2.66 1.05-4.27.76a13.69 13.69 0 01-3.52-1.33s-.28.67-3.41 1.33h-.1" fill="none" stroke-width=".48" stroke-miterlimit="3.11" stroke="#000"/><path class="cls-23" d="M474.44 364.26s-.27.62-2.74 1.17c-.06 0-.67.14-.67.14.22 0 .41-.07.61-.12-.23.09-.47.17-.7.24a43.61 43.61 0 0011.36 10.66c4.38 2.94 9.4 6.46 17.95 9 9-3.51 11.39-4.85 17.27-8.78 5.88-4.3 8.94-7 12.22-11.38-2.57 1.46-2.2 1.48-3.53 1.29a5.12 5.12 0 01-2.3-1.26 3.62 3.62 0 01-2.83 1.26 8.82 8.82 0 01-3-1.25 8.11 8.11 0 01-4.2 1.34 5.14 5.14 0 01-2.98-1.57 35.3 35.3 0 01-4.47 1.22 16 16 0 01-3.5-1.22 7.76 7.76 0 01-2.85 1.14 17.8 17.8 0 01-4.18-1.35 23.82 23.82 0 01-4.17.76 12.16 12.16 0 01-3.32-.75s-2.37 1-3.79.75a13.37 13.37 0 01-2.39-.75 10.38 10.38 0 01-4.26.75 14.14 14.14 0 01-3.53-1.31z"/><path class="cls-23" d="M500.25 385.32c9.29-3.86 11-4.91 16.59-8.35-1 0-3.83-.89-2.8-1.19a4.12 4.12 0 01-2.28 1 18.64 18.64 0 01-4.08-1.32 24.27 24.27 0 01-4.18.75 12.16 12.16 0 01-3.32-.75s-2.47 1-3.8.75a13.09 13.09 0 01-2.38-.75s-2.75 1-4.27.75a13.87 13.87 0 01-3.51-1.32 14.23 14.23 0 01-3.81 1.38 52.22 52.22 0 0017.85 9z"/><path class="cls-24" d="M461.75 270.47c-.66 0-1.45.37-2.67 1.47-1.91 1.73-2.6 3.51-.09 5.67L471.46 289c1.82 1.76 4.36 2.09 5.43 3l12.67 13c1.6 1.38 2.36 2.36 1.46 3.54-1 1.94.07 2.2.3 2.26 1.73.39.79-.7 1-1.26a5.09 5.09 0 012.52-2.7c.6-.24.92-.11 1.07.21.55.22 1.13-.6.32-1.47s-1.77.61-3 .24a9.66 9.66 0 01-2.34-2c-1.08-1.2-2.46-2.27-3.26-3.3a132.86 132.86 0 00-8.86-10c-1.39-.91-1.07-4.34-2.07-5.41-.08-.74-9.67-10.23-13.09-13.66a3.49 3.49 0 00-1.86-.98z"/><path d="M462.35 275.57l13 12.87" stroke-width=".47" fill="none" stroke-miterlimit="3.11" stroke="#000"/><path d="M480 281.45c.2-.38.64-1.37 1.11-2.45.18-.42 3.69-6 5.44-6.18 0 0 10.89 7.93 10.9 8 0 .42-4.72 7.55-5.14 7 0 0-12.77-5.36-12.31-6.42z" stroke-width=".53" fill="#e8e8e6" stroke-miterlimit="3.11" stroke="#000"/><path d="M486.94 283.32c-1.5-1.16-4-2.29-5.95-3.62l-.9 1.87c.72.8 9.79 5 11.28 5.83a34.64 34.64 0 00-4.44-4.08z" fill="#ccb8c8"/><path d="M481 279.46c1.17.82 3.38 2.22 4.78 3 2.69 1.86 4.39 3.92 6.3 5" stroke-width=".37" fill="none" stroke-miterlimit="3.11" stroke="#000"/><path class="cls-10" d="M458.9 313.43l24.81-30.71a2.17 2.17 0 013.08 1.93l-23.5 32a6.24 6.24 0 01-4.39-3.25zm83.18.33a5.47 5.47 0 01-2.31.84c-1.61-1.89-2.94-3.89-5.22-6.36l-24.79-30.48 2.56-2.47 22.32 26.12a114.16 114.16 0 018.26 9.59s.33 1.89-.82 2.77z"/><path class="cls-29" d="M518.21 281.65l-4-4.75s-3 .38-3.6 2c0 0-2.19 3.61-8 4a17.4 17.4 0 008.39 10.33s2.47-6.93 4.85-8.16c0 0 2.47-1.81 2.37-3.42z"/><path class="cls-10" d="M508.24 302.73c-.56-.19-1.13 0-2 .48s-1.71.28-1.62-.67 0-.76 1.05-1.42a6.09 6.09 0 014.75-.48l-2.19 2.09m27.06-27a2.09 2.09 0 01.29-2.18c.66-.76.66-2.09-1-1.43s-2.18 2.47-.85 5.23l1.52-1.62z"/><path class="cls-29" d="M507.67 303.3l28.11-27.92 6.93 7.41s-1.42-.57-2-.19.57 1.8.57 1.8-1.33-.47-1.9-.09 0 2 0 2-1.14-.85-1.71-.48 0 2.19 0 2.19-1.52-.48-1.9-.1 0 2 0 2-1.52-.76-2.28 0 .38 1.8.38 1.8-1.9-.76-2.66.38a1.89 1.89 0 00.1 2.18s-1.52-.75-1.9-.38 0 2.19 0 2.19-1.33-.76-2.18.19a1.34 1.34 0 00.09 1.9s-1.23-.76-1.9-.38.19 2.18.19 2.18-1.23-.85-2.09 0a1.42 1.42 0 000 1.9 1.47 1.47 0 10-2.08 2.09s-1.52-.76-2.09 0 .19 1.81.19 1.81-1.14-.67-1.9-.29 0 2.09 0 2.09-1.14-1.24-1.61-.57.09 2.28.09 2.28-1-1.24-1.61-.57.38 2 .38 2-1.9-.85-1.43-.85z"/><path d="M534.16 277.66l-2.16 2.19.47 7.5s.48-2.18 1.14-.67c0 0 .19-1.8.67-1.51-.39-.2-.1-7.51-.1-7.51m-4.08 4.08l-1.61 1.52.57 7.5s.48-2.84 1.14-.57c0 0-.1-1.89-.1-2.56v-5.89m-17 16.82l-1.52 1.61.38 4.56s.47-2.94 1.14-.66c0 0-.19-1.9-.19-2.57 0 .48.19-2.94.19-2.94" fill="#4d4d4d"/><path d="M511.18 279.75c1.05 1.05 4 4.85 4 4.85m-2.65-2.76a7.74 7.74 0 01-1.42 3m1.89-2.66a4.45 4.45 0 01-1.43 2.85m1.9-2.27a3.14 3.14 0 01-.76 1.61m1-1c0 .47-.28.57-.38.85m-3.13-2.66a23.38 23.38 0 01-4.65 2.75m3.89-1.71a14 14 0 01-3 2.09m2.76-.95a13.6 13.6 0 01-2.28 1.61m1.71-.47a5.53 5.53 0 01-1.43 1.12" stroke="#4d4d4d" stroke-width=".85" fill="none" stroke-miterlimit="3.11"/><path d="M492.14 285.92a27.2 27.2 0 011.56-2.72 9.32 9.32 0 011.75-2" stroke-linecap="square" stroke="#4d4d4d" stroke-width=".85" fill="none" stroke-miterlimit="3.11"/><path d="M400.47 362.48c1.43.66 0-4.66.47-6.65s4.66 5.13 6.65 6.08 14.82-5 14.82-5l3-5.69 1.62 4.65s3.51-4.09 4.56-5.6 0 3-1.05 4.55 3 2.09 2.56 5.13 4.09-2.09 4.09-2.09l11.81 1.01s2-7.13 5.13-11.21l.95 4.56 4.84-4.94c5.41 14.25 16.81 29.73 40.17 38.18 21.93-8 33.23-22.13 39.11-35.61l6.56 6.74a58.1 58.1 0 006.07-2.09c1-.47 12.06 3.9 12.06 3.9a16.58 16.58 0 013 1.52c1.05.76.29-3.33.29-3.33s5.6 1.05 5.12 4.09c0 0 1.24-2.85 2.28-3.33s3.52 2.57 4.09 3.61 12.53 2.47 14.24 3.52a5.55 5.55 0 011.33 2.56s2.56-.28 4.56-.28a2.83 2.83 0 00-1.52 2.37 3.76 3.76 0 01-2.28 3.51c-1.52.76 0 1.33 2 1.52s0 2.85-4.08 4.37c0 0-1 2.28.76 3 0 0-3.51.29-4.08-.76a11.56 11.56 0 00-1.23 3.61s-3.8-1.24-4.85-1.8c0 0-1.52 1.51-.47 2.27 0 0-6.93-.76-8.26-3.32 0 0-2.47.76-2 1.61 0 0-4.84-3.32-6.36-3.32l-1.05 1.71s-3.32-2-4.36-2-.19 1.52-.19 1.52l-4.65-2.85-1.81 2.85a52.25 52.25 0 01-4.84-2.56c-.95-.76-1.23 1.52-2 1.8 0 0-1.52-2.09-3.61-1.8 0 0-.76 2.56-.48 3.32 0 0-5.88-1.23-6.93-1.52s-.47 1.24 0 2.28c0 0-4.36-1.23-5.31-2l-.29 2s-3.6-.28-4.37-1l-2.27 3.13H521l-.76 2.75s-5.74-2.11-6.26-.67a6 6 0 00-.38 2.48l-4.72-.32-1.45 2.54s-6.37-2.43-7.89-1.49a34.06 34.06 0 01-4.34 2.39 10.28 10.28 0 00-4.58-2.84c-1.68-.26-5.32 2-6.65 1.23 0 0 0-1.8-1-2.28a2.86 2.86 0 00-3.52.76s-.75-1-2.08-3-3 .19-3 .19l-.29-2.47-3.51-.28a3 3 0 01-2.56-2.09s-5.42.57-6.18.28l1.33-1.23s-7.4 1.52-8.92.95 1.71-2.56 1.71-2.56-6.84-1.71-8.17-2-8.64 1.23-9.69 1.23-1.51-1.71-1.51-1.71a12.42 12.42 0 01-3.33 2s-1.23-3-.47-3.32c0 0-4.85 1.33-5.13 2.56 0 0-1.23-2-1.05-2.85 0 0-2.27 3.61-3.32 4.37s-.19-1.8-.19-1.8-2.85 3.6-3.89 3.89v-2.61s-8.17 4.37-10.45 3.81c0 0 0-1.81.76-2.28l-5.13-.29c-1.23-.19-2.75-.76-4.08-1s1.81-1.52 3.9-.95c0 0-5.7-2.09-7.41-1.05 0 0-.76-2.09 2.28-2.85 0 0-3.9-3.8-6.18-3.51 0 0 2.57-1.52 4.66-.76 0 0-2.38-6.46-3.9-7.22 0 0 5.42-1 6.94-.18z" fill="#358b03" stroke="#060" stroke-width=".48" stroke-miterlimit="3.11"/><path class="cls-10" d="M392.58 251.07l69.13-35.8c.33-1.85-.72-3.31-1.8-4.75-19.77 9.69-37.76 21.46-59.73 28.59-1.23.47-12.15 5-17.75 11.77a7.43 7.43 0 00-1.91 4.41s.13 3 .77 3.83a2.55 2.55 0 001.2 1.49 1.64 1.64 0 001.08.16c.5.09 1.32.09 2.46-1.91a51.42 51.42 0 016.55-7.79z"/><path class="cls-29" d="M448.23 215.65l8.92-4.27s3.05 2.28 2.76 4.84c0 0 .66 5.89 8 10a25.23 25.23 0 01-17 8.36s1.24-10.15-1-13.1c0 0-.38.37-.21-.14.32-1-.22-4.37-1.61-5.12-.17-.09.11-.37.2-.54z"/><path d="M458.67 216.88c-1.89.76-8.07 4-8.07 4m5.13-2.09c-.09.95-.66 3.23 0 4.84m-.85-4.55a7.57 7.57 0 00.09 4.46m-1-4a4 4 0 000 2.57m-.76-2a2.7 2.7 0 000 1.24m5.6-1.53a36.52 36.52 0 004.37 6.37m-4-4.56a19.13 19.13 0 002.75 4.56m-2.93-2.95a16.54 16.54 0 001.9 3.61m-1.9-1.71a6.15 6.15 0 001.14 2.38" stroke="#4d4b4d" stroke-width=".76" fill="none" stroke-miterlimit="3.11"/><path class="cls-24" d="M520.88 198.92c-1.26.15-2.4 1-3.68 3.2-2.24 4.29-1.7 6.62 5.07 9.56l25.39 12.43c5.09 2.47 6.93.19 9.8 1.43l50.11 25.53c4.3 1.88 6.71 2.48 6.09 4.7-.09 2.87.93 3.27 1.62 3.4 1.08.45 1.92.71 2.15-.54.16-.25-.14-.65-.46-1.18a3.06 3.06 0 01-.58-1.92 3.17 3.17 0 01.4-1.48 16.79 16.79 0 011.5-1.73 1.81 1.81 0 011.17-.69 1.77 1.77 0 011.06.28c.46.27.87.59 1.28.88 1.67-.13.18-2.51-1-3.41-2.53-1.18-2.81 1.5-5.47 1.22a41.17 41.17 0 01-6.46-3c-3.15-1.71-7.54-3.75-8.54-4.86-3.2-.6-27.29-14.15-40.93-20.95-1.47-1.22-2.26-5.75-5.14-7.27-.84-1.22-19.31-9.66-29-14.49-1.78-.66-3.17-1.22-4.44-1.07z"/><path d="M439.68 221.63c-.19.56-.66.18-.66.38-.38 2-.29 3-.76 4.17a7.55 7.55 0 01-2.95 2.47c-1.89.57-4.17 2.85-7.87.76a2.36 2.36 0 01-.57-.47 5.09 5.09 0 01-2.76 5.79c-1.33.66-14.72 7.69-14.72 7.69a8.7 8.7 0 00-.47 6.08c.1.57.28 1-.29 1.42a12 12 0 00-3.41 5.61s-2.85-1.24-2.85-3 1.14-2.75 1.42-4.09 1-4.37.67-5.32-2.09-1.42-2.76-1.8-1.33.38-1.23 1.23.76.76 1.52 1a7.84 7.84 0 00-.76 3.14l-8.64 4.46s1.14 1.52 1.52 2.18 1.23 9.5 3.8 13.68 3.41 3 4 3.61 1.24 1.23 1.9 1.8 3.61.76 4.18-.85a8.35 8.35 0 012.94-3.89c1.81-1.43 5.51-5 5.51-6.65 0 0 2.19 6.27 1.9 11.49a101.82 101.82 0 0015.1 1.8c7.12.1 10.73-1.42 10.73-1.42s1-6 .57-7.12a30.24 30.24 0 002 5.22c1 1.61 2 4.94 4.08 5.13a4.48 4.48 0 003.89-2.85v-6.27h8.08c0-.09 3.6 1.33 4.74 1.14s1.81-1.14.76-1.52l-.38-.28a6.63 6.63 0 012.38.66h4c.1-.09 0-.38-.09-.47-.29-1.14-2.38-2.1-3.89-2.76a20.61 20.61 0 00-4.37-1.33 18.69 18.69 0 00-5.8.38 19.86 19.86 0 00-5.41 1.24c-.48.28-.95.38-.76-.86s.19-7.31-1.23-9.87a7 7 0 01-.76-4.85 78.48 78.48 0 000-8.26c-.29-1.52-2.37-3.61-6.17-4.09-3.61-.47-6.65-3.41-6.84-5.79a36 36 0 01.76-8.64" stroke-width=".48" stroke-miterlimit="3.73" fill-opacity=".99" fill="#ad7c59" stroke="#000"/><path d="M423.54 210.9a33.82 33.82 0 00-.57 8.64 20.14 20.14 0 001.9 6.27 7.63 7.63 0 002.57 3.61c3.32 2.18 6.46-.19 8.26-.95a6 6 0 002.56-2.28c.48-1.14.29-2 .76-4.18a2.42 2.42 0 00.67-.38 17.09 17.09 0 001.13-2.85c.48-.95-.56-2-1.7-1.8a9.2 9.2 0 00.37-5.51c-.19-.57.48-2.09-.56-1.71-4.28 1.71-9.31 1.33-13.87 1.33-.38 0-.66-.76-1.23-.66-.1 0-.19.28-.29.47" fill="#b68a6a" stroke-width=".48" stroke-miterlimit="3.73" stroke="#000"/><path class="cls-37" d="M423.16 212.51c-.47-.38-.57-1.24 0-3s0-1.9 1-2.94.75-1.53 1.42-1.81 2.66-.19 3.32-.47a8.45 8.45 0 012.75-.86 10.34 10.34 0 015.61.57c1.42.76 2.37 2.66 3.23 3.32s1.52 3.42 1.33 7.41-1.05 3.23-1.05 3.23-1.14-1.9-2.09-.29a19.62 19.62 0 01.19-2.66c.1-1.13-.57-3.22.1-4.65 0 0-5.42 1.71-8.17 1.62s-6.83-.86-7-1.52l-.67 2.09"/><path d="M425.91 209.19c-.28-.57-1.71-2.66-.57-3.32s.38 2.56 1.81 3.23c0 0-.47 1.42-1.23.09z" stroke="#fff" stroke-width=".48" stroke-miterlimit="3.73" fill="#fff"/><path class="cls-39" d="M429.05 217c-.47 1.61-.66 2-.85 2.94m9.88 1.52c.19.57.37.28.85.38m.38-3.7c.47-.57 1.14-.29.76 1.14"/><path class="cls-39" d="M423.54 214.7a26.69 26.69 0 012.57 1c1.42.57.57 2.66.19 4-.19.66-.95 1.8-.57 2.37.48.76 1 .29 1.9.38 0-.28.57-.47.76-.47.66-.1 1 .47 1.52.28s.47-1.14.28-1.61m-.09-4.18c.09-.38.95-.76 1.42-.86 2-.37 3.42-.66 5 .48m-5.32 10.35c-1.61.38-3.32.66-4.84-.2m0-.75c.76-.38 1.05-.76 2-.28 0-.1 1.05-.38 1.05-.38a3.5 3.5 0 012 .75m-5.12.29a12.76 12.76 0 015 .09"/><path d="M423.45 217c.67-.1 1.42-.86 2.94.28 1.05.67-1.71 1.33-1.23 1.24-1.23.19-1.61-.48-1.71-1.05 0-.19-.19-.47 0-.47zm7.78.75c.67-1.33 1.71-1 2.66-.76a4.35 4.35 0 011.52.57c-1 .19-.76.29-1.52.67s-1.61.57-2.18.19c-.19-.19-.67-.47-.67-.86a.2.2 0 00.19.19z" stroke-width=".28" stroke-linejoin="round" stroke-linecap="round" stroke="#000" fill="#fff"/><path class="cls-41" d="M424.78 218.12a.74.74 0 00.66-.76c0-.48-.29-.86-.66-.86a.77.77 0 00-.76.86.75.75 0 00.76.76zm8.07.18c.38 0 .66-.37.66-.85a.75.75 0 00-.76-.76.68.68 0 00-.66.76.83.83 0 00.76.85z"/><g id="a"><path class="cls-39" d="M473.39 266.93a3.6 3.6 0 00-1.7-1.24l-1.9-.94c-.67-.38-1.62-.48-2.19-.86m.38 2.47c-.29-.19-.47-.28-.76-.48s-.66-.09-1-.18c-.1 0-.1-.2-.19-.2a3.23 3.23 0 01-2.28-1.23m-58.59-8.74c.86.67 2.94 2.09 3.13 4.85a10 10 0 001 2.84m-12.25-7.3c.47 1.61.57 6.93 5.6 12.53M398 248.51c-.38 1-.86 2 .19 2.75m13.48 10c1.05-2.38 4.27-2.19 4.27-4.47"/><path class="cls-39" d="M416.42 261c-.28-2.66-.85-4.18-.38-8.07a33.59 33.59 0 000-7.6s1.52 7.31-3.41 8.74m32.09 11.68a16.58 16.58 0 01.86-5.8c1.13-5.22-1.05-7.21-.19-8.54.75-1.14 1.9-3.52.38-8.27 0 0 2.65 9.79-4.18 9.79s-6.65-2.57-6.65-2.57"/><path class="cls-39" d="M416 245.28c0 2 0 7.88 8.45 7.88 2.56 0 5.32-1.8 6.84-3m2.09-2.57a44 44 0 01-.29-6.46m-12.72-3.22a54.86 54.86 0 018.36-.56m.28-5.9c.48 2.09-.28 5.41 3.61 5.89m4.08-6.65a20 20 0 00-.76 4.08m.19 2.58c1.62 0 4.65-1.05 8.45-.29m1.42 21.23c.76 1.52.95 3.51 3.33 5.79m-29.63-10.64c.19 1.24-1.61 5.32-.28 8.65a11.51 11.51 0 01-1.05 10.35m6.18-17.76c-.76 1.52-2.09 3-2.38 4.37m6.16-1.52c0 1-2.56 8.17-4.36 10.16 0 0 3.32 1.33 2.84 6.17m6.84-19.65c0 1.23-.19 1.52.86 2.28m2.28 0c1.23 1.52 5.13 6.08 4.27 8.64m-6.84-6.08a22.17 22.17 0 01-.57 8.36m-2-.19a3 3 0 00-2.85 2.56m8.16-2.85c1-.29 3.13 1.52 3.13 6.65m14.6-9.58c-2 .57-2.85 1.62-2.28 1.05a18.87 18.87 0 01-2 1.42"/><path class="cls-41" d="M421.07 252.3a1 1 0 001-.85c0-.38-.47-.76-1-.76a.82.82 0 100 1.62zm21.56.29a.93.93 0 00.95-.85.86.86 0 00-.95-.76c-.57 0-1 .29-1 .76a1 1 0 001 .85z"/><path class="cls-42" d="M412.44 291.34c1.14-7.41 4.65-13.58 4.74-14.15a93.46 93.46 0 009.88 1.32 45.49 45.49 0 0010.73.19c2.75-.28 6.36-.75 6.36-.75a12.87 12.87 0 011.23 4.55c.29 4.84 2.09 25.83 2.28 31.44 0 0 .76 3.32.76 11.49 0 8.93 2.47 27.06 2.47 36.75l-2.47.48s-13.48 1-13.48-.76c0-2-.76-25.26 1.23-39.32a44.1 44.1 0 00-1.23-5.13c-.76-2.28-4.09-9.4-4.09-10.92 0 0-5.31 15-5.6 17.57-.28 2.38-1 35.8-1.52 38.56 0 0-7.69 5.89-8.73 6.46s-8.45-3.14-8.64-4.08.76-12.35 4.27-31c1.33-6.65.57-7.87.57-9.68s.1-25.64 1.23-33.05z"/><path class="cls-39" d="M425.25 324.11a9.56 9.56 0 01-3.32 5.41m-2.57-50.06c-.28 1.24-2.09 6.84-6.65 10.17m13.3-9.12c-1.05 3.32-5.13 21.18-5.89 42.36m-.28 6.65c-.19 2-1.24 16.81-1.52 19.37m-.76 2.85a66.14 66.14 0 00-2.56 17.38m30.09-33.52c-.19 1.8-.95 14.62 3.33 26.11m-17.28-80.25c-.28 2.09-.76 15.58-.76 16.62s1.52 2.57 2.28 2.85c0 0-1.52.48-1.8 5.6m-3.81-12.06A79.85 79.85 0 01424.2 305m12.25-23.73s4.56 1 4.84 0c0 0 1.52 27.54 3.61 42.83m-10.44-39.33c0 1.81-.57 15.39-.57 15.39m2.28 2s1.8 2.57 1.33 3.8m-16.62-26.21c1.52.48 2.85.76 2.85.76m4.84 1.52a34.44 34.44 0 00-.57 4.28m8.17 36.28a4.16 4.16 0 01.76 4.08"/><path class="cls-43" d="M416.52 277s0-3 1.13-4.56c0 0 3.23.67 7.79 1.14s8.35.86 11.77.48a63.17 63.17 0 006.94-1.24s1 4.47.47 5.13a56.84 56.84 0 01-7.78.95 79.43 79.43 0 01-13.49-.76c-3.13-.38-5.89-.95-6.83-1.14z"/><path class="cls-44" d="M419.46 277.37l.56-4.55 1 .09-.19 4.75zm20.6-3.79l.1 5.12 1.14-.19-.09-5.22zm-14.62 0l-.38 4.93h.66l.67-4.93z"/><path class="cls-45" d="M408.92 366.94a32.68 32.68 0 00-.95 5.13c0 .47-.48 3 .95 3.13 1 .09 1.33-2.66 1.33-2.66s-.95 3 .28 3.42c1.71.38 1.9-3.33 1.9-3.33-.19 1.05-1.33 3.71.29 4s2.18-3.63 2.18-3.63-1.42 3.9.28 4 1.62-3.8 1.62-3.8-.86 4.66 1.42 4.28c1.23-.19 1.52-1.81 1.81-2.76.37-1.42 1.23-3.22.19-6.17-.76-2.18-.48-2.75-.48-2.75s-2.66 2-4.75 3.32c-.95.57-6.07-2.18-6.07-2.18zm27.73-4.09c-.48-.29-.38 1.71-.57 2.66s.19 3 3.42 2.85 6.27-.95 8.26-.48a27.38 27.38 0 006.55.67 9.55 9.55 0 003.42-.48c.66-.28 2.09.38 2.75.38s1.71-1 1.62-1.71c-.1-1.23-1.24-1.23-2.85-1.33a27.18 27.18 0 01-4.65-.85 28.84 28.84 0 00-5.32-1.9s-4.56.19-5.51.19-6.55.28-7.12 0z"/></g><path d="M389.26 244.71c-.47.28-1-1.9.38-2.76 0 0 .38-1.8 1.9-2a3.71 3.71 0 013-1.52s2.09-1.42 2.85-1.23a5.69 5.69 0 012.75 2.66 2.71 2.71 0 01-.48 2.27c-.57.57-.95-.09-1-.85a1.76 1.76 0 01-.76 2c-1.14.67-1 .2-1.14-.57 0 0-.28 1.52-1 1.71s-1.24-.38-1.81-.38c0 0 .95.76.29 1.33a1.55 1.55 0 01-1.9-.09c-.48-.48-1.05-1.71-3-.57z" stroke-width=".48" fill="#ad7c59" stroke-linejoin="round" stroke-linecap="round" stroke="#000"/><path d="M398.57 241.2a3.73 3.73 0 00-3.8-2.66m2.09 4.08c-.29-.38-.38-.77-.67-1.14-.85-1.43-2.66-1.33-4.17-1.71m2.27 4.27c-.57-.37-.76-1.14-1.33-1.42a5.51 5.51 0 00-3-.66" stroke-width=".48" stroke-miterlimit="3.73" fill="#ad7c59" stroke-linecap="round" stroke="#000"/><path class="cls-45" d="M560.47 221.63c.66-.29.47.56.56.85a24.49 24.49 0 00.76 3.7c.57 1 .76 1.43 1.71 1.9 1.52.86 6 3.33 9.12 1.33a2.69 2.69 0 00.66-.47 5 5 0 002.76 5.79c1.23.66 14.62 7.69 14.62 7.69a9 9 0 01.57 6.08c-.19.57-.38 1 .19 1.43a11.83 11.83 0 013.51 5.6s2.75-1.24 2.75-3-1.14-2.75-1.42-4.08-1-4.37-.57-5.32 2-1.43 2.66-1.81 1.42.38 1.23 1.23-.75.77-1.52 1a6.35 6.35 0 01.76 3.13l8.74 4.46s-1.14 1.52-1.52 2.18-1.33 9.5-3.89 13.68-3.42 3-3.9 3.61-1.33 1.24-2 1.81-3.52.76-4.18-.86a8.35 8.35 0 00-2.94-3.89c-1.81-1.43-5.51-5-5.51-6.65 0 0-2.18 6.27-1.9 11.49a100.66 100.66 0 01-15.1 1.81c-7.12.09-10.73-1.43-10.73-1.43s-.95-6-.57-7.12a38.08 38.08 0 01-1.9 5.22c-1 1.61-2.08 4.94-4.08 5.13s-3.7-2-4-2.85V267h-8.07c0-.09-3.51 1.33-4.74 1.14s-1.71-1.14-.76-1.52l.38-.28a6.63 6.63 0 00-2.38.66h-4c0-.09.09-.38.09-.47.29-1.14 2.38-2.09 4-2.76a20.36 20.36 0 014.27-1.33 18.74 18.74 0 015.8.39 19.09 19.09 0 015.41 1.23c.47.28 1 .38.76-.85s-1.14-5.23.28-7.79a8.24 8.24 0 00.76-4.85c-.19-1.61-1-5.22-1-6.83 0-5.32 4.08-7.51 7.69-8.65 4-1.23 6.64-2.56 6.46-4.93s.56-6.56.19-8.46"/><path class="cls-45" d="M576.52 210.9c.85 3.13 1 3.89 1 4.94s-.47 1.33-.09 2.57c.66 2.27-.67 4.74-2.28 7.4-.76 1.23-1.33 2.85-2.56 3.61-3.14 2-6.94-.38-8.93-1.24a3.48 3.48 0 01-1.9-2 28.78 28.78 0 01-.76-3.7c0-.29.1-1.14-.57-.86-1.14-1.33-1-1.9-1.42-2.85s.86-2 1.9-1.8a9.16 9.16 0 01-.28-5.51c.19-.57-.48-2.09.47-1.71 4.27 1.71 9.31 1.33 13.87 1.33.37 0 .66-.76 1.23-.66.09 0 .18.28.28.47"/><path class="cls-37" d="M576.9 212.51c.48-.38.19-2.19-.28-4.09-.19-.95-1-1.33-2-2.37a4.44 4.44 0 00-2.08-1.33c-.57-.19-1.9-.19-2.57-.47s-2.09-.1-3.51.09c-1.9.28-3 .19-4.37.95a5.65 5.65 0 00-3 3c-.38 1-1 2.37-.76 6.36s1 3.23 1 3.23 1-1.52 1.71-.57c0 0-.09-2.09-.28-3.32a12.2 12.2 0 01.47-4.28 28.39 28.39 0 008.45 1.62c2.85 0 6.56-.29 6.65-1l.66 2.09z"/><path class="cls-39" d="M571 217c.57 1.61.1 1.14.38 2.18m-9.59 1.9c0 .75-.57.57-.95.57"/><path class="cls-39" d="M577 215.75c-.85-.67-2.46-.2-3.22.09-1.43.66-.67 2.09-.2 3.42.2.66 1 1.61.48 2.28s-.66.38-1.52.47c.1-.28-.76 0-1 0-.57-.09-.86.38-1.33.19s-.48-1.14-.29-1.61m.1-4.18c0-.38-1.24-.76-2.57-.86-2.08-.09-2.27.1-3.89 1.24m10.73 8.35c-.38-.56-1-.85-2-.37 0-.19-1.43-.38-1.43-.38a4.16 4.16 0 00-2 .66m5.22.57c-.86-.57-3-.19-5.23-.19m.19.76a6.56 6.56 0 004.85 0"/><path d="M576.61 217c-.66-.1-1-.86-2.94.28-1 .57 1.71 1.33 1.33 1.24a1.22 1.22 0 001.61-1.05c0-.19.19-.47 0-.47zm-7.78.75c0-.76-1.71-1-2.66-.76a3.86 3.86 0 00-1.42.57c1 .19.66.29 1.42.67s1.05.76 2.18.19a1.37 1.37 0 00.76-.86c-.09.1-.19.19-.28.19z" stroke-width=".28" stroke-linejoin="round" stroke-linecap="round" stroke="#000" fill="#fff"/><path class="cls-41" d="M575.38 218.12a.76.76 0 01-.76-.74.78.78 0 01.76-.86c.38 0 .66.38.66.86a.73.73 0 01-.66.74zm-8.17.18c-.38 0-.66-.37-.66-.85a.74.74 0 01.76-.76.67.67 0 01.66.76.77.77 0 01-.76.85z"/><g id="a-2" data-name="a"><path class="cls-39" d="M526.7 266.93a3.56 3.56 0 011.71-1.24l1.9-.95c.66-.38 1.61-.47 2.18-.85m-.38 2.47c.29-.19.48-.29.76-.48s.66-.09 1-.19c.1 0 .1-.19.19-.19a3.21 3.21 0 002.28-1.23m58.59-8.74c-.85.66-2.94 2.09-3.13 4.84a9.61 9.61 0 01-1 2.85m12.26-7.31c-.48 1.62-.57 6.93-5.61 12.54m4.65-19.95c.38 1.05.86 2-.18 2.76m-13.49 10c-1-2.37-4.27-2.18-4.27-4.46"/><path class="cls-39" d="M583.67 260.94c.29-2.66.85-4.17.38-8.07a33.5 33.5 0 010-7.59s-1.52 7.31 3.42 8.73m-32.1 11.68a16.72 16.72 0 00-.85-5.79c-1.14-5.22 1-7.22.19-8.55-.76-1.13-1.9-3.51-.38-8.26 0 0-2.66 9.79 4.18 9.79s6.64-2.57 6.64-2.57"/><path class="cls-39" d="M584.05 245.27c0 2 0 7.89-8.45 7.89-2.56 0-5.32-1.81-6.83-3m-2.1-2.57a44 44 0 00.29-6.46m12.72-3.22a53.24 53.24 0 00-8.35-.57m-.29-5.9c-.47 2.09.29 5.42-3.61 5.89m-4.08-6.64a20 20 0 01.76 4.08m-.19 2.57c-1.61 0-4.65-1-8.45-.28m-1.33 21.26c-.76 1.53-.95 3.52-3.32 5.8m29.62-10.64c-.19 1.24 1.62 5.32.29 8.64a11.47 11.47 0 001 10.35m-6.17-17.75c.76 1.52 2.09 3 2.37 4.37m-6.16-1.52c0 1 2.56 8.16 4.37 10.16 0 0-3.33 1.33-2.85 6.17m-6.84-19.65c0 1.23.19 1.52-.86 2.27m-2.28 0c-1.23 1.52-5.12 6.08-4.27 8.65m6.84-6.08a22.17 22.17 0 00.57 8.36m2-.19a3 3 0 012.84 2.56m-8.16-2.85c-1-.29-3.13 1.51-3.13 6.64M545.4 264c2 .57 2.85 1.61 2.28 1a18.83 18.83 0 002 1.43"/><path class="cls-41" d="M579 252.3a1 1 0 01-1-.85c0-.39.47-.76 1-.76a.82.82 0 110 1.61zm-21.56.29a.94.94 0 01-1-.85.86.86 0 011-.76c.57 0 1 .29 1 .76a1 1 0 01-1 .85z"/><path class="cls-42" d="M587.66 291.33c-1.14-7.4-4.66-13.58-4.75-14.15a94.74 94.74 0 01-9.88 1.33 46.06 46.06 0 01-10.73.19c-2.75-.28-6.36-.76-6.36-.76a13 13 0 00-1.23 4.56c-.29 4.84-2.09 25.83-2.28 31.43 0 0-.76 3.33-.76 11.49 0 8.93-2.47 27.07-2.47 36.76l2.47.48s13.48 1 13.48-.76c0-2 .76-25.26-1.23-39.32a44.1 44.1 0 011.23-5.13c.76-2.28 4.09-9.4 4.09-10.92 0 0 5.31 15 5.6 17.57.28 2.37 1 35.8 1.52 38.56 0 0 7.69 5.89 8.74 6.46s8.44-3.14 8.64-4.09-.76-12.34-4.28-31c-1.33-6.65-.57-7.88-.57-9.68s-.09-25.65-1.23-33.05z"/><path class="cls-39" d="M574.84 324.1a9.58 9.58 0 003.32 5.42m2.57-50.06c.28 1.24 2.09 6.84 6.65 10.16m-13.3-9.11c1 3.32 5.13 21.18 5.89 42.35m.28 6.66c.19 2 1.24 16.81 1.52 19.37m.76 2.85a66 66 0 012.56 17.38M555 335.59c.19 1.81 1 14.63-3.33 26.12M569 281.46c.29 2.09.76 15.57.76 16.62s-1.52 2.56-2.28 2.85c0 0 1.52.47 1.8 5.6m3.72-12.06a81.43 81.43 0 002.89 10.53m-12.25-23.74s-4.56 1-4.84 0c0 0-1.52 27.55-3.61 42.83m10.44-39.32c0 1.81.57 15.39.57 15.39m-2.28 2s-1.8 2.56-1.33 3.8m16.62-26.21c-1.52.48-2.85.76-2.85.76m-4.84 1.49a34.33 34.33 0 01.57 4.27m-8.17 36.28a4.19 4.19 0 00-.76 4.09"/><path class="cls-43" d="M583.58 277s0-3-1.14-4.56c0 0-3.23.66-7.79 1.14s-8.35.85-11.77.47a64.49 64.49 0 01-6.94-1.23s-1 4.47-.47 5.13a57.13 57.13 0 007.79.95 79.24 79.24 0 0013.48-.76c3.13-.38 5.89-.95 6.84-1.14z"/><path class="cls-44" d="M580.64 277.37l-.57-4.56-1 .1.19 4.75zm-20.64-3.8l-.1 5.13-1.14-.19.1-5.22zm14.62 0l.38 4.94h-.66l-.67-4.94z"/><path class="cls-45" d="M591.17 366.93a33.15 33.15 0 011 5.13c0 .48.48 3-1 3.14-1 .09-1.33-2.66-1.33-2.66s1 3-.28 3.42c-1.71.37-1.9-3.33-1.9-3.33.19 1.05 1.33 3.71-.28 4s-2.19-3.61-2.19-3.61 1.43 3.89-.28 4-1.62-3.8-1.62-3.8.86 4.65-1.42 4.27c-1.23-.19-1.52-1.8-1.8-2.75-.38-1.42-1.24-3.23-.19-6.17.75-2.19.47-2.76.47-2.76s2.66 2 4.75 3.33c.95.57 6.08-2.19 6.08-2.19zm-27.73-4.08c.48-.29.38 1.71.57 2.65s-.19 3-3.42 2.85-6.26-1-8.26-.47a27.29 27.29 0 01-6.55.66 9.87 9.87 0 01-3.42-.47c-.66-.29-2.09.38-2.75.38s-1.71-1.05-1.61-1.71c.09-1.24 1.23-1.24 2.85-1.33a27.49 27.49 0 004.65-.86 28.53 28.53 0 015.31-1.89s4.56.19 5.51.19 6.55.28 7.12 0z"/></g><path d="M609.47 248.12c.47.19 1.8-1.89.47-2.84 0 0-.47-1.81-2-1.9 0 0-1.24-1.81-3-1.52 0 0-2-1.43-2.76-1.33a6.17 6.17 0 00-2.84 2.75 3.34 3.34 0 00.47 2.28c.57.48 1-.1 1-.95a1.94 1.94 0 00.76 2.09c1.14.66 1 .09 1.14-.66 0 0 .29 1.51 1 1.8s1.23-.38 1.8-.38c0 0-1 .76-.28 1.23a1.44 1.44 0 001.9-.09c.57-.38.28-1.62 2.27-.48z" fill="#653024" stroke-width=".48" stroke-miterlimit="3.73" stroke-linecap="round" stroke="#000"/><path d="M600.93 244.61a3.59 3.59 0 013.79-2.66m-2 4.09a6.07 6.07 0 01.57-1.14c.85-1.42 2.75-1.42 4.27-1.71m-2.38 4.18c.57-.38.76-1.05 1.33-1.33a5 5 0 013-.67" fill="#653024" stroke-width=".48" stroke-linejoin="round" stroke-linecap="round" stroke="#000"/><path d="M600.76 241.83A5.52 5.52 0 00599 244a3.28 3.28 0 00.47 2.28c.51.43.88 0 1-.73a1.79 1.79 0 00.78 1.86c1.14.67 1 .09 1.14-.67 0 0 .29 1.53 1.05 1.81s1.24-.38 1.81-.38c0 0-1 .75-.29 1.23a1.42 1.42 0 001.89-.09c.57-.38.28-1.61 2.28-.47.25.1.75-.42 1-1.08l-7.17-5.16z" fill="#653024"/><path class="cls-45" d="M599.24 243.16c-1.41 2.41.46 3.85 1.08 2.44-.18 2.23 1.5 2.14 2.14 1.44.61 2.34 1.7 1.3 2.71 1.08-1.14 2.14 1.38 1.51 2 1 .86-1.27 1.26-.25 1.9-.38l1.08-1.17m-7.44-5.32a3.89 3.89 0 00-2.37 3.45m4.54-2.05a3.88 3.88 0 00-2.36 3.45m5-1.63c-1.57.84-1.64 1.61-2.32 2.64"/><path class="cls-52" d="M500.08 419.36c21.36.19 34-7.59 40.92-12.25 16.24-10.92 19.66-11.3 22.32-11.11 3 .29 7.5 1.33 7.69 4 .29 4.09-6.36 5.89-10.16 5.89s-14.05-2.57-14.05-2.57l-2.66 1.81c1.8.86 22.6 7.79 26.58 1.24s8.17-17.37 8.17-17.37a17.41 17.41 0 00-14.72-8.16c-10.25 0-20.23 6.46-26.87 11.29s-15 11.5-37.23 11.5-30.67-6.63-37.31-11.53-16.62-11.29-26.76-11.29a17.47 17.47 0 00-14.83 8.19s4.08 10.74 8.16 17.38 24.79-.38 26.59-1.23l-2.56-1.81s-10.26 2.57-14.06 2.57-10.54-1.81-10.25-5.89c.19-2.66 4.65-3.71 7.69-4 2.66-.19 6.08.19 22.31 11.11 6.94 4.65 19.57 12.16 41 12.25"/><path class="cls-52" d="M465.7 394.19s0-1.81-.29-4.46c-.37-3.42-2.37-4.28-4-3.8-1.05.37-3.13 2.94-3.13 2.94v.1a30.65 30.65 0 00-2.95-1.81c.76-.85 5.13-3.51 6.17-3.51s14.06 5.32 18.23 8.92c1.05 1 1.81 6.84 1.24 8.74a44.9 44.9 0 01-15.29-7v-.09m-6.27 13.3a12.22 12.22 0 00-2.94 8.07c-.1 6.18 4.37 6.46 7.31 6.37 3.51-.1 6.36-2.09 6.27-8.65a70.69 70.69 0 01-10.64-5.79m74.93-13.3s.1-1.81.38-4.46c.38-3.42 2.28-4.28 3.89-3.8 1 .37 3.13 2.94 3.13 2.94v.1a30.65 30.65 0 013-1.81c-.76-.85-5.13-3.51-6.08-3.51s-14.15 5.32-18.32 8.92c-1 1-1.72 6.84-1.24 8.74a44.17 44.17 0 0015.29-7v-.09m6.26 13.3a12.26 12.26 0 013 8.07c.19 6.18-4.37 6.46-7.32 6.37-3.51-.1-6.26-2.09-6.26-8.65a70.84 70.84 0 0010.63-5.79"/><path d="M453.26 403.31s-10.16 2.56-14 2.56-10.54-1.8-10.25-5.88c.19-2.66 4.65-3.71 7.69-4 2.28-.19 5.22.09 16.52 7.31m93.54 0s10.16 2.56 14.06 2.56S571.3 404.07 571 400c-.18-2.66-4.65-3.71-7.69-4-2.28-.19-5.22.09-16.52 7.31m-81.1-9c-1-.75-2.09-1.52-3-2.27-1.42-1.05-2.85-2-4.37-3 0 0 2.09-2.66 3.14-3 1.61-.57 3.6.28 4 3.7.29 2.66.29 4.57.29 4.57m-6.93 26.78a8.54 8.54 0 005 .86c3.52-.1 6.36-2.09 6.27-8.64a59.09 59.09 0 0011.49 3.89 8 8 0 011.33 4.27c.28 2.38-1.33 4.94-3.23 4.75 0 0-10-1.8-16.05-2.85-3.51-.66-4.84-2.28-4.84-2.28m75.59-26.79l3.13-2.27c1.33-1.05 2.75-2 4.27-3 0 0-2.08-2.66-3.13-3-1.61-.57-3.51.28-3.89 3.7-.29 2.66-.38 4.57-.38 4.57m6.92 26.78a8.53 8.53 0 01-5 .86c-3.51-.1-6.27-2.09-6.27-8.64a59.15 59.15 0 01-11.39 3.89 7.65 7.65 0 00-1.43 4.27c-.18 2.38 1.43 4.94 3.23 4.75 0 0 10.07-1.8 16.05-2.85 3.52-.66 4.84-2.28 4.84-2.28" fill="#171696"/><path class="cls-54" d="M500.08 419.36c21.36.19 34-7.6 40.92-12.25 16.24-10.92 19.66-11.3 22.32-11.11 3 .29 7.5 1.33 7.69 4 .29 4.08-6.36 5.88-10.16 5.88s-14.05-2.56-14.05-2.56l-2.66 1.81c1.8.86 22.59 7.79 26.58 1.23s8.17-17.36 8.17-17.36a17.41 17.41 0 00-14.72-8.17c-10.25 0-20.23 6.46-26.87 11.31s-15 11.49-37.23 11.49-30.67-6.63-37.31-11.52S446.14 380.8 436 380.8a17.47 17.47 0 00-14.83 8.2s4.08 10.73 8.16 17.38 24.79-.38 26.59-1.23l-2.56-1.81s-10.26 2.56-14.05 2.56-10.54-1.79-10.26-5.88c.19-2.66 4.65-3.71 7.69-4 2.66-.19 6.08.19 22.31 11.11 6.94 4.65 19.57 12.16 41 12.25z"/><path class="cls-54" d="M453.26 403.31s-10.16 2.56-14 2.56-10.54-1.8-10.25-5.88c.19-2.66 4.65-3.71 7.69-4 2.28-.19 5.22.09 16.52 7.31zm93.53 0s10.16 2.56 14.06 2.56 10.44-1.8 10.16-5.88c-.19-2.66-4.65-3.71-7.69-4-2.28-.19-5.23.09-16.52 7.31zm-81.09-9c-1-.75-2.09-1.52-3-2.27-1.42-1.05-2.85-2-4.37-3 0 0 2.09-2.66 3.14-3 1.61-.57 3.6.28 4 3.71.29 2.65.29 4.56.29 4.56z"/><path class="cls-54" d="M465.7 394.19s0-1.81-.29-4.46c-.37-3.42-2.37-4.28-4-3.8-1.05.38-3.14 2.94-3.14 2.94v.1a30.5 30.5 0 00-2.94-1.81c.76-.85 5.13-3.51 6.17-3.51s14.06 5.32 18.23 8.93c1.05.95 1.81 6.83 1.24 8.74a45.28 45.28 0 01-15.29-7m-6.27 13.2a12.22 12.22 0 00-2.94 8.07c-.1 6.17 4.37 6.46 7.31 6.37 3.51-.1 6.36-2.09 6.27-8.65a71.22 71.22 0 01-10.64-5.79z"/><path class="cls-54" d="M461.81 408.91a11.25 11.25 0 00-2.66 6.27c-.19 3 1.81 4.74 4.37 4.55 3.61-.18 5-5.12 3.32-7.88z"/><path class="cls-54" d="M458.77 421.07a8.53 8.53 0 005 .86c3.51-.1 6.36-2.09 6.27-8.65a58.63 58.63 0 0011.49 3.9 8 8 0 011.33 4.27c.28 2.38-1.33 4.94-3.23 4.75 0 0-10-1.81-16.05-2.85-3.51-.66-4.84-2.28-4.84-2.28zm75.59-26.79l3.13-2.27c1.33-1.05 2.76-2 4.28-3 0 0-2.09-2.66-3.14-3-1.61-.57-3.51.28-3.89 3.71-.16 1.51-.29 3-.38 4.56z"/><path class="cls-54" d="M534.36 394.19s.1-1.81.38-4.46c.38-3.42 2.28-4.28 3.89-3.8 1 .38 3.13 2.94 3.13 2.94v.1a30.65 30.65 0 013-1.81c-.76-.85-5.13-3.51-6.08-3.51s-14.15 5.32-18.32 8.93c-1 .95-1.72 6.83-1.24 8.74a44.54 44.54 0 0015.29-7m6.26 13.2a12.26 12.26 0 013 8.07c.19 6.17-4.37 6.46-7.32 6.37-3.51-.1-6.26-2.09-6.26-8.65a70.84 70.84 0 0010.63-5.79z"/><path class="cls-54" d="M538.25 408.91a11.25 11.25 0 012.66 6.27 3.89 3.89 0 01-4.37 4.55c-3.61-.18-4.94-5.12-3.32-7.88z"/><path class="cls-54" d="M541.28 421.07a8.53 8.53 0 01-5 .86c-3.51-.1-6.26-2.09-6.26-8.65a59 59 0 01-11.4 3.9 7.6 7.6 0 00-1.42 4.27c-.19 2.38 1.42 4.94 3.23 4.75 0 0 10.06-1.81 16-2.85 3.52-.66 4.85-2.28 4.85-2.28z"/><path d="M480.8 418.89s3.14 2.28-.66 5.13m-8.74-6.65l9.6 4.18m-8-2l7 3m-4.55-4.84l5.32 2.38m38.55-1.24s-3.23 2.28.57 5.13m8.74-6.65l-9.59 4.18m8.07-2l-7 3m4.47-4.84l-5.22 2.38" stroke-width=".66" stroke="#fff" fill="none" stroke-miterlimit="3.11"/><path d="M443.26 389.67a2 2 0 01.26.69 2.25 2.25 0 010 .81 2.29 2.29 0 01-1.12 1.6 3 3 0 01-2.11.31 3.57 3.57 0 01-1.05-.38 4.5 4.5 0 01-.87-.57l-.32.36-.46-.08c.15-.92.29-1.84.45-2.76l.46.09a6.54 6.54 0 00.16 1 3.27 3.27 0 00.36.87 2.35 2.35 0 00.6.66 2 2 0 00.88.37 2.17 2.17 0 00.71 0 1.09 1.09 0 00.53-.2 1.35 1.35 0 00.36-.39 1.79 1.79 0 00.09-1.5 1.71 1.71 0 00-.7-.79l-.79-.49a7.57 7.57 0 01-.76-.49 2.53 2.53 0 01-.91-1 2 2 0 01-.14-1.36 1.89 1.89 0 01.35-.81 2.16 2.16 0 01.67-.6 2.47 2.47 0 01.87-.32 2.94 2.94 0 011 0 2.8 2.8 0 011 .36 4.64 4.64 0 01.73.55l.31-.34.46.09-.46 2.66-.47-.09c0-.31-.06-.62-.11-.93a3.22 3.22 0 00-.27-.83 2 2 0 00-.5-.64 1.92 1.92 0 00-.83-.36 1.37 1.37 0 00-1 .17 1.13 1.13 0 00-.55.77 1.49 1.49 0 00.09.9 1.72 1.72 0 00.6.7c.26.19.51.35.76.5s.49.3.72.46a4.54 4.54 0 01.6.46 2.54 2.54 0 01.46.53m11.65 1.64a2.2 2.2 0 00-.45-.17 1.43 1.43 0 00-.54-.09.87.87 0 00-.5.35 5.94 5.94 0 00-.56.85c-.56 1-1.14 2.07-1.71 3.1a2.36 2.36 0 01-.82.89 2.48 2.48 0 01-1.05.36 3.19 3.19 0 01-1.07-.07 4.79 4.79 0 01-.91-.36 4 4 0 01-1.07-.81 2.87 2.87 0 01-.61-.93 2.16 2.16 0 01-.15-.94 2.18 2.18 0 01.25-.87l2.33-4.21a1 1 0 00.11-.34.7.7 0 00-.12-.34 1.93 1.93 0 00-.27-.3l-.29-.23.19-.36 3 1.67-.2.35a2.5 2.5 0 00-.38-.15 2.24 2.24 0 00-.37-.1.4.4 0 00-.34.08.84.84 0 00-.22.27L447 392.9a3 3 0 00-.26.64 1.61 1.61 0 00.21 1.47 2.54 2.54 0 00.84.69 2.84 2.84 0 001 .35 1.93 1.93 0 00.85-.13 2 2 0 00.61-.41 2.86 2.86 0 00.42-.55l1.61-2.93a4.12 4.12 0 00.42-1 .86.86 0 000-.59 1.65 1.65 0 00-.37-.47 4.58 4.58 0 00-.43-.34l.19-.35 3 1.63-.2.36m4.19 7.25a2 2 0 01.21.85 1.85 1.85 0 01-.27.94 1.92 1.92 0 01-.71.73 2.09 2.09 0 01-.91.27 3.1 3.1 0 01-1-.09 4.13 4.13 0 01-.95-.39l-3.39-1.95.21-.35.37.15a1.7 1.7 0 00.38.12.48.48 0 00.33-.06.85.85 0 00.24-.26l2.92-5.08a.93.93 0 00.12-.33.6.6 0 00-.11-.34 1.64 1.64 0 00-.28-.31l-.28-.23c.06-.12.14-.23.2-.35l3.31 1.9a4.34 4.34 0 01.69.5 2.66 2.66 0 01.51.64 1.71 1.71 0 01.22.76 1.58 1.58 0 01-.22.84 1.81 1.81 0 01-.52.58 1.64 1.64 0 01-.68.28 2.46 2.46 0 01-.72 0 3.4 3.4 0 01-.77-.16h0a5 5 0 01.61.55 3 3 0 01.49.72zm-.6-1.77a1.3 1.3 0 00.53-.32 2.65 2.65 0 00.42-.56 1.44 1.44 0 00.2-1.1 1.6 1.6 0 00-.83-.92 4.61 4.61 0 00-.41-.22c-.16-.1-.3-.17-.41-.23l-1.57 2.72.64.37a2.35 2.35 0 00.77.3 1.21 1.21 0 00.66 0zm-.6 2.66a1.54 1.54 0 00.17-1.27 2 2 0 00-1-1.11l-.55-.31-.34-.18c-.48.84-.95 1.67-1.43 2.49a.6.6 0 000 .62 1.48 1.48 0 00.63.57 1.73 1.73 0 001.4.24 2.12 2.12 0 001.13-1.05zm18.39 4.2a2.52 2.52 0 00-.47-.13 1.64 1.64 0 00-.54 0 .84.84 0 00-.47.4 5.91 5.91 0 00-.47.9l-1.39 3.26a2.42 2.42 0 01-.73 1 2.49 2.49 0 01-1 .45 2.75 2.75 0 01-1.07 0 3.63 3.63 0 01-.95-.26 4.07 4.07 0 01-1.14-.69 3.08 3.08 0 01-.7-.87 2.13 2.13 0 01-.24-.92 2.07 2.07 0 01.16-.89l1.9-4.43a.94.94 0 00.08-.33.71.71 0 00-.16-.34 1.5 1.5 0 00-.29-.27l-.32-.2c.06-.12.11-.25.16-.37l3.16 1.35c-.05.13-.1.25-.16.38a2.91 2.91 0 00-.39-.12 2.38 2.38 0 00-.37-.06.37.37 0 00-.33.11.72.72 0 00-.2.29c-.6 1.38-1.19 2.76-1.78 4.14a3.75 3.75 0 00-.2.65 1.84 1.84 0 000 .74 1.74 1.74 0 00.37.71 2.39 2.39 0 00.9.6 2.7 2.7 0 001.07.25 1.79 1.79 0 00.83-.22 2 2 0 00.57-.46 2.39 2.39 0 00.36-.59l1.32-3.07a5.12 5.12 0 00.32-1 .84.84 0 000-.59 1.29 1.29 0 00-.42-.42 2.59 2.59 0 00-.46-.3l.16-.37 3.1 1.32c-.05.13-.11.25-.16.37m8.93 10.5l-3.51-1 .12-.39c.13 0 .29.07.5.1a1.2 1.2 0 00.44 0 .76.76 0 00.32-.17.7.7 0 00.18-.31l1.65-5.7h-.09c-1.53 2-3.1 3.91-4.64 5.89l-.27-.09c-.19-2.52-.43-5-.61-7.55h-.08l-1.35 4.68a4.57 4.57 0 00-.21 1.05 1 1 0 00.12.59 1.32 1.32 0 00.45.36 2.77 2.77 0 00.47.26l-.12.39-3.2-.92c0-.13.08-.27.11-.4a3.3 3.3 0 00.56.07 1 1 0 00.48-.05.86.86 0 00.4-.4 5.42 5.42 0 00.38-1l1.16-4a1.66 1.66 0 00.08-.59.86.86 0 00-.13-.42 1.24 1.24 0 00-.37-.35 2.28 2.28 0 00-.47-.23l.11-.39 2.7.78c.18 2.18.4 4.36.58 6.54 1.11-1.45 2.25-2.89 3.36-4.35a5.23 5.23 0 00.35-.52 2.58 2.58 0 00.19-.37l2.59.75-.11.39-.41-.07h-.39a.44.44 0 00-.32.15 1 1 0 00-.16.32l-1.63 5.64a.7.7 0 000 .35.56.56 0 00.19.3 1.35 1.35 0 00.33.21c.16.08.29.13.39.17s-.08.26-.11.39m8.48-2.58a2 2 0 01.52.7 1.8 1.8 0 01.12 1 2 2 0 01-.37.95 2.31 2.31 0 01-.74.61 3.19 3.19 0 01-.92.29 4.43 4.43 0 01-1 0l-3.87-.49.05-.41h.41a1.79 1.79 0 00.39 0 .54.54 0 00.28-.19.66.66 0 00.12-.33c.24-1.94.48-3.87.73-5.81a1 1 0 000-.35.6.6 0 00-.24-.28 2.12 2.12 0 00-.37-.18l-.35-.1.05-.4 3.79.47a4.55 4.55 0 01.83.19 2.82 2.82 0 01.72.4 1.75 1.75 0 01.5.61 1.62 1.62 0 01.11.86 1.69 1.69 0 01-.76 1.26 2.5 2.5 0 01-.66.31 3.39 3.39 0 01-.77.15v.05a5.52 5.52 0 01.77.27 2.8 2.8 0 01.72.47zm-1.24-1.39a1.58 1.58 0 00.37-.5 3.22 3.22 0 00.11-.77 1.48 1.48 0 00-.24-1.09 1.55 1.55 0 00-1.12-.53l-.46-.06h-.48c-.13 1-.25 2.08-.39 3.11l.73.09a2.57 2.57 0 00.83 0 1.42 1.42 0 00.59-.29zm.48 2.68a1.59 1.59 0 00-.34-1.24 2 2 0 00-1.34-.64l-.62-.07h-.39l-.36 2.86a.62.62 0 00.23.58 1.6 1.6 0 00.8.28 1.67 1.67 0 001.37-.33 2.1 2.1 0 00.65-1.4zm11 2.47h-2.22c-.49-.77-.94-1.42-1.33-2s-.84-1.12-1.3-1.72h-.85v2.59a1 1 0 00.07.35.42.42 0 00.27.23 2 2 0 00.37.08h.44v.41H496V415h.41a1.5 1.5 0 00.37-.08.53.53 0 00.25-.22.76.76 0 00.08-.36v-5.9a1 1 0 00-.06-.35.43.43 0 00-.28-.24 2.49 2.49 0 00-.37-.09 2.76 2.76 0 00-.4-.06v-.41h3.81a4.48 4.48 0 011 .11 2.55 2.55 0 01.83.34 1.72 1.72 0 01.57.6 1.69 1.69 0 01.22.9 2.37 2.37 0 01-.14.83 1.71 1.71 0 01-.44.62 2.36 2.36 0 01-.62.43 5.93 5.93 0 01-.81.31c.4.54.75 1 1 1.34s.6.8 1 1.33a2.51 2.51 0 00.87.78 1.57 1.57 0 00.38.11 3.64 3.64 0 00.38.05v.4zm-3-6.08a1.64 1.64 0 00-.43-1.17 1.61 1.61 0 00-1.21-.43h-1v3.49h.76a1.81 1.81 0 001.34-.51 1.83 1.83 0 00.54-1.38zm12.58 5.47l-3.43.26v-.41a3.82 3.82 0 00.75-.17c.19-.08.28-.15.28-.24v-.12a.5.5 0 00-.05-.13l-.82-1.77-2.89.22c-.09.28-.16.51-.21.72l-.14.56c0 .14-.06.27-.08.41s0 .19 0 .25.14.26.4.33a3.06 3.06 0 00.83.09v.41l-3.1.23v-.41a2.22 2.22 0 00.37-.09 1.22 1.22 0 00.36-.18 1.39 1.39 0 00.34-.35 1.71 1.71 0 00.21-.48c.33-1.06.72-2.23 1.11-3.54s.77-2.48 1.08-3.5h.46c1.08 2.27 2.2 4.52 3.28 6.79a1.78 1.78 0 00.22.35 1.5 1.5 0 00.33.25 1.42 1.42 0 00.36.1 1.86 1.86 0 00.36 0v.41zm-3.58-3.07c-.49-1-1-2-1.49-3.06-.32 1.09-.67 2.16-1 3.24zm15.28-6.43l-.42.11a3.18 3.18 0 00-.74-.8 1.25 1.25 0 00-.87-.36l-.42.08-.55.14-1.34.36c.29 1.05.57 2.11.86 3.16l.92-.25a2.17 2.17 0 00.62-.26 1.26 1.26 0 00.32-.37 1.19 1.19 0 00.1-.44 2.33 2.33 0 000-.59l.42-.11c.28 1 .56 2.06.84 3.09l-.42.12a2.94 2.94 0 00-.27-.53 1.67 1.67 0 00-.34-.38.86.86 0 00-.49-.18 2.31 2.31 0 00-.64.1l-.92.25.74 2.71a.77.77 0 00.16.31.61.61 0 00.32.16 1.79 1.79 0 00.39 0 2.57 2.57 0 00.44-.06l.11.39-3.45.94-.11-.39.44-.16a1.23 1.23 0 00.35-.17.42.42 0 00.18-.28.73.73 0 000-.36l-1.54-5.67a.89.89 0 00-.15-.31.57.57 0 00-.32-.16 2.16 2.16 0 00-.44 0 2.1 2.1 0 00-.43.05l-.11-.4 6.25-1.69.54 2m9.2-.69l.9 2.26-5.81 2.8-.18-.37a3.5 3.5 0 00.35-.21 1.48 1.48 0 00.29-.22.55.55 0 00.14-.31.81.81 0 00-.09-.37l-2.54-5.25a.83.83 0 00-.21-.28.47.47 0 00-.34-.1 1.75 1.75 0 00-.4 0 1.72 1.72 0 00-.39.1l-.18-.37 3.14-1.51.18.37a2 2 0 00-.36.23 1.68 1.68 0 00-.29.25.38.38 0 00-.14.33.89.89 0 00.08.35l2.38 4.93a4.83 4.83 0 00.29.51.54.54 0 00.31.22.72.72 0 00.36-.03 5.88 5.88 0 00.68-.29l.4-.21a3.48 3.48 0 00.38-.23 2.49 2.49 0 00.29-.25.62.62 0 00.17-.25 5.24 5.24 0 00.15-1 6.66 6.66 0 000-1l.37-.18m4.35-8.08a4.15 4.15 0 011.43.74 5.18 5.18 0 011.79 3 4.07 4.07 0 01-.07 1.6 3.73 3.73 0 01-.65 1.38 3.81 3.81 0 01-1.16 1 3.74 3.74 0 01-1.53.53 3.56 3.56 0 01-1.53-.13 3.85 3.85 0 01-1.4-.74 4.84 4.84 0 01-1.12-1.31 5 5 0 01-.64-1.69 4.3 4.3 0 01.06-1.6 4 4 0 01.66-1.39 3.91 3.91 0 011.15-1 3.85 3.85 0 011.49-.52 3.71 3.71 0 011.52.09zM541 402a3.85 3.85 0 00-.19-1.26 7.1 7.1 0 00-.62-1.34 6.65 6.65 0 00-.93-1.25 3.56 3.56 0 00-1-.77 2.23 2.23 0 00-1.08-.25 2.19 2.19 0 00-1.09.33 2 2 0 00-.85.87 2.34 2.34 0 00-.26 1.13 4.14 4.14 0 00.23 1.24 6.58 6.58 0 00.6 1.3 7.07 7.07 0 00.88 1.21 4 4 0 001 .78 2.28 2.28 0 001.09.27 2.16 2.16 0 001.13-.33 2.3 2.3 0 00.82-.82A2.35 2.35 0 00541 402zm10.24-5.56l-1.82 1.29c-.83-.35-1.58-.61-2.22-.84s-1.33-.43-2.05-.65l-.69.49 1.49 2.11a1.16 1.16 0 00.26.24.47.47 0 00.36 0 2.37 2.37 0 00.34-.15 2.9 2.9 0 00.38-.23l.24.34-2.85 2-.23-.34.31-.26a1.67 1.67 0 00.25-.28.46.46 0 00.08-.32.7.7 0 00-.15-.34c-1.13-1.61-2.27-3.21-3.4-4.81a1.07 1.07 0 00-.26-.26.41.41 0 00-.35 0 2.59 2.59 0 00-.72.32l-.24-.33 3.11-2.2a4.33 4.33 0 01.86-.49 3 3 0 01.88-.2 1.86 1.86 0 01.81.15 1.9 1.9 0 01.7.61 2.23 2.23 0 01.36.77 1.73 1.73 0 010 .75 2.55 2.55 0 01-.26.71 4 4 0 01-.49.72l1.61.51 1.58.51a2.54 2.54 0 001.16.13 1.84 1.84 0 00.37-.13 2.54 2.54 0 00.34-.18 4 4 0 01.23.34zm-6-3.18a1.68 1.68 0 00-1-.71 1.65 1.65 0 00-1.24.35l-.81.57c.68.95 1.35 1.9 2 2.86l.63-.45a1.78 1.78 0 00.79-1.18 1.85 1.85 0 00-.35-1.44zm12.81-1.95c.22.77.45 1.54.68 2.31l-6.42 2.38c0-.13-.1-.25-.14-.38l.42-.21a1.68 1.68 0 00.33-.2.59.59 0 00.16-.3.64.64 0 00-.05-.36L551 389a.92.92 0 00-.18-.3.5.5 0 00-.33-.12 2.38 2.38 0 00-.44 0 2.07 2.07 0 00-.42.08c0-.12-.1-.25-.14-.38l6-2.22.68 1.84-.4.15a2.79 2.79 0 00-.8-.69 1.21 1.21 0 00-.88-.25l-.41.11-.54.19-1.22.46c.37 1 .75 2 1.13 3l.87-.33a1.85 1.85 0 00.59-.3.91.91 0 00.24-.38 1.42 1.42 0 000-.5 2.33 2.33 0 00-.07-.53l.41-.16 1.11 3-.41.15a2.72 2.72 0 00-.32-.51 1.54 1.54 0 00-.35-.34 1 1 0 00-.49-.13 2 2 0 00-.59.15l-.88.32c.29.77.57 1.54.85 2.3a3.36 3.36 0 00.25.53.57.57 0 00.3.23 1 1 0 00.44 0 6.85 6.85 0 00.71-.23l.48-.17a4.8 4.8 0 00.48-.21l.41-.24a.67.67 0 00.25-.27 3.78 3.78 0 00.24-1 4.84 4.84 0 00.06-.9l.4-.15m6.9-5.66a3.84 3.84 0 011 1.24 4.83 4.83 0 01.53 1.71 4.64 4.64 0 01-.08 1.78 4.07 4.07 0 01-.68 1.46 3.78 3.78 0 01-1.14 1 3.72 3.72 0 01-1.47.5 4 4 0 01-1.62-.11 3.56 3.56 0 01-1.36-.72 4.07 4.07 0 01-1-1.23 4.75 4.75 0 01-.52-1.65 4.66 4.66 0 01.08-1.8 4.19 4.19 0 01.68-1.45 3.89 3.89 0 012.61-1.51 4 4 0 011.58.1 3.82 3.82 0 011.35.68zm-.1 5.85a4 4 0 00.32-1.24 6.67 6.67 0 000-1.48 6.46 6.46 0 00-.37-1.5 3.64 3.64 0 00-.63-1.12 2.31 2.31 0 00-.9-.65 2.23 2.23 0 00-1.13-.13 2.1 2.1 0 00-1.14.47 2.52 2.52 0 00-.68.94 4.12 4.12 0 00-.3 1.32 6.82 6.82 0 000 1.43 6.65 6.65 0 00.35 1.46A3.85 3.85 0 00561 392a2.44 2.44 0 00.89.68 2.24 2.24 0 001.17.13 2.19 2.19 0 001.07-.43 2.39 2.39 0 00.71-.9z" stroke-width=".65" stroke-miterlimit="3.11" stroke="#000"/><path d="M468.7 266.93h62.72m5.13 0h8.82v51.57c0 10.25-1.42 51.09-45.29 66.95-44-15.86-45.39-56.69-45.39-66.95v-51.57h8.88" stroke-width=".95" fill="none" stroke-miterlimit="3.11" stroke="#000"/><path d="M494.08 132.86c-3.41 0-7.17 1.67-11 5.81h0c9.29-2.73 13.4 3.43 17.28 7.37a154.55 154.55 0 00-33.49 3.72c-3.6-8-16.31-17.63-26.19-3 9-4.25 14.06 1.64 18.6 4.88a154.08 154.08 0 00-26.76 10.25c0-.06-.05-.14-.08-.2-3.71-7.09-23-15.74-27.57 3.83 9.52-9.87 19 1 24.63-2.09a153.33 153.33 0 00-24.5 15.9c0-.05-.07-.12-.11-.17-5.16-6.13-25.9-10.45-26.09 9.63 7-11.44 18.29-3.39 23.29-7.09A154.58 154.58 0 00380 204.38c-.12-.14-.23-.3-.35-.42-5.75-5.58-26.82-7.82-25 12.18 6-12.41 18.54-4.76 22.83-9.7a5.61 5.61 0 00-1.18 2.77 154 154 0 00-15.64 26.63c-7.1-3.8-27.9-.27-20.69 18.45h0c2.36-13.56 16.55-9.57 19.33-15.48 0 .06 0 .13-.06.19a153 153 0 00-9.66 31.16c-8.74.21-23 8.49-12.66 23.15-.74-9.89 6.67-12.43 11.36-15.47a154.43 154.43 0 00-1.58 22.07c0 2.22.06 4.43.15 6.63-7.85 3.46-18.23 17.79-1.85 26.73-4.63-7.83-.41-13.11 2.53-17.62a152.94 152.94 0 005.61 28.35c-7.39 4.76-14.93 18.06.61 25.87-4.95-7.75-.76-13.21 2-17.85a152.62 152.62 0 0012.64 26.71c-5.93 6.41-9.85 22.13 7.83 25.1-7.21-6.08-4.58-12.68-3.33-18a154.59 154.59 0 0019.94 23.94c-5.59 6.67-8.67 22.92 9.35 24.71-8.68-6.37-4.59-14.31-4.27-19.93a154.51 154.51 0 0028.69 20.34c-1.57 8.6 3.1 23.26 19.49 17.27-8.87-1.64-10.19-8.13-11.67-13.26a152.28 152.28 0 0032.12 11.1c-.15 8.71 5.76 20.94 20.74 14.3-9.12-1.06-10.79-7.64-12.64-12.7a155.28 155.28 0 0026 2.19c1.69 0 3.36 0 5-.09 1.9 8.53 12 20.32 24.78 8.35-9.68 2.16-13.29-4.63-17-8.79a153.34 153.34 0 0033.57-6.6c5.26 7 18 13.32 25.51-1.62-7.25 4.65-12.57 1.35-17.07-1.33A153.05 153.05 0 00581 431.15c6.57 5.36 25 7.67 24.77-11.25-4.79 8.26-12 6.71-17.49 6.49a154.53 154.53 0 0024.4-21c7.74 4.13 23.68 4.15 22.62-13.4-4.41 8.47-11.63 7.25-17.16 7.28a154 154 0 0018.11-26.58c8.61 1.47 24.34-4 16.87-20.4h0c-1 9.23-7.9 10.81-13 12.72a153 153 0 0010.84-32c8.6-1.87 20.5-11.84 8.54-24.55 1.76 8-2.75 11.82-6.75 15a154.17 154.17 0 001.79-23.49v-3.29c8.37-2.67 19.29-13.81 6.07-25.29 2.88 8.78-2.61 13-6.48 16.86a152.42 152.42 0 00-4.16-25.73c7.4-4.4 15.82-19.93-1.54-26.73 5.95 7.64 1.59 13.68-.69 18.7a153.08 153.08 0 00-10.75-26c6.25-6.05 11-22-6.79-25.54 7.08 6.37 4.1 13 2.7 18.25a154.15 154.15 0 00-16.2-22.2c3.31-8.1 1.78-23.33-15.48-20.85 7.3 3 8.13 8.44 8.48 13.33a154.55 154.55 0 00-19.81-16.83c2.38-8.25-1.94-25.1-19.29-18.6h0c9.2 1.63 10.36 8.49 11.95 13.68A153.61 153.61 0 00555 156c1.46-8.48-4.57-24.61-21.09-16.46 10.29.77 11.46 8.93 13.94 14a152.92 152.92 0 00-39.31-7.21c-1.33-5.8-7-13.45-14.49-13.39zm6.52 17h2.29c-5.17 3.1-9.62 13.31-20.74 10.46 12 13.53 25.13-1.9 26.58-10.27a149.69 149.69 0 0138.54 7.19c-5.78 1.77-13.17 8.32-21.93 2.18 6.27 16.63 23.68 7.35 28.35.08a149.41 149.41 0 0129.8 15.29c-6 .33-14.7 7.73-23.46.17 4.53 17.06 22.6 9.77 28.11 3a151.25 151.25 0 0122.45 19.83 5 5 0 001.61 2.36c-5.21-4-17.44 4.87-25.43-5.83.76 18.68 22.29 13.9 27.85 8a149.82 149.82 0 0116.43 23.36c-5.24-3-16.69-1.18-20.08-12.28-5.43 17.25 14.84 20.33 22.74 17.15a149.34 149.34 0 0111 27.37c-4.92-3.49-15.74-4.1-17.06-15.21-8.16 15.57 9.92 22.23 18.61 21a148.91 148.91 0 014.22 29c-1.93-5.77-14.63-9.58-11.83-21.72-13.79 12.7 3.81 25.81 12 26.18v2.7A151.47 151.47 0 01648 328a4.54 4.54 0 00-.61 2c.34-6.52-14-11.43-9.69-24.05-15 11.25 1.13 26 9.23 27.24A149.21 149.21 0 01635 366.67c-.35-6-8.93-14.28-1.71-23.67-17.3 5.72-7.93 23.88-.71 28.36a150.22 150.22 0 01-19.45 27.8c2-5.68-3.24-16.59 7-22.85-18.66-.81-15.88 20.5-10.49 26.7a150.59 150.59 0 01-26 21.88c1.29-5.86-2.13-15.91 7.65-21.32-17.25-1.53-17 16.77-12.75 24.58a149.42 149.42 0 01-28 13.27 4.94 4.94 0 00-2.67 0c6.26-2 5.85-17 19.27-17.46-16.07-10.08-24.36 10.7-22.4 18.45a7.34 7.34 0 00.29.82 150.12 150.12 0 01-33.78 6.32c5.4-2.7 10.54-12.71 21.49-9.11-11.44-14.84-26.3 1.38-27.41 9.41-1.59.05-3.18.08-4.79.08a150.94 150.94 0 01-28.15-2.64 4.66 4.66 0 00-1.8-1.33c6.1 2.43 15.42-9.41 26.05-1.28-5.91-17.92-25.64-7.14-29.1.06a8.86 8.86 0 00-.53 1.43 149 149 0 01-36.24-13.42h-.06c5.92 2.84 16-8.35 26.08.48-4.65-18.18-24.83-9-29-2a150.45 150.45 0 01-26.37-18.59c5.91 1.15 14.79.24 18.66 9.48 3.69-17.74-16.89-18.77-24.39-14.8a150.18 150.18 0 01-21.61-26.49c5.15 3.14 17 .61 20.84 11.87 4.93-17.63-16-19.91-23.56-16.3a150.17 150.17 0 01-13.83-30.77c2.12 6.1 17 5.93 17.37 19.15 10.28-15.84-10.52-24.24-18.36-22.4a149.7 149.7 0 01-5.54-31.12c4.14 4.37 15.53 6.08 15.43 17.64 10-14.39-6.93-23.25-15.73-23.16-.07-1.94-.12-3.87-.12-5.82a151.08 151.08 0 011.78-23.15c2.17 5.6 10.84 12 5.78 22 16-8.85 3.2-25.1-4.72-28.05a149 149 0 016.88-24.06c1.9 5.28 4.48 11.61-1.1 18 15.81-4.2 10.77-19.7 4.55-26.37a150.11 150.11 0 0112.63-22.59c.36 5.28.44 11.3-6.06 15.57 16 .2 15.75-15.27 11.87-23.54a150.65 150.65 0 0118.41-19.71c-.25 5.78.3 13.19-7.72 17.38 16.15 1.82 17.26-14.2 14-22.71a149.7 149.7 0 0119.34-13.17c-1.49 5.58-2.59 12.88-11.3 15.25 15.37 5.22 19.93-10.15 18.62-19.16a148.76 148.76 0 0128.33-10.73c-4.53 4-7.38 14.5-18.7 13.42 14.31 11.8 25.05-6.65 24.63-14.87a150.2 150.2 0 0132.8-3.61z" stroke="#075400" stroke-miterlimit="6.67" stroke-width=".5" fill="#338a00"/><path class="cls-4" d="M408.92 366.94a32.68 32.68 0 00-.95 5.13c0 .47-.48 3 .95 3.13 1 .09 1.33-2.66 1.33-2.66s-.95 3 .28 3.42c1.71.38 1.9-3.33 1.9-3.33-.19 1.05-1.33 3.71.29 4s2.18-3.63 2.18-3.63-1.42 3.9.28 4 1.62-3.8 1.62-3.8-.86 4.66 1.42 4.28c1.23-.19 1.52-1.81 1.81-2.76.37-1.42 1.23-3.22.19-6.17-.76-2.18-.48-2.75-.48-2.75s-2.66 2-4.75 3.32c-.95.57-6.07-2.18-6.07-2.18zm27.73-4.09c-.48-.29-.38 1.71-.57 2.66s.19 3 3.42 2.85 6.27-.95 8.26-.48a27.38 27.38 0 006.55.67 9.55 9.55 0 003.42-.48c.66-.28 2.09.38 2.75.38s1.71-1 1.62-1.71c-.1-1.23-1.24-1.23-2.85-1.33a27.18 27.18 0 01-4.65-.85 28.84 28.84 0 00-5.32-1.9s-4.56.19-5.51.19-6.55.28-7.12 0z"/><path class="cls-5" d="M421.36 369.6l-.19-4.37 1.8 1.52.48-3.32c.76-.19 2 1.33 2 1.33l-.19-3.33 2.75 3a8.23 8.23 0 01.76-4.08s2.09 1.8 2.09 3.89c0 1.81 1.81-2.56 1.81-2.56.47 1.52 1.52 4.84 1.52 4.84l1.23-1.8 1 3.79 2.28-3.32 1.8 3.89 4.09-.28.47 2.28 1.81-2 2.37 1.52a15.66 15.66 0 013-.57c1.05 0 2.28 1.33 2.28 1.33a6.38 6.38 0 011.52-1.8c.76-.48 1.8.76 2.09 1.52l1.52-2.76a15.61 15.61 0 012.27 2.76 11.6 11.6 0 01.76-3c.48-.76 1.24.28 1.81 1.23l1.23-4.08a3.94 3.94 0 012.28 1.8c1.05 1.52 1.05-2.28 1.05-2.28a21.07 21.07 0 012.85 5.13m57.16-.76a10.45 10.45 0 011.81-3.13s2 2.38 2 3.13a12.76 12.76 0 001.62-1l1.51 1.52 1.81-1.23 1.71 1.51 3.13-1.32 1.24 1.32 4.84-.56 1.8.75 1.71-2.18 1.62 1.71 2.56-2.56a6.53 6.53 0 011.52 1.8 9 9 0 002.56-1.8s2-.76 2.28.47c0 0 1.23-.95 1.14-2s1.42-.29 1.9 1c0 0 .57-2.09 2.09-2.28a4.74 4.74 0 01.75 3.52 12.9 12.9 0 013.33-2 11.16 11.16 0 01-.29 4.85s2.38-3.9 2.85-2.57a10.92 10.92 0 01.19 5.13l2.09-1.33.76 2.57 2.28-.48m-106.7 7.73a18.06 18.06 0 012.76-3.61 10.41 10.41 0 013 4.09 10.3 10.3 0 011-2.85s2.85 1.33 3.32 3.13a9 9 0 011.81-2.27c.76-.58 1.52 2 1.52 3.51 0 0 1.8-1.9 2.85-2 0 0 2 .95 2.56 4.28 0 0 1.9-1.81 2.56-1.52 0 0 2.28 1.52 1.71 3.61-.28 1.14 2.28-1.33 5.42-2.09l2.75 2.09s2.56-3.42 3.32-4.56c0 0 2.09.76 2.09 2 0 0 .95-3.61 1.71-4s1.8 1.14 1.8 2.19c0 0 .29-2.75 1.81-3.33 0 0 1.52 1.05 1.52 2.1 0 0 1.61-3.14 2.85-3.9"/><path class="cls-6" d="M421.36 369.6l-.19-4.37 1.8 1.52.48-3.32c.76-.2 2 1.33 2 1.33l-.19-3.33 2.75 3a8.28 8.28 0 01.76-4.09s2.09 1.81 2.09 3.9c0 1.81 1.81-2.57 1.81-2.57.47 1.53 1.52 4.85 1.52 4.85l1.23-1.81 1 3.8 2.28-3.32 1.8 3.89 4.09-.28.47 2.27 1.81-2 2.37 1.52a15.66 15.66 0 013-.57c1.05 0 2.28 1.33 2.28 1.33a6.37 6.37 0 011.52-1.81c.76-.47 1.8.76 2.09 1.52l1.52-2.75a15.47 15.47 0 012.27 2.75 11.7 11.7 0 01.76-3c.48-.76 1.24.29 1.81 1.24l1.23-4.08a3.94 3.94 0 012.28 1.8c1 1.52 1-2.28 1-2.28a20.72 20.72 0 012.85 5.13s-15.72 5.4-26.81 3.92c-13-1.74-23.8-4.21-23.8-4.21m107.78-.47a10.33 10.33 0 011.81-3.13s2 2.37 2 3.13a12.76 12.76 0 001.62-1l1.51 1.51 1.81-1.23 1.71 1.52 3.13-1.33 1.24 1.33 4.84-.57 1.8.76 1.71-2.18 1.62 1.7 2.56-2.56a6.46 6.46 0 011.52 1.81 9.09 9.09 0 002.56-1.81s2-.76 2.28.48c0 0 1.23-1 1.14-2s1.42-.28 1.9 1c0 0 .57-2.08 2.09-2.27a4.73 4.73 0 01.76 3.51s2.27-1.81 3.32-2a11.12 11.12 0 01-.29 4.84s2.38-3.89 2.85-2.56a10.85 10.85 0 01.2 5.12l2.08-1.33.76 2.57 2.28-.48a122.57 122.57 0 01-26.18.86 108.92 108.92 0 01-24.62-5.7m-9.39 9.43c.62-.38-4.24 10-16 10.54-16.39.77-30.41-7.41-30.41-7.41a18.06 18.06 0 012.76-3.61 10.43 10.43 0 013 4.09 10.51 10.51 0 011-2.85s2.85 1.33 3.32 3.13a9 9 0 011.81-2.27c.76-.58 1.52 2 1.52 3.51 0 0 1.8-1.9 2.85-2 0 0 2 .95 2.56 4.28 0 0 1.9-1.81 2.56-1.52 0 0 2.28 1.52 1.71 3.6-.28 1.15 2.28-1.32 5.41-2.08l2.76 2.08s2.56-3.41 3.32-4.55c0 0 2.09.76 2.09 2 0 0 .95-3.61 1.71-4s1.8 1.14 1.8 2.19c0 0 .29-2.76 1.81-3.32 0 0 1.52 1 1.52 2.09 0 0 1.61-3.14 2.84-3.9z"/></svg>