<svg viewBox="0 0 1000 600" xmlns="http://www.w3.org/2000/svg" xmlns:xlink="http://www.w3.org/1999/xlink"><path d="M0 0h1000v600H0z" fill="#d90f19" fill-rule="evenodd"/><path d="M0 60h1000v480H0z" fill="#171696" fill-rule="evenodd"/><g transform="matrix(.8 0 0 .8 154.642 48.648)"><circle cx="414.43" cy="301.623" fill="#fff" r="210"/><path d="M452.343 161.539s-1.367-.114-2.621-1.027l2.62 1.023" fill="#6f6"/><g fill="none"><path d="M452.345 161.539s-1.367-.114-2.621-1.027" stroke="#060" stroke-width=".57"/><path d="M422.83 184.101l1.483.913 1.594.228s1.71 1.594 3.647 3.077c1.479 1.254 1.479-.227 1.479-.227l.913 3.647h1.252s-.344 2.39-.344 3.643l2.165-1.826 2.503 2.167s1.823-1.593 2.735-1.593c.91 0 1.252-.915 1.252-.915h.112c-6.036-2.844-8.657-5.812-6.835-8.889 2.962-5.125 7.862-1.822 9.457-1.138l22.106 11.85s1.48-.908.453-1.822c-1.142-.91-1.596-3.189-1.251-4.099.338-.912 2.844 2.848 4.1 3.188 1.255.343 4.103.8 4.103.8l-.115-1.142s3.646 2.509 3.646 3.763c0 0 2.62-1.37 1.708-2.168-.909-.795 3.988 1.94 4.33 3.422l1.026-1.147c-.112 0 .345-3.646 1.599-5.355 1.14-1.708 2.392-2.165 2.392-2.165s1.14-1.938 2.278-1.938c0 0-1.138-.795-1.593-1.707-.57-.91-1.938-1.367-1.938-1.367s1.708-1.251 2.166-1.825c.455-.683.91-.795.91-.795s-2.62-2.166-4.442-2.51c0 0-.112-2.959-2.391-3.187h1.026s-1.708-3.188-3.305-3.304c0 0 1.027-1.14 1.938-1.25 0 0-1.938-2.51-4.558-1.596l1.713-.684s-1.254-1.369-5.13-.686c0 0 .341-1.59-1.366-2.847 0 0-1.481.112-1.481 1.256 0 0-1.366-1.256-3.076-1.256-1.708 0 .569 1.822.569 1.822s-2.277-1.479-3.646-1.027c0 0 .568-2.617-.91-3.986 0 0-1.71.909-2.168 2.051l-.455-1.142s-2.278 2.738-2.733 1.937c-.344-.45-.683-2.389-.683-2.389l-1.367 2.052.227-2.852s-1.593.913-2.847 3.877c0 0-1.597 1.479-1.597 2.847 0 0-1.25-1.478-2.39 0-1.027 1.596 0 1.254 0 1.254s-.457.569-1.596.798l.23.91s-1.482-.795-2.62-.453l.567 1.364s-2.962.23-3.076-2.161c0 0-2.505-1.255-2.849.112 0 0-2.051 0-1.822 1.138 0 0-.572-1.14-1.597-1.366-1.139-.343-.228 1.478-.228 1.478s-.34-1.366-1.707-2.051c-1.367-.566-.23 1.254-.23 1.254s-1.82-1.48-.907-2.62c0 0-1.71 1.596-.912 3.08l-1.142.795s-.568-.566-.456-1.027c.112-.458-1.937 1.367-1.937 1.367s-1.255-2.962 0-2.962c.112 0-2.166-.115-2.505 2.509-.344 2.503 0 0 0 0s-1.484.112-2.85.564c-1.484.46 1.024 1.484 1.024 1.484s-2.164-.457-3.419.224l.8 1.027s-.799-.795-2.734-.112c-2.053.57.455.912.455.912s-2.05-.455-3.075 0c-1.026.457.338 1.254.338 1.254s-3.757-1.14-4.329-.798c-.567.344 1.255 2.168 1.255 2.168s-2.278.568-2.733 2.278l2.05.799s-.91.454-1.367 1.364c-.453.914 1.367.459 1.367.459s-2.505 1.822-2.505 3.19c0 0 1.825.566 3.19-.8 1.368-1.363.457-.908.457-.908l.112.909s2.62-1.138 2.62-1.822c0-.567-.45.911-.45.911l2.62-1.366 1.708 1.138"/><path d="M420.665 148.543l-.57-2.502s3.077 0 5.813.684l1.025-2.393s2.733 1.252 3.648 2.161c0 0 5.354-1.366 6.95-.795l-.684 2.507s4.9.34 6.495.91c1.48.57-.684 1.826-.684 1.826s5.584.682 7.975 2.162c2.509 1.48 2.509 2.737 1.254 3.08l3.076 4.898s-4.9.57-5.813 1.826c-.91 1.252-1.823-1.256-1.823-1.256l-.91 3.42s-3.075-1.598-4.33-2.737c0 0-1.486 1.825-.572 2.736 0 0-3.987 0-5.586-3.649 0 0-2.392-.34-2.392 1.826 0 0-2.736-3.077-3.419-3.991l-3.078.914s-.913-1.254-2.05-1.598c-1.254-.226-.343 1.598-.343 1.598l-1.826-2.166-1.82-2.168S419.402 158 418.15 158c-1.143 0-1.143-1.484-.914-2.51.34-.909-3.646-1.138-3.987 0 0 0-1.143-4.554 3.074-5.812l4.335-1.14"/></g><g stroke-width=".57"><g fill="#d67c59" stroke="#000"><path d="M449.036 163.019s.683-1.596 1.938-.683c1.14.91 1.478 4.9 1.478 4.9l-1.823.91s1.027-1.479-1.593-5.127zm-10.36 35.784s.91-1.251-.342-3.99l1.822-.57s.683 2.165-.229 4.562h-1.254m31.565-6.274l-4.33 2.623 2.166 1.026 5.241-3.079-3.08-.57m-58.003 16.98c-1.142.912-1.254 2.508-1.937 3.418-.567.91-2.279 2.162-2.391 3.531-.23 1.367-.342 2.279.226 4.104.68 1.821 3.531 9.912 2.392 16.07-1.255 6.151-.796 8.773-.34 9.688.453.91 1.823 3.416 2.622 3.416 1.821-.228 1.024-.796 1.707-1.938 1.708-2.962 0-25.87-.8-32.25-.567-4.903-2.85-9.349-3.074-9.8-.227-.575-.683-2.054-1.026-2.967-1.708-4.104-3.76-7.633-3.76-16.184 0 0-5.585 1.254-10.37-9.574-2.505-5.47-6.153-4.9-10.482-6.72l1.938-1.258s3.646 1.826 5.47 1.826c1.823 0 1.255-3.647 1.255-3.647l1.822-1.825v7.98c0 3.647 5.013 8.661 7.975 10.143 1.826.909 4.219-2.85 3.65-6.497-.572-3.645 0-8.545 0-8.545l2.505 1.478s-.91 1.596-.683 2.509c.34.913 1.593-.912 2.505-1.826 0 0 .227.23 1.14.23 0 0-1.823 3.074-2.733 4.672-.91 1.483-.91 7.296-.91 9.462s.798 7.177.798 8.771c0 1.143 2.162 5.813 3.875 8.664.569 1.14 1.936 4.1 1.936 4.1 1.366 2.166 1.478 3.648 2.28 5.474.454.909 1.254 3.53 1.822 8.092.229 1.138.456 5.47.8 8.316.34 2.735 2.62.571 5.352-1.367 2.734-2.05 2.734-6.951 2.734-6.951s2.167-1.826 1.824-.798c-.229 1.14 1.143 2.28 1.143 2.28-1.71 3.872-.684 3.417 1.024 3.303 1.708-.23 7.632-4.673 7.632-4.673.798-.23 4.331-.23 3.762 0-.684.343-1.596 2.052-1.596 2.052l3.874-.457c-1.366 1.027-6.496 3.987-7.633 4.673-1.254.8-7.403 3.763-10.026 4.786-2.62 1.14-7.75 3.648-7.977 6.269-.114 2.622.341 9.688 0 11.965-.227 2.278-1.14 12.423-1.14 12.423h-12.192s2.393-8.89-.116-11.282c-2.392-2.51-7.976-9.804-11.622-12.313-3.648-2.391 2.391-.566 2.391-.566v-2.508l5.584 6.727s9.684-8.548 0-20.171c-3.077-3.649-6.154-9.231-8.546-9.804-2.506-.683-3.76-1.254-7.977 0-4.33 1.253-14.7 1.253-19.03-5.587l3.65-.57 3.072-1.253s-1.252 4.33 7.407 4.33c8.545 0 9.8 0 9.117-7.976l2.505-1.255 1.825 1.826s-1.254 4.33-.57 6.152c.57 1.823 3.648 3.079 6.04 4.9 1.026.8 1.824.913 2.507.913 1.025-.114 1.251-.114 2.62-1.482 2.05-2.28 1.594-2.165 3.646-3.987 0 0 1.026-1.596 1.255-1.826l1.254 3.307z"/><path d="M414.057 203.474c.455-.452 1.367-2.166 2.165-3.647 1.367-2.277 2.965-3.645 4.786-6.496 1.707-2.62 2.392-6.493 1.707-9.229l1.594.913.117 4.33s2.166-1.826 3.078-2.278l.909.454s-6.837 7.067-13.218 18.464l-1.14-2.506zm-59.93-23.7c.911 1.59 1.825 4.674 4.558 7.065l1.822-.57s-4.215-4.9-4.215-7.063l-2.166.567m10.707-2.743s.57 5.813-.91 7.978l1.823-.907s1.252-3.989.91-6.156l-1.823-.91zm60.055-18.346s-.344 8.205 1.255 13.22l2.162-.681s-.34-1.486 1.48-2.17c1.826-.568 6.154-2.39 8.319-4.216l-.682-1.82s-3.304 2.62-4.9 3.303c-1.48.571-2.392 1.252-3.646.913-1.255-.344-2.733-2.397-1.824-7.07zm24.148 38.294s-.568 5.813-.227 8.321l1.938.457s-.454-6.953.795-7.523l-2.506-1.253m8.669 4.332s-2.166 3.761-4.67 4.104l3.987-.798s1.142-.57 2.85-2.391l-2.168-.913"/></g><g fill="#338a00" stroke="#030"><path d="M422.839 184.098l1.478.907 1.596.232s1.707 1.595 3.646 3.075c1.478 1.254 1.478-.228 1.478-.228l.91 3.646h1.255s-.343 2.394-.343 3.648l2.167-1.826 2.507 2.166s1.822-1.594 2.732-1.594 1.255-.91 1.255-.91h.115c-6.04-2.852-8.658-5.813-6.837-8.89 2.964-5.128 7.862-1.826 9.456-1.14l22.106 11.85s1.481-.91.455-1.825c-1.142-.907-1.598-3.188-1.254-4.1.341-.91 2.847 2.847 4.099 3.19 1.254.343 4.101.8 4.101.8l-.114-1.14s3.647 2.506 3.647 3.761c0 0 2.62-1.366 1.708-2.166-.91-.795 3.99 1.94 4.33 3.423l1.025-1.143c-.114 0 .343-3.647 1.595-5.357 1.143-1.706 2.394-2.164 2.394-2.164s1.142-1.938 2.278-1.938c0 0-1.143-.795-1.596-1.708-.57-.915-1.938-1.368-1.938-1.368s1.71-1.253 2.167-1.824c.455-.682.912-.8.912-.8s-2.62-2.162-4.446-2.501c0 0-.112-2.967-2.391-3.192h1.026s-1.708-3.192-3.304-3.304c0 0 1.025-1.14 1.937-1.256 0 0-1.938-2.505-4.556-1.593l1.708-.681s-1.254-1.367-5.126-.684c0 0 .341-1.595-1.366-2.85 0 0-1.48.112-1.48 1.253 0 0-1.367-1.253-3.076-1.253s.57 1.826.57 1.826-2.279-1.484-3.648-1.027c0 0 .57-2.62-.912-3.991 0 0-1.705.913-2.165 2.052l-.454-1.138s-2.279 2.734-2.732 1.936c-.342-.454-.684-2.39-.684-2.39l-1.364 2.052.226-2.853s-1.595.913-2.848 3.874c0 0-1.595 1.483-1.595 2.846 0 0-1.254-1.478-2.393 0-1.027 1.596 0 1.258 0 1.258s-.457.565-1.596.795l.228.909s-1.48-.795-2.621-.453l.568 1.367s-2.962.228-3.074-2.162c0 0-2.507-1.256-2.85.112l-1.824 1.14s-.57-1.14-1.596-1.366c-1.142-.342-.227 1.479-.227 1.479s-.34-1.367-1.708-2.052c-1.366-.566-.227 1.256-.227 1.256s-1.823-1.483-.91-2.62c0 0-1.707 1.595-.91 3.078l-1.14.795s-.571-.569-.459-1.025c.118-.457-1.936 1.366-1.936 1.366s-1.254-2.961 0-2.961c.114 0-2.165-.115-2.505 2.509 0 0-1.481.112-2.85.565-1.478.458 1.027 1.483 1.027 1.483s-2.165-.457-3.418.228l.798 1.027s-.798-.799-2.735-.117c-2.053.57.454.912.454.912s-2.05-.455-3.075 0c-1.027.457.342 1.255.342 1.255s-3.762-1.141-4.331-.796c-.568.34 1.253 2.166 1.253 2.166s-2.279.568-2.732 2.278l2.05.795s-.908.455-1.367 1.37c-.452.91 1.366.453 1.366.453s-2.504 1.826-2.504 3.192c0 0 1.823.567 3.19-.798 1.367-1.366.455-.912.455-.912l.115.913s2.621-1.138 2.621-1.82c0-.572-.453.906-.453.906l2.62-1.366 1.709 1.142v-.003z"/><path d="M420.665 148.548l-.57-2.506 5.813.68 1.024-2.391s2.732 1.252 3.646 2.161c0 0 5.354-1.366 6.952-.795l-.684 2.509s4.9.339 6.497.907c1.48.571-.684 1.826-.684 1.826s5.584.683 7.979 2.165c2.506 1.478 2.506 2.735 1.254 3.074l3.073 4.9s-4.898.57-5.81 1.821c-.911 1.255-1.822-1.25-1.822-1.25l-.912 3.418s-3.076-1.597-4.33-2.735c0 0-1.478 1.826-.568 2.735l-5.585-3.647s-2.395-.342-2.395 1.826c0 0-2.732-3.08-3.416-3.992l-3.08.913s-.907-1.251-2.05-1.596c-1.254-.224-.34 1.597-.34 1.597l-1.824-2.166-1.823-2.16s-1.596 2.161-2.85 2.161c-1.142 0-1.142-1.478-.91-2.506.34-.912-3.648-1.138-3.988 0 0 0-1.143-4.558 3.074-5.81l4.33-1.14zm-22.097 15.613l-1.937 1.826-1.14-.571-2.278 2.507-.457-1.37-1.254 2.052-1.936-.683-.91 1.481-1.709-.343s-1.481 1.37-2.394 1.711c-.909.23 0-2.05 0-2.05s-1.366 2.28-2.392 2.28c-.91 0-.567-1.027-.567-1.027s-.57 1.479-1.709 1.708c-1.026.116-.57-1.138-.57-1.138l-1.826 1.367v-1.14l-.796-.34s.454-2.053 1.255-2.507c.795-.458-.8-1.821-.8-1.821l.796-.913s-2.28-.57-2.28-.112c0 0 1.143-3.076 2.734-3.651l.116-3.416s1.595-1.367 3.076-1.483c1.594-.23-.455-2.621-.455-2.621l3.646-2.162.454-2.62 5.584.451 1.14-2.391 4.447 1.137 3.757-1.937 2.733 3.192 4.102.342s-.112 2.847-.112 3.647c0 0 4.897 1.478 5.469 1.938 0 0-.912 2.962-.912 3.531 0 0 3.42-.912 4.446-.683 0 0 .343 3.192.454 3.987 0 0 5.81 1.826 6.153 2.852 0 0-1.254.795-1.937 1.82 0 0 .683 3.536.683 4.674l-.456.683s-1.71-1.595-3.077-1.823l-1.142 2.506-2.05-1.366-1.252.114s-1.026-1.255-1.826-1.255l-.114-1.138-1.595 1.025s-2.507-1.255-2.507-2.053c0-.683.115-1.825.115-1.825l-2.62 1.825s-.57-1.366-.455-1.937c.114-.57-1.026 1.369-1.026 1.369s-1.368-2.395-1.254-2.852l-.343 1.938s-2.733-.907-3.075-2.733v-.004z"/><path d="M362.1 175.328s4.788 2.397 4.788 3.535c0 0 1.254-2.508.57-3.42l1.824 1.254s.565-2.277-.117-2.963c-.571-.57 4.1-2.504 5.126.57 0 0 2.85-2.962-2.62-5.47 0 0-.453-1.823 2.85-1.367 0 0-.228-1.14-1.027-1.596h3.192s-1.938-1.596-4.786-2.051c-2.733-.458-1.027-.795-1.14-1.37-.23-.57 0-2.621 0-2.621s-1.596-.57-2.85.114l.456-.572s-2.964-.795-4.1-.112c0 0-1.71-.683-1.481-2.508 0 0-1.71-.112-2.504 1.708 0 0-1.596 1.825-3.76 1.825-.454 0-2.05-.914-2.05-.914l-1.37 3.192-2.164-.112.683 1.251s-3.304-.907-4.33 0c0 0 1.254 1.94.91 3.304 0 0-2.62.46-3.19.915-.683.45.911.794.911.794s-2.962.912-3.648 1.826l1.142.907-1.368 1.828 1.142.224s-1.937.572-2.962.914c-1.025.34 1.823.571 1.823.571l-1.367 1.251 2.166.34s-1.708 4.56-1.822 6.726c0 0 2.62-3.192 3.304-3.418l-2.05 3.418s3.875-1.251 4.217-1.825c.339-.683.681-1.252.681-1.252l.115 1.938s1.481-2.053 1.709-2.85c.116-.796 2.392.797 2.392.797v-1.142s2.053.683 2.733.8c.799.112.912-.343.912-.343l1.938-.227-.344 1.593s1.366-.91 1.706-1.823c.229-.913.911 0 .911 0l.91-3.647h1.935zm-15.612 16.184l1.822 3.761c-1.48.112-3.646 1.821-3.646 1.821.34 6.27-1.252 5.927-1.252 5.927.451 1.14-.29 3.255-.29 3.255l9.063-5.418.116-.57 10.712-5.016.338.569 3.078-1.708 2.166 5.695-2.165 1.255c.116 1.937 2.394 5.358 2.394 5.358l2.849-.682 3.075-1.141s.116 1.708.116 1.142c0-.459 3.302-1.596 3.302-1.596l1.48 1.482c1.143-.112 3.19-2.852 3.19-2.852l2.394.915s.797-1.367.797-2.393c0-.912 2.962-.912 2.962-.912l2.053 1.478 2.62-2.161s.798 1.595 1.823 1.82c1.143.116 3.988 2.279 3.988 1.826 0-.454 1.254-2.963 1.254-2.963l4.785 1.938c-.681-2.166-2.276-4.786-2.276-4.786s2.276-1.82 1.823-2.277c-.455-.457-1.824 0-1.824 0l1.366-2.735h-1.822l.567-.681-2.961-1.253 1.594-3.192c-.684-.8-8.546-2.396-8.546-2.396l1.823-1.708s-.911-1.367-1.823-1.367-5.698.116-5.925-.338c-.117-.457-2.053-2.169-2.053-2.169l-2.964 2.17-1.478-.458-2.62 1.027s0 1.48-.346.454c-.339-.915-2.733-3.304-2.733-3.304-.455.795-3.53 4.442-3.53 4.442s-.457 1.94-1.483.57c-1.142-1.367-3.533-2.848-3.875-1.709-.342 1.256-2.504 2.392-2.964 2.054-.452-.346-2.961-.115-3.19.568-.114.795-2.848 2.847-2.848 2.847-1.71-.796-4.447-.338-4.447-.338s-.795 1.251-.907 2.277l-5.583 1.48h.003v-.004zm51.509 46.156v-2.394l2.733 1.822 1.596-1.825 2.05 2.05 1.254-2.05v3.308l3.076-2.733 1.821.795v-2.62s2.167-3.648 1.255-4.33l1.823-.569s-3.076-3.077-3.987-3.65c-.91-.682-2.165-.682-2.165-.682s-2.393-2.396-3.988-3.077c-1.48-.57-2.396.681-2.396.681s-.91-1.82-2.505-2.163c-1.478-.34-1.478 1.254-1.478 1.254s-1.142-1.142-2.62-1.71c-1.481-.68-.456 1.366-.456 1.366l-5.242-1.59.681 1.59-4.897-1.248.567 1.823-3.416-.574-.229 1.487-4.9.909.912 1.594-3.077-1.254v2.167l-3.42 1.251 1.255 1.143s-4.558 2.165-5.471 2.848c-.91.568 1.826 1.82 1.826 1.82l-4.901-.683 1.823 1.597-4.33 3.991 3.076 2.165-1.824 2.734 4.559.91 1.822 3.076 3.76-.684v3.416l5.47-4.327s3.99 3.532 4.33 2.506c.227-.91.227-3.987.227-3.987h1.937v-3.075l1.479 1.252 2.509-3.649 3.302 4.56 2.505-5.81 3.647.57zm22.333-13.788l-.57-5.241-1.593 1.596.68-4.9-2.503-.458.909-4.784-1.822-.914.453-2.277 1.825-1.367 3.304-3.192 7.63.119.911-2.509 5.472.913c.909 1.026 3.757-2.052 3.757-2.052h1.143l1.254 2.39s3.987-.571 5.81.683l-2.166 2.962 3.987.341 2.733.571 2.85-.912 3.648-.231.91 1.481h3.42l-1.14 1.367 4.444 2.05-.91.914s2.506.91 4.33.91h.91s.91 2.162-.344 3.074c0 0 1.254 3.079 3.987 3.65 2.735.57 2.735.57 3.076 1.25.345.572 0 3.65-3.075 3.65v3.08s-2.392 2.163-2.733 3.072l-1.825-1.254s-1.59 1.826-1.59 3.08c0 0-3.99-5.245-5.473-5.474-1.595-.34-1.254 2.964-1.254 2.964l-4.328-3.646-.572 2.505-3.645-3.075-2.166 1.477-3.876-3.987-3.758.459 1.478-1.94h-4.555l-.91-3.987-.684 3.304-2.733-1.822-3.532 3.874s-.455-.46-1.026-2.28c-.567-1.824-2.165 2.163-2.165 2.163l-1.254-2.847-1.478 2.847s-1.255-2.164-2.51-2.847c-1.138-.569-2.39 3.416-2.73 5.242zm.683 11.962l.227-1.82 6.494-2.51 5.472-2.05 2.732-1.254 1.255 2.166 1.594-3.075 2.506 3.188 1.37-1.708 2.163 1.594h1.823l.342 2.397s4.558.338 4.898-.57c.344-.913.911 3.075.911 3.075l4.329.569.912 4.9s2.161 4.56 1.48 6.384c-.571 1.938-2.394-2.394-2.394-2.394s-.34 3.419-.683 4.33c-.227.91-5.81-.911-5.81-.911l-2.393 4.558s-2.506-3.647-3.646-3.647c-1.254 0-1.254 3.647-1.254 3.647s-3.647-4.33-5.242-6.156c-1.482-1.82-1.826 1.826-1.826 1.826s-2.39-3.99-2.39-5.13c0-1.252-2.167-2.509-2.167-2.509s-3.763 4.333-6.498 5.474c0 0 .343-2.736-.568-3.648-.91-.913-3.647 1.822-3.647 1.822s-1.938-4.217 0-8.549z"/></g><g fill="none" stroke="#004b00"><path d="M451.097 167.913l.571 2.28s2.05-.458 3.418-.342c0 0-.342 1.823-.797 2.62 0 0 2.733-.454 3.987.341l-.57 1.367 3.193 1.37-2.964 2.391s4.783 1.707 5.698 3.077c0 0-3.076 2.165-3.532 2.053-.456-.23-.115.907.683 1.934l-2.62-.112s1.024 2.394.908 3.304c-.114.91-4.33.681-4.33.681m16.403-6.146s.797-4.558-.453-5.698c0 0 2.962 2.509 4.899 2.62 2.051.118-.116-3.76-.116-3.76s2.85 1.48 4.217 1.822c1.366.228-1.027-2.85-1.027-2.85s.796-1.482 3.075-.114m-52.976-18.116s.112-1.026-.346-1.594c-2.732-3.762 2.85 2.85 3.988 3.077m5.24-.005s1.822 1.367 2.734 1.367c.911 0-.57-3.648-1.026-4.101-.454-.458 3.304 1.478 4.673 1.709 1.366.34 1.594-2.278 1.594-2.278s4.217.682 5.13 1.254m-29.29-.796s-.341-2.392-.453-3.417m-28.253 14.82c-.228-.458 1.143-2.51.572-3.42 0 0 .795.684 1.593.798.683.112.452-2.622.452-2.622l.913.34s2.394-1.142 1.938-2.053c-.46-.91 1.594 1.366 1.594 1.366s1.368-1.366 1.368-1.934c0-.576 1.594 1.363 1.594 1.363s1.708-.342 1.708-1.366c0-1.025 2.165.34 2.165.34s.91-1.252.799-2.051m-23.017 11.4s1.024-2.391-.116-3.987m-27.571 11.502c.115-1.138.683-4.215.115-4.672-.57-.452 1.142.457 2.507.799m10.817-.45c-1.365-1.37-2.165-2.052-4.327-2.052m-18.8 9.68c.342-.796.91-2.734.57-3.874m29.166 60.4l1.48-3.077 1.824 4.329 1.252-2.735.455.912 2.733-2.963 2.964 4.445m47.522-19.257l1.937-3.873 2.621 1.367 1.254-3.76 2.733 1.71 1.595-3.533 3.077.795.226-2.506s2.165 1.25 2.734 2.162c.682.914 0-3.073 0-3.073l2.505 1.138s1.824-1.826-.683-2.85"/><path d="M442.663 212.938l2.733 3.99 2.277-2.621 2.053 4.442 2.62-1.595 3.76 2.165 1.707-1.366 4.103 2.963 1.709-3.53 3.646 1.139 2.39-4.1m-98.443-10.716s1.596-2.738 1.025-3.991c-.683-1.254 3.304 2.165 3.304 2.165s.91-2.735.341-3.987c-.683-1.254 4.558 3.648 4.558 3.648s.913-4.216 0-5.13c-.911-.913 5.014 1.254 5.014 1.254s2.395-.681 1.482-1.937c-.911-1.253 3.988 1.822 3.988 1.822s1.138-3.074 0-4.217c-1.255-1.25 3.645 1.483 3.645 1.483l-1.822-3.307 3.987.228-.34-3.647m35.32 52.644l2.621-1.255 2.28 2.281 2.505-3.987 3.075 2.96.456-2.96 3.305 1.37.683-1.828 3.645 1.941.341-2.737 1.822.572.342-1.826"/></g></g><path d="M372.125 370.434a81.476 81.476 0 01-6.953-15.154l49.34-43.423 49.34 43.306c-1.71 5.012-3.99 10.37-7.178 15.5l-.393.631a481.232 481.232 0 01-3.71-1.429s-1.596 1.482-2.845 1.594c-1.71.23-3.192-1.479-3.192-1.479s-2.166 1.823-4.33 1.479c-2.165-.224-3.077-1.594-3.077-1.594s-2.278 1.822-3.876 1.48c-1.478-.346-2.505-1.371-2.505-1.371s-1.366 1.713-3.304 1.372c-1.822-.347-3.531-1.372-3.531-1.372s-2.845 1.25-4.67 1.481c-1.823.345-3.42-1.596-3.42-1.596s-2.392 1.596-3.304 1.596c-.91 0-4.329-1.596-4.329-1.596s-3.533 1.14-4.786 1.14c-1.142 0-4.67-1.478-4.67-1.478s-3.304.907-4.785.907c-1.597 0-3.875-.907-3.875-.907s-2.73 1.253-4.215.907a15.434 15.434 0 01-2.85-.907s-2.962 1.253-4.9.907c-1.822-.338-3.987-1.59-3.987-1.59s-.342.91-3.875 1.59h-.115" fill="#9dc9e2"/><g stroke="#000"><path d="M414.517 261.938v49.916l-49.34 43.65c-4.783-13.903-5.125-26.324-5.125-31.68V261.94h54.466" fill="#fff" stroke-width=".797"/><path d="M414.517 261.938v49.916l49.225 43.65c4.784-13.903 5.127-26.324 5.127-31.68V261.94h-54.352" fill="#ffe682" stroke-width=".797"/><g stroke-width=".57"><path d="M382.686 360.063c3.71 2.01 2.453 1.377 10.142 4.099 6.268 2.17 13.558 3.192 24.154 3.192 9.272 0 14.491-.736 17.428-1.546 3.046-.873 3.767-2.103 3.767-2.103l-7.633 7.75s-30.682 1.656-36.237-1.937c-2.162-1.142-6.836-4.9-11.62-9.457z" fill="#d67c59"/><path d="M427.7 345.592s9.8 5.582 0 16.296m-44.095-1.254l14.129-13.452-1.596 18.008m7.403 1.593v-30.084m24.159 30.084v-31.91m-12.197 32.48v-34.3" fill="none" stroke-linecap="round"/><path d="M403.541 338.3l-6.382 2.053 6.382.683V338.3m11.962-4.68l-6.72 2.508 6.72.228zm12.197 1.825l-6.723 2.509 6.723.34v-2.852zm3.987 14.481c-.342-1.368 3.99-1.251 3.99-1.251s1.253 4.555 0 7.403l-3.647-.683s.343-3.074-.342-5.47z" fill="#d90f19" stroke-linejoin="round"/><g fill="#fff"><path d="M385.766 358.808l11.966-11.626-.572 6.954s-6.15 3.987-6.15 6.837l-5.243-2.166m6.372 2.399s1.255-3.648 4.67-5.47l-.34 7.294-4.328-1.826zm17.215-20.172s4.897-.684 8.546 0c0 0-.572 4.9 0 5.81 0 0-6.724-1.595-9.457.91 0 0-.912-4.559.912-6.72zm-10.371 1.254s4.9-.683 8.545 0c0 0-.91 5.473-.342 6.384 0 0-5.471-3.08-8.204-.574 0 0-1.825-3.758 0-5.81z" stroke-linejoin="round"/><path d="M398.635 348.66s4.9-.568 8.546 0c0 0-.57 4.9 0 5.814 0 0-6.381-1.481-9.117.91 0 0-1.254-4.558.571-6.723zm9.8-.906s7.066-.908 10.71-.34c0 0-1.48 3.988.344 6.723 0 0-7.635-2.052-10.483.34-.003 0-2.393-4.559-.571-6.724zm-10.36 7.638l9.455.683s-.909 6.952-.341 7.863c0 0-7.632-1.826-9.117.681 0 0-2.506-6.38 0-9.229h.003zm10.708 0s8.2-.571 11.963 0c0 0-2.168 5.246.229 9.8 0 0-10.713-3.072-12.197-.571 0 0-2.501-6.38 0-9.229zm12.533-14.358s4.897-.684 8.545 0c0 0-.568 4.9 0 5.81 0 0-6.723-1.595-9.454.91-.003 0-.915-4.559.909-6.72zm0 6.72s4.897-.57 8.545 0c0 0-.568 4.9 0 5.813 0 0-6.723-1.482-9.454.911 0 0-.915-4.558.909-6.722zm.57 7.067s4.898-.68 8.659 0c0 0-1.255 7.635-.684 8.546 0 0-5.577-2.621-8.202-.338 0 0-1.592-6.039.229-8.208z" stroke-linecap="round" stroke-linejoin="round"/><path d="M432.023 355.392s1.592 5.81 3.645 6.496l-2.733 3.304s-3.304-2.393-3.648-5.124c0 0 2.165-2.51 2.735-4.674z"/></g></g><g stroke-width=".61"><path d="M456.45 371.117c-7.862 13.108-20.738 25.413-41.93 33.048-21.539-7.747-34.64-20.624-42.39-33.62l.114-.113c3.532-.687 3.875-1.595 3.875-1.595s2.165 1.254 3.988 1.596c1.937.34 4.899-.912 4.899-.912s1.254.571 2.848.913c1.479.34 4.215-.911 4.215-.911s2.279.913 3.874.913c1.48 0 4.786-.912 4.786-.912s3.53 1.478 4.67 1.478c1.255 0 4.785-1.138 4.785-1.138s3.42 1.596 4.33 1.596c.91 0 3.304-1.598 3.304-1.598s1.594 1.937 3.416 1.597c1.825-.228 4.673-1.48 4.673-1.48s1.708 1.026 3.532 1.366c1.935.343 3.304-1.367 3.304-1.367s1.024 1.027 2.506 1.367c1.595.343 3.873-1.48 3.873-1.48s.91 1.368 3.077 1.594c2.166.343 4.33-1.479 4.33-1.479s1.478 1.708 3.19 1.479c1.254-.114 2.846-1.594 2.846-1.594s2.848.909 3.873 1.254" fill="#006ac8" stroke="none"/><path d="M454.513 374.085c-1.708.117-1.938-1.026-1.938-1.026s-2.273 1.94-4.443 1.597c-2.277-.338-3.304-1.822-3.304-1.822s-2.393 1.938-3.989 1.595c-1.593-.228-2.732-1.37-2.732-1.37s-1.479 1.714-3.418 1.37c-1.938-.227-3.649-1.369-3.649-1.369s-3.075 1.258-5.014 1.598c-1.937.344-3.532-1.823-3.532-1.823s-4.443 1.483-5.353 1.483c-1.027 0-4.219-1.484-4.219-1.484s-2.163 1.369-3.416 1.369c-1.366 0-5.014-1.596-5.014-1.596s-3.42.913-5.016.913-3.987-.914-3.987-.914-2.963 1.254-4.558.914c-1.595-.344-2.85-.914-2.85-.914s-3.19 1.254-5.126.914c-1.937-.344-4.217-1.596-4.217-1.596s-.34.797-4.099 1.596h-.116" fill="none" stroke-width=".57"/><g fill="#006ac8" stroke-width=".683"><path d="M383.75 378.733s-.318.745-3.29 1.4c-.063-.004-.806.176-.806.176.274-.05.497-.09.736-.14a13.81 13.81 0 01-.84.28c3.36 4.853 8.394 9.26 13.638 12.793 5.247 3.535 11.275 7.753 21.538 10.763 10.792-4.213 13.67-5.815 20.724-10.539 7.053-5.152 10.727-8.36 14.661-13.645-3.08 1.749-2.637 1.768-4.233 1.54-1.596-.34-2.767-1.505-2.767-1.505s-1.456 1.736-3.394 1.505c-1.937-.338-3.64-1.504-3.64-1.504s-2.53 1.721-5.04 1.609c-1.937-.116-3.536-1.82-3.536-1.82s-4.447 1.47-5.356 1.47c-1.026 0-4.2-1.47-4.2-1.47s-2.177 1.364-3.429 1.364c-1.366 0-5.006-1.61-5.006-1.61s-3.41.91-5.005.91c-1.596 0-3.989-.909-3.989-.909s-2.843 1.252-4.55.91c-1.598-.338-2.872-.909-2.872-.909s-3.175 1.252-5.11.91c-1.938-.338-4.234-1.574-4.234-1.574z"/><path d="M414.73 404.012c11.147-4.64 13.16-5.903 19.903-10.024-1.176.031-4.596-1.074-3.359-1.425 0 0-1.37 1.234-2.737 1.234-1.254 0-4.9-1.59-4.9-1.59s-3.416.907-5.012.907-3.988-.907-3.988-.907-2.964 1.25-4.559.907c-1.596-.338-2.85-.907-2.85-.907s-3.303 1.25-5.125.907c-1.938-.338-4.219-1.593-4.219-1.593s-2.804 1.487-4.564 1.658c5.387 3.945 11.056 7.797 21.41 10.833z"/></g></g><g stroke-width=".509"><path d="M368.52 266.185c-.791-.02-1.738.444-3.196 1.766-2.3 2.077-3.128 4.217-.11 6.805l14.958 13.601c2.184 2.124 5.239 2.512 6.52 3.614l15.203 15.546c1.916 1.655 2.833 2.829 1.75 4.243-1.202 2.325.085 2.64.359 2.71 2.08.468.95-.834 1.219-1.507-.027-.237.068-.472.086-.735.035-.525 1.646-2.1 3.082-2.66.717-.28.96.018 1.14.403.656.262 1.349-.718.383-1.754-.832-1.158-2.131.722-3.598.28 0 0-2.211-1.37-2.816-2.35-1.29-1.437-2.953-2.725-3.91-3.958-1.014-1.142-4.826-6.184-10.63-11.988-1.668-1.09-1.289-5.21-2.483-6.488-.101-.893-11.604-12.277-15.707-16.395-.83-.61-1.46-1.113-2.25-1.133z" fill="#d67c59" stroke-width=".57"/><path d="M369.246 272.31l15.634 15.446" fill="none" stroke-width=".56"/><path d="M390.415 279.366c.241-.465.77-1.65 1.329-2.942.22-.51 4.426-7.218 6.523-7.415 0 0 13.078 9.515 13.088 9.64.045.513-5.673 9.065-6.171 8.415 0 0-15.322-6.433-14.769-7.698z" fill="#e8e8e6" stroke-width=".639"/><path d="M398.747 281.606c-1.792-1.39-4.75-2.747-7.14-4.34l-1.075 2.24c.864.967 11.746 6.025 13.534 7 0 0-2.072-2.376-5.32-4.9z" fill="#ccb8c8" stroke="none"/><path d="M391.6 276.98c1.4.98 4.06 2.66 5.74 3.64 3.22 2.24 5.26 4.708 7.561 6.02" fill="none" stroke-width=".448"/><g stroke-width=".57"><path d="M365.102 317.737l29.778-36.852c.56-.511 3.32-.537 3.694 2.316l-28.202 38.435c.002 0-3.21-.318-5.269-3.899zm99.816.403c-1.027.801-2.77 1.009-2.77 1.009-1.935-2.28-3.534-4.673-6.268-7.634l-29.742-36.58 3.076-2.963 26.776 31.338c.797.797 5.472 5.7 9.916 11.508.003.002.39 2.275-.99 3.326z" fill="#d67c59"/><path d="M436.279 279.6l-4.787-5.697s-3.646.453-4.328 2.393c0 0-2.62 4.33-9.572 4.787 0 0 1.934 8.091 10.026 12.421 0 0 2.963-8.322 5.81-9.802 0 0 2.962-2.166 2.85-4.1z" fill="#e8e8e6"/><path d="M424.317 304.902c-.683-.23-1.366 0-2.394.571-.909.571-2.05.34-1.937-.8.115-1.026 0-.91 1.254-1.707 1.826-1.026 4.217-1.142 5.698-.571l-2.62 2.509m32.468-32.37c-.228-.796-.453-1.59.342-2.617.797-.912.797-2.51-1.142-1.712-1.938.8-2.621 2.964-1.024 6.27l1.82-1.942z" fill="#d67c59"/><path d="M423.633 305.585l33.73-33.505 8.315 8.89s-1.708-.687-2.393-.232c-.569.457.684 2.166.684 2.166s-1.595-.57-2.278-.114c-.798.454 0 2.392 0 2.392s-1.366-1.024-2.052-.57c-.568.458 0 2.62 0 2.62s-1.822-.568-2.276-.114c-.457.457 0 2.394 0 2.394s-1.825-.912-2.734 0c-.91.91.454 2.166.454 2.166s-2.278-.912-3.19.454c-.911 1.368.114 2.62.114 2.62s-1.822-.908-2.278-.457c-.455.458 0 2.621 0 2.621s-1.594-.91-2.62.232c-1.026 1.254.114 2.279.114 2.279s-1.478-.915-2.28-.46c-.799.46.228 2.622.228 2.622s-1.478-1.027-2.506 0c-1.026 1.142 0 2.277 0 2.277s-1.254-1.14-2.506 0c-1.142 1.254 0 2.509 0 2.509s-1.822-.911-2.505 0c-.797.907.227 2.166.227 2.166s-1.367-.798-2.278-.347c-.907.46 0 2.509 0 2.509s-1.366-1.481-1.935-.682c-.683.797.114 2.734.114 2.734s-1.254-1.482-1.937-.681c-.797.683.454 2.393.454 2.393s-2.277-1.026-1.708-1.026z" fill="#e8e8e6"/></g><path d="M455.42 274.818l-2.62 2.621.569 9.005s.57-2.62 1.365-.8c0 0 .23-2.164.799-1.82-.46-.232-.114-9.006-.112-9.006m-4.895 4.895l-1.938 1.822.683 9.005s.571-3.42 1.367-.683c0 0-.115-2.279-.115-3.079.003.572.003-7.065.003-7.065m-20.396 20.183l-1.824 1.934.458 5.473s.57-3.532 1.366-.8c0 0-.229-2.274-.229-3.076 0 .572.23-3.533.23-3.533" fill="#4d4d4d" stroke="none"/><g fill="none" stroke="#4d4d4d" stroke-width="1.026"><path d="M427.845 277.327c1.255 1.255 4.787 5.81 4.787 5.81m-3.185-3.3c-.227.685-.68 2.62-1.706 3.647m2.266-3.2c-.115.456-.115 1.938-1.706 3.42m2.277-2.725c-.229.795-.341 1.366-.91 1.937m1.257-1.254c0 .57-.34.683-.453 1.026m-3.758-3.2c-.454.455-3.761 2.62-5.583 3.305m4.665-2.05c-.455.458-2.507 2.053-3.647 2.51m3.31-1.143c-.683.459-1.823 1.596-2.732 1.937m2.05-.57c-.455.569-1.141 1.026-1.709 1.368"/><path d="M404.997 284.73c.372-.685 1.02-2.033 1.867-3.266 1.075-1.564 1.538-1.83 2.1-2.38" stroke-linecap="square"/></g></g></g><g stroke-width=".57"><path d="M294.99 376.594c1.708.795 0-5.585.567-7.977.683-2.507 5.583 6.153 7.98 7.296 2.506 1.251 17.774-6.043 17.774-6.043l3.646-6.837 1.938 5.582s4.215-4.9 5.47-6.722 0 3.648-1.255 5.47c-1.255 1.826 3.646 2.509 3.075 6.155-.57 3.649 4.9-2.507 4.9-2.507l14.128 1.254s2.39-8.55 6.151-13.45l1.14 5.475 5.81-5.925c6.497 17.096 20.172 35.672 48.2 45.813 26.32-9.572 39.882-26.555 46.944-42.74l7.862 8.098s6.155-1.827 7.293-2.509c1.253-.571 14.471 4.674 14.471 4.674s2.393.911 3.648 1.826c1.251.91.34-3.991.34-3.991s6.723 1.253 6.152 4.9c0 0 1.482-3.418 2.736-3.987 1.255-.571 4.214 3.076 4.9 4.329.57 1.142 15.042 2.963 17.092 4.217 0 0 1.596 1.825 1.596 3.078 0 0 3.077-.344 5.471-.344 0 0-1.824.907-1.824 2.849 0 1.825-.912 3.308-2.734 4.216-1.824.913 0 1.593 2.393 1.825 2.507.34 0 3.416-4.9 5.244 0 0-1.14 2.733.912 3.643 0 0-4.22.345-4.9-.91 0 0-1.479 2.848-1.479 4.33 0 0-4.558-1.484-5.813-2.165 0 0-1.824 1.82-.571 2.733 0 0-8.315-.91-9.912-3.987 0 0-2.963.91-2.394 1.937 0 0-5.81-3.987-7.633-3.987l-1.254 2.046s-3.988-2.391-5.242-2.391c-1.142 0-.228 1.822-.228 1.822l-5.581-3.42-2.164 3.42s-4.558-2.167-5.81-3.076c-1.143-.91-1.48 1.822-2.393 2.162 0 0-1.824-2.503-4.33-2.162 0 0-.91 3.075-.569 3.987 0 0-7.065-1.48-8.317-1.825-1.254-.34-.57 1.482 0 2.737 0 0-5.242-1.48-6.382-2.397l-.342 2.397s-4.326-.343-5.239-1.254l-2.734 3.758h-3.988l-.91 3.304s-7.633-2.162-8.32-.91c-.569 1.251.343 3.074.343 3.074l-6.722-.91-.567 2.733s-7.75-2.393-9.574-1.255c0 0-2.393 2.51-3.989 3.079-1.478.683 0-.912 0-.912l-2.39-3.304s-2.734 1.482-4.332.912c-1.477-.687-6.38 2.39-7.977 1.479 0 0 0-2.168-1.25-2.737-1.143-.57-3.305-.57-4.22.913 0 0-.906-1.254-2.503-3.647-1.48-2.51-3.648.227-3.648.227l-.342-2.964-4.216-.343c-2.507-.342-3.076-2.51-3.076-2.51s-6.494.684-7.406.346l1.594-1.484s-8.886 1.827-10.707 1.143c-1.938-.569 2.05-3.078 2.05-3.078s-8.205-2.047-9.8-2.391c-1.479-.342-10.37 1.477-11.624 1.477s-1.823-2.053-1.823-2.053-2.167 1.826-3.99 2.397c0 0-1.48-3.646-.568-3.99 0 0-5.81 1.597-6.153 3.08 0 0-1.479-2.392-1.255-3.419 0 0-2.732 4.33-3.987 5.242-1.254.912-.229-2.166-.229-2.166s-3.416 4.33-4.67 4.673v-3.078s-9.8 5.241-12.533 4.56c0 0 0-2.17.91-2.736l-6.153-.342c-1.479-.226-3.304-.907-4.899-1.253-1.478-.23 2.167-1.822 4.674-1.14 0 0-6.837-2.506-8.89-1.254 0 0-.912-2.506 2.732-3.42 0 0-4.672-4.555-7.408-4.216 0 0 3.08-1.821 5.586-.912 0 0-2.849-7.746-4.673-8.658 0 0 6.496-1.14 8.32-.224z" fill="#358b03" stroke="#060"/><g stroke="#000"><path d="M285.525 242.91l82.953-42.964c.398-2.222-.862-3.965-2.164-5.701-23.722 11.635-45.311 25.753-71.672 34.306-1.48.571-14.585 6.039-21.308 14.132-2.133 2.138-2.29 5.292-2.29 5.292s.164 3.617.925 4.594c0 0 .197.994 1.437 1.789-.014 0 .765.38 1.306.187.6.112 1.58.106 2.95-2.29 1.368-2.281 5.813-7.522 7.862-9.348z" fill="#d67c59"/><path d="M352.3 200.405l10.71-5.13s3.648 2.735 3.304 5.813c0 0 .799 7.065 9.574 11.965 0 0-7.409 9.229-20.395 10.028 0 0 1.49-12.182-1.244-15.716 0 0-.456.437-.257-.168.387-1.186-.264-5.25-1.927-6.145-.204-.112.131-.444.236-.648z" fill="#e8e8e6"/></g></g><path d="M364.833 201.883c-2.278.912-9.685 4.786-9.685 4.786m6.157-2.511c-.115 1.139-.799 3.874 0 5.812m-1.03-5.466c0 .57-.91 2.621.115 5.358m-1.246-4.787c-.229 1.143-.455 1.826 0 3.08m-.919-2.396c-.227.683 0 1.026 0 1.478m6.72-1.826c.341.91 3.418 5.697 5.242 7.635m-4.782-5.473c.343.912 2.051 4.217 3.304 5.473m-3.528-3.535c.454 1.14 1.366 3.192 2.277 4.33m-2.277-2.046c.228.913.683 2.053 1.366 2.853" fill="none" stroke="#4d4b4d" stroke-width=".912"/><g stroke="#000" stroke-width=".509"><path d="M439.484 180.33c-1.516.182-2.883 1.219-4.421 3.84-2.689 5.14-2.035 7.945 6.085 11.465h.004l30.47 14.921c6.106 2.968 8.304.221 11.75 1.72l60.136 30.632c5.159 2.255 8.047 2.976 7.305 5.645-.102 3.44 1.114 3.913 1.95 4.075 1.297.543 2.3.849 2.573-.65.198-.297-.163-.778-.547-1.41-.384-.631-.79-1.413-.691-2.304.099-.892.171-1.311.469-1.782.297-.47.818-.988 1.808-2.078.495-.544.962-.785 1.406-.828.444-.043.868.109 1.27.344.555.324 1.039.7 1.535 1.05 2.005-.16.219-3.007-1.172-4.09-3.026-1.417-3.371 1.801-6.558 1.462 0 0-5.698-2.164-7.75-3.645-3.779-2.057-9.055-4.497-10.254-5.836-3.84-.72-32.74-16.977-49.114-25.136-1.756-1.47-2.713-6.907-6.164-8.727-1.013-1.467-23.178-11.588-34.77-17.383-2.135-.797-3.803-1.467-5.32-1.285z" fill="#d67c59" stroke-width=".57"/><g fill="#ffa54b" transform="translate(-4.865 22.64) scale(1.12001)"><path d="M309.734 165.117c-.203.61-.712.203-.712.408-.405 2.135-.305 3.253-.813 4.475-.712 1.424-3.256 2.748-3.154 2.645-2.033.61-4.474 3.054-8.44.814-.205-.1-.407-.306-.61-.508 0 0 1.116 4.17-2.95 6.204-1.425.713-15.77 8.244-15.77 8.244s-1.527 2.748-.51 6.512c.103.61.305 1.118-.305 1.526-.916.71-2.646 2.748-3.662 6.004 0 0-3.053-1.324-3.053-3.256 0-1.934 1.22-2.95 1.526-4.378.304-1.32 1.117-4.68.712-5.698-.406-1.12-2.238-1.526-2.95-1.933-.61-.41-1.425.405-1.322 1.32.103 1.02.813.813 1.628 1.02 0 0-.916 1.93-.813 3.355l-9.257 4.783s1.22 1.626 1.627 2.34c.405.712 1.32 10.175 4.07 14.653 2.746 4.478 3.662 3.257 4.272 3.867.508.508 1.32 1.32 2.034 1.934.712.51 3.865.812 4.477-.915.712-1.63 1.22-2.647 3.154-4.174 1.933-1.523 5.9-5.39 5.9-7.122 0 0 2.34 6.716 2.033 12.313 0 0 8.546 1.732 16.177 1.933 7.632.105 11.497-1.524 11.497-1.524s1.018-6.41.608-7.632c0 0 1.22 4.172 2.137 5.596 1.018 1.727 2.135 5.288 4.373 5.493 2.137.1 3.97-2.135 4.17-3.05v-6.717h8.648c0-.1 3.867 1.424 5.087 1.22 1.22-.102 1.933-1.22.813-1.628l-.405-.303c1.117 0 2.543.71 2.543.71h4.27c.104-.102 0-.41-.102-.51-.305-1.22-2.544-2.24-4.17-2.95-1.63-.608-3.46-1.323-4.68-1.423-1.933-.206-3.257-.1-6.207.408-.814.1-3.866.405-5.8 1.32-.51.307-1.02.407-.813-.915.306-1.426.204-7.835-1.32-10.583-1.12-1.932-1.018-3.562-.814-5.188.104-1.63.204-7.226 0-8.855-.306-1.627-2.544-3.867-6.61-4.375-3.867-.51-7.124-3.664-7.326-6.207-.305-2.542.408-7.223.814-9.257" fill="#ad7c59" fill-opacity=".99"/><g fill="none"><path d="M292.444 153.627c-.712 3.253-.712 6.104-.61 9.257.103 2.135 1.12 4.577 2.035 6.715.61 1.426 1.425 3.052 2.746 3.867 3.563 2.34 6.92-.204 8.853-1.018.916-.308 2.34-1.626 2.747-2.442.508-1.22.303-2.135.812-4.475-.103.1.813-.408.712-.408.916-1.526.712-2.034 1.22-3.054.51-1.018-.608-2.136-1.83-1.93.608-1.934 1.018-4.073.404-5.905-.202-.608.51-2.235-.608-1.832-4.58 1.832-9.97 1.426-14.854 1.426-.406 0-.712-.815-1.32-.71-.104 0-.205.303-.308.505" fill="#b68a6a"/><path d="M292.034 155.347c-.508-.406-.61-1.32 0-3.256.712-1.928 0-2.033 1.12-3.152 1.12-1.12.813-1.63 1.525-1.932.71-.206 2.848-.206 3.56-.508.61-.308 1.526-.714 2.948-.916 1.526-.308 4.58-.206 6.003.608 1.527.812 2.545 2.85 3.46 3.56 1.02.71 1.63 3.662 1.427 7.94-.307 4.27-1.12 3.457-1.12 3.457s-1.222-2.034-2.238-.308c0 0 0-1.627.203-2.85.102-1.218-.61-3.457.102-4.984 0 0-5.8 1.832-8.75 1.73-3.052-.203-7.323-.917-7.527-1.627l-.714 2.237" fill="#000"/><path d="M294.984 151.797c-.305-.61-1.832-2.85-.61-3.56 1.12-.613.407 2.744 1.936 3.457 0 0-.51 1.526-1.32.102z" fill="#fff" stroke="#fff"/><path d="M298.344 160.137c-.508 1.732-.712 2.138-.916 3.156m10.586 1.624c.204.61.404.303.914.405m.406-3.965c.51-.61 1.22-.303.813 1.223"/><path d="M292.444 157.697c.916.303 1.832.608 2.748 1.02 1.526.61.61 2.845.204 4.27-.204.715-1.02 1.934-.61 2.547.51.81 1.12.303 2.036.403 0-.303.61-.508.813-.508.712-.1 1.12.507 1.627.307.61-.308.51-1.224.306-1.73m-.104-4.479c.102-.403 1.018-.81 1.526-.915 2.136-.405 3.66-.712 5.393.51m-5.699 11.085c-1.73.408-3.56.71-5.188-.206m-.002-.804c.813-.408 1.12-.816 2.137-.308 0-.102 1.12-.406 1.12-.406.813 0 1.323.304 2.137.812m-5.494.302c.916-.306 3.358-.306 5.394.102"/><g stroke-width=".305"><path d="M292.344 160.137c.713-.1 1.526-.916 3.154.306 1.12.712-1.832 1.426-1.322 1.324-1.32.202-1.73-.508-1.828-1.122 0-.202-.204-.508 0-.508zm8.34.81c.712-1.426 1.832-1.12 2.85-.816 1.018.307.712.106 1.628.614-1.12.203-.814.303-1.63.71-.915.408-1.728.61-2.34.206-.204-.206-.712-.508-.712-.916 0 .1.102.203.204.203z" fill="#fff" stroke-linecap="round" stroke-linejoin="round" stroke-width=".304"/><path d="M293.764 161.357c.406 0 .712-.406.712-.814 0-.508-.306-.916-.712-.916-.507 0-.812.408-.812.916 0 .408.303.814.812.814zm8.65.2c.405 0 .712-.403.712-.916 0-.507-.407-.81-.813-.81-.405 0-.712.303-.712.81 0 .515.408.917.814.917z" fill="#000"/></g></g><g id="a"><g fill="none"><path d="M345.854 213.657c-.608-.714-1.018-1.02-1.83-1.324-.61-.303-1.424-.71-2.036-1.016-.712-.408-1.73-.508-2.34-.916m.406 2.646c-.306-.203-.508-.304-.812-.51-.306-.1-.712-.1-1.02-.203-.102 0-.102-.204-.203-.204-.916-.102-1.832-.51-2.44-1.32m-62.775-9.363c.914.71 3.152 2.24 3.356 5.19.204 1.525 1.02 3.05 1.02 3.05m-13.126-7.83c.51 1.727.61 7.425 6.003 13.43m-4.983-21.37c-.408 1.12-.916 2.137.202 2.95m14.448 10.69c1.12-2.545 4.578-2.342 4.578-4.782"/><path d="M284.814 207.247c-.306-2.85-.916-4.475-.405-8.647.202-1.223.404-5.9 0-8.14 0 0 1.628 7.832-3.663 9.362m34.388 12.515c0-3.97.916-6.21.916-6.21 1.22-5.592-1.12-7.73-.203-9.154.812-1.22 2.035-3.766.407-8.854 0 0 2.847 10.483-4.478 10.483-7.425 0-7.12-2.748-7.12-2.748"/><path d="M284.404 190.457c0 2.135 0 8.447 9.055 8.447 2.745 0 5.697-1.933 7.323-3.256m2.242-2.751c-.306-1.934-.306-4.375-.306-6.92m-13.634-3.45c2.44-.308 4.376-.61 8.955-.61m.305-6.32c.51 2.24-.304 5.8 3.866 6.31m4.374-7.12c-.61 1.63-.61 3.256-.814 4.375m.204 2.755c1.73 0 4.985-1.12 9.054-.306m1.426 22.786c.813 1.63 1.018 3.765 3.56 6.207m-31.74-11.397c.204 1.324-1.73 5.698-.306 9.262 1.322 3.558 1.12 7.63-1.12 11.088m6.616-19.02c-.813 1.626-2.238 3.256-2.544 4.68m6.604-1.63c0 1.018-2.744 8.75-4.68 10.886 0 0 3.56 1.424 3.05 6.614m7.33-21.06c0 1.324-.204 1.63.916 2.44m2.444 0c1.32 1.628 5.492 6.514 4.576 9.26m-7.326-6.51c.306 1.018.306 6.31-.61 8.955m-2.13-.205c-1.12 0-2.746.814-3.052 2.747m8.742-3.057c1.118-.306 3.355 1.626 3.355 7.123m15.675-10.273c-2.136.61-3.052 1.732-2.44 1.12-1.12.915-2.138 1.525-2.138 1.525"/></g><path d="M289.794 197.987c.608 0 1.118-.408 1.118-.916 0-.41-.507-.815-1.118-.815-.51 0-1.02.405-1.02.816 0 .506.508.917 1.02.917zm23.1.31c.51 0 1.02-.405 1.02-.916 0-.504-.508-.81-1.02-.81-.607 0-1.118.306-1.118.81 0 .512.51.917 1.118.917z" fill="#000" stroke-width=".305"/><path d="M280.544 239.807c1.22-7.937 4.985-14.55 5.086-15.162 0 0 3.865.816 10.58 1.424 6.612.71 8.444.407 11.496.2 2.95-.302 6.815-.81 6.815-.81s1.222 2.44 1.323 4.883c.305 5.188 2.236 27.677 2.44 33.68 0 0 .813 3.56.813 12.31 0 9.568 2.645 29 2.645 39.382l-2.644.51s-14.446 1.12-14.446-.814c0-2.134-.813-27.065 1.322-42.125 0 0-.508-2.95-1.322-5.496-.813-2.443-4.375-10.074-4.375-11.7 0 0-5.695 16.073-6 18.825-.305 2.543-1.12 38.357-1.63 41.312 0 0-8.24 6.308-9.36 6.92-1.117.51-9.053-3.36-9.257-4.375-.306-1.118.814-13.23 4.578-33.176 1.425-7.123.61-8.44.61-10.375 0-1.933.103-27.473 1.322-35.41z" fill="#e8e8e6"/><path d="M294.274 274.917c-.61 2.24-1.628 4.375-3.56 5.803m-2.75-53.633c-.304 1.322-2.238 7.325-7.122 10.887m14.242-9.767c-1.12 3.562-5.493 22.693-6.31 45.383m-.3 7.127c-.204 2.135-1.322 18.012-1.628 20.756m-.812 3.054c-.51 1.117-2.746 10.375-2.746 18.62m32.246-35.92c-.204 1.933-1.02 15.668 3.56 27.98m-18.51-85.98c-.305 2.237-.813 16.688-.813 17.806 0 1.117 1.63 2.747 2.442 3.054 0 0-1.628.51-1.933 6.003m-4.076-12.923c-.308 1.727-1.934 8.547-3.054 11.295m13.124-25.435s4.884 1.018 5.188 0c0 0 1.628 29.512 3.866 45.89m-11.184-42.13c0 1.934-.61 16.485-.61 16.485m2.44 2.135s1.93 2.745 1.425 4.066m-17.805-28.076c1.63.508 3.053.812 3.053.812m5.187 1.628c-.307.814-.61 4.58-.61 4.58m8.75 38.87c.61.814 1.425 1.936.814 4.377" fill="none"/><path d="M284.914 224.447s0-3.256 1.22-4.886c0 0 3.457.715 8.342 1.223 4.984.508 8.95.916 12.615.508 3.664-.405 7.43-1.32 7.43-1.32s1.016 4.783.505 5.495c0 0-3.968.814-8.34 1.016-4.478.304-11.903-.407-14.446-.81-3.36-.41-6.31-1.02-7.326-1.223z" fill="#d67c59"/><path d="M288.064 224.847l.608-4.883 1.02.1-.204 5.088zm22.08-4.07l.103 5.496 1.22-.206-.1-5.597zm-15.67 0l-.406 5.29h.713l.713-5.29z" fill="#fff"/><path d="M276.774 320.807c-.305 1.322-.812 3.154-1.018 5.496 0 .508-.507 3.256 1.018 3.356 1.12.102 1.425-2.85 1.425-2.85s-1.02 3.256.304 3.664c1.832.403 2.034-3.562 2.034-3.562-.204 1.12-1.425 3.97.306 4.27 1.83.308 2.34-3.866 2.34-3.866s-1.526 4.174.304 4.275c1.73.1 1.73-4.07 1.73-4.07s-.917 4.987 1.525 4.58c1.32-.204 1.628-1.935 1.933-2.952.406-1.524 1.322-3.457.204-6.612-.812-2.34-.507-2.95-.507-2.95s-2.85 2.137-5.087 3.56c-1.02.61-6.514-2.34-6.514-2.34zm29.71-4.38c-.508-.307-.406 1.832-.61 2.846-.102 1.02.205 3.257 3.664 3.055 3.355-.307 6.715-1.018 8.85-.51 2.138.61 5.29.712 7.022.712 1.73 0 2.85-.202 3.66-.51.714-.302 2.24.41 2.95.41.714 0 1.832-1.12 1.73-1.833-.102-1.324-1.32-1.324-3.053-1.424-1.628-.203-3.865-.51-4.983-.916-1.12-.408-3.154-1.527-5.698-2.035 0 0-4.883.205-5.898.205-1.02 0-7.022.303-7.634 0z" fill="#653024"/></g><g fill="#ad7c59" stroke-linecap="round"><path d="M255.714 189.847c-.507.306-1.12-2.035.406-2.95 0 0 .406-1.932 2.035-2.137 0 0 1.32-1.832 3.257-1.626 0 0 2.235-1.525 3.05-1.324.813.102 2.85 2.136 2.95 2.85.205.71 0 1.933-.51 2.442-.61.608-1.018-.102-1.12-.916 0 0 .408 1.524-.812 2.135-1.22.715-1.12.207-1.22-.61 0 0-.307 1.63-1.12 1.833-.813.305-1.32-.408-1.934-.408 0 0 1.02.816.307 1.426-.713.51-1.526.304-2.036-.1-.51-.51-1.12-1.833-3.257-.61z" stroke-linejoin="round"/><path d="M265.684 186.087c-.51-1.63-2.137-3.054-4.07-2.848m2.24 4.368c-.306-.408-.408-.816-.712-1.22-.916-1.528-2.85-1.424-4.477-1.832m2.439 4.582c-.61-.406-.813-1.222-1.425-1.524-1.02-.408-2.035-.916-3.256-.714"/></g></g><g transform="translate(-4.86 22.637) scale(1.12001)"><path d="M439.14 165.12c.712-.306.51.61.61.916.306 1.32.306 2.748.813 3.967.608 1.12.812 1.526 1.83 2.035 1.627.916 6.407 3.562 9.767 1.424.204-.1.508-.306.712-.508 0 0-1.22 4.172 2.95 6.207 1.32.71 15.668 8.242 15.668 8.242s1.525 2.748.61 6.512c-.205.61-.406 1.118.203 1.526 1.02.71 2.644 2.748 3.766 6.004 0 0 2.946-1.324 2.946-3.256 0-1.934-1.22-2.95-1.525-4.375-.2-1.324-1.016-4.682-.607-5.698.405-1.118 2.135-1.526 2.847-1.936.714-.41 1.526.405 1.322 1.32-.102 1.02-.812.817-1.628 1.02 0 0 1.02 1.93.814 3.355l9.358 4.783s-1.22 1.63-1.628 2.34c-.51.715-1.425 10.175-4.17 14.653-2.75 4.478-3.664 3.257-4.172 3.867-.61.508-1.424 1.324-2.137 1.934-.61.51-3.765.815-4.477-.915-.712-1.628-1.22-2.647-3.153-4.174-1.934-1.523-5.9-5.39-5.9-7.122 0 0-2.34 6.72-2.035 12.313 0 0-8.443 1.732-16.176 1.937-7.632.102-11.498-1.528-11.498-1.528s-1.018-6.41-.61-7.632c0 0-1.22 4.172-2.033 5.596-1.12 1.727-2.237 5.29-4.376 5.493-2.236.104-3.968-2.135-4.27-3.05v-6.717h-8.647c0-.1-3.766 1.424-5.087 1.223-1.22-.105-1.832-1.223-.813-1.63l.407-.304c-1.12 0-2.544.71-2.544.71h-4.272c0-.102.103-.41.103-.51.308-1.218 2.546-2.24 4.273-2.95 1.628-.608 3.356-1.323 4.578-1.423 1.934-.203 3.257-.1 6.207.408.812.1 3.967.408 5.798 1.322.508.304 1.118.405.813-.915-.305-1.426-1.22-5.598.307-8.346 1.018-1.933.916-3.56.813-5.19-.204-1.728-1.118-5.597-1.118-7.324 0-5.7 4.375-8.04 8.24-9.262 4.272-1.32 7.12-2.748 6.92-5.288-.104-2.646.608-7.02.202-9.058" fill="#653024"/><g fill="none"><path d="M456.34 153.63c.916 3.356 1.12 4.17 1.12 5.29 0 1.22-.51 1.425-.104 2.75.713 2.44-.712 5.087-2.44 7.936-.814 1.32-1.425 3.052-2.747 3.866-3.357 2.135-7.428-.408-9.564-1.327-1.117-.505-1.73-1.32-2.033-2.135-.407-1.22-.51-2.34-.813-3.967 0-.306.103-1.22-.61-.916-1.22-1.424-1.017-2.034-1.523-3.05-.51-1.022.916-2.14 2.034-1.935-.61-1.933-.915-4.072-.305-5.904.204-.608-.508-2.235.51-1.832 4.577 1.832 9.97 1.426 14.854 1.426.403 0 .71-.812 1.32-.71.097 0 .2.305.3.508" fill="#653024"/><path d="M456.75 155.35c.508-.406.204-2.34-.306-4.375-.203-1.017-1.018-1.424-2.136-2.542-1.12-1.122-1.525-1.122-2.236-1.424-.61-.207-2.034-.207-2.746-.51-.61-.307-2.238-.104-3.766.102-2.036.304-3.153.202-4.68 1.018-1.525.814-2.745 1.73-3.255 3.256-.406 1.118-1.12 2.542-.814 6.817.205 4.272 1.02 3.458 1.02 3.458s1.12-1.627 1.832-.61c0 0-.103-2.24-.305-3.56-.103-1.222 0-2.748.51-4.58 0 0 4.678 1.732 9.053 1.732 3.053 0 7.02-.306 7.123-1.017l.71 2.235z" fill="#000"/><path d="M450.44 160.14c.61 1.732.104 1.222.408 2.34m-10.278 2.03c0 .812-.61.61-1.02.61"/><path d="M456.85 158.82c-.916-.713-2.645-.204-3.46.102-1.525.71-.712 2.24-.204 3.664.204.71 1.02 1.727.51 2.44-.406.813-.712.41-1.628.51.104-.307-.812 0-1.117 0-.61-.1-.915.404-1.425.203-.608-.305-.508-1.22-.306-1.73m.1-4.479c0-.403-1.32-.81-2.745-.915-2.238-.102-2.442.104-4.172 1.322m11.497 8.953c-.405-.608-1.018-.916-2.137-.405 0-.204-1.524-.406-1.524-.406-.813 0-1.322.302-2.137.71m5.588.611c-.916-.61-3.256-.2-5.596-.2m.206.81c1.73.512 3.46.816 5.188 0"/><g stroke-width=".305"><path d="M456.44 160.14c-.712-.1-1.018-.916-3.153.306-1.12.61 1.832 1.426 1.425 1.324 1.22.202 1.628-.508 1.73-1.122-.002-.203.202-.508-.002-.508zm-8.34.81c0-.816-1.83-1.12-2.847-.816-1.02.306-.61.105-1.526.613 1.02.203.712.303 1.526.71.914.408 1.12.814 2.34.206.305-.105.71-.508.812-.916-.1.1-.202.203-.305.203z" fill="#fff" stroke-linecap="round" stroke-linejoin="round"/><path d="M455.12 161.36a.802.802 0 01-.813-.814c0-.508.307-.916.813-.916.405 0 .712.408.712.916 0 .408-.307.814-.712.814zm-8.75.2c-.406 0-.712-.403-.712-.916 0-.508.403-.81.812-.81.41 0 .712.302.712.81 0 .514-.303.916-.812.916z" fill="#000"/></g></g><use fill="#d67c59" height="100%" transform="matrix(-1 0 0 1 748.816 0)" width="100%" xlink:href="#a"/><g fill="#653024"><path d="M491.64 193.51c.508.206 1.934-2.033.508-3.05 0 0-.508-1.933-2.136-2.035 0 0-1.322-1.933-3.257-1.63 0 0-2.136-1.524-2.948-1.42-.916.2-2.95 2.236-3.053 2.95-.102.608 0 1.83.508 2.44.61.51 1.02-.104 1.12-1.02 0 0-.406 1.53.812 2.24 1.22.71 1.12.1 1.22-.71 0 0 .307 1.626 1.12 1.932.813.303 1.322-.408 1.935-.408 0 0-1.02.814-.306 1.323.713.61 1.525.303 2.035-.104.61-.405.305-1.728 2.44-.51z" stroke-linecap="round"/><path d="M482.49 189.75c.506-1.73 2.235-3.153 4.067-2.85m-2.137 4.38c.203-.41.305-.816.61-1.224.915-1.524 2.948-1.524 4.576-1.832m-2.546 4.476c.61-.408.814-1.118 1.426-1.42 1.018-.513 2.136-.917 3.256-.715" stroke-linecap="round" stroke-linejoin="round"/><path d="M482.31 186.77c-.896.716-1.837 1.798-1.906 2.28-.103.61-.008 1.828.5 2.44.55.46.95-.018 1.095-.782-.06.463-.072 1.465.843 2 1.22.71 1.118.095 1.22-.72 0 0 .31 1.636 1.124 1.94.813.305 1.325-.407 1.938-.407 0 0-1.026.805-.312 1.313.712.61 1.522.31 2.03-.094.61-.41.3-1.723 2.44-.5.266.105.803-.453 1.03-1.157l-7.688-5.53z" stroke="none"/><path d="M480.68 188.19c-1.502 2.582.5 4.132 1.164 2.62-.193 2.385 1.606 2.29 2.285 1.537.657 2.512 1.83 1.395 2.908 1.164-1.223 2.29 1.48 1.61 2.12 1.082.924-1.362 1.356-.277 2.036-.416l1.164-1.247m-7.977-5.7c-1.686.896-2.512 2.137-2.535 3.7m4.865-2.2c-1.687.896-2.512 2.137-2.535 3.7m5.405-1.75c-1.687.897-1.765 1.722-2.493 2.826"/></g></g></g><g fill="#ffe682"><path d="M414.517 444.859c25.64.23 40.796-9.117 49.113-14.702 19.484-13.104 23.587-13.56 26.78-13.335 3.646.347 8.997 1.598 9.228 4.79.342 4.9-7.635 7.065-12.194 7.065-4.67 0-16.866-3.078-16.866-3.078l-3.192 2.168c2.166 1.027 27.122 9.343 31.907 1.482 4.897-7.978 9.8-20.858 9.8-20.858s-5.47-9.8-17.665-9.8c-12.306 0-24.27 7.75-32.245 13.558-7.979 5.813-18.004 13.79-44.67 13.79-26.663 0-36.804-7.977-44.779-13.79-7.974-5.81-19.941-13.559-32.133-13.559-12.304 0-17.774 9.8-17.774 9.8s4.898 12.88 9.798 20.859c4.784 7.86 29.742-.458 31.903-1.484l-3.076-2.168s-12.305 3.078-16.865 3.078c-4.673 0-12.649-2.164-12.306-7.064.228-3.192 5.582-4.446 9.228-4.789 3.192-.224 7.295.231 26.778 13.335 8.322 5.584 23.477 14.588 49.23 14.702"/><path d="M373.267 414.652s0-2.17-.345-5.357c-.455-4.103-2.847-5.13-4.783-4.558-1.254.45-3.76 3.533-3.76 3.533v.115a36.247 36.247 0 00-3.533-2.166c.912-1.026 6.154-4.216 7.406-4.216 1.143 0 16.866 6.38 21.877 10.71 1.254 1.142 2.167 8.207 1.48 10.483-8.43-2.164-13.9-5.354-18.346-8.432v-.114m-7.522 15.962s-3.42 3.416-3.532 9.686c-.115 7.407 5.242 7.75 8.774 7.635 4.217-.116 7.633-2.506 7.521-10.37 0 0-6.953-2.965-12.764-6.952m89.915-15.959s.115-2.17.458-5.357c.45-4.103 2.731-5.13 4.67-4.558 1.253.45 3.759 3.533 3.759 3.533v.115a36.077 36.077 0 013.53-2.166c-.91-1.026-6.15-4.216-7.292-4.216-1.252 0-16.975 6.38-21.99 10.71-1.143 1.142-2.053 8.207-1.48 10.483 8.545-2.164 13.899-5.354 18.345-8.432v-.114m7.516 15.962s3.418 3.416 3.532 9.686c.228 7.407-5.244 7.75-8.773 7.635-4.219-.116-7.521-2.506-7.521-10.37 0 0 6.951-2.965 12.763-6.952"/></g><path d="M358.336 425.594s-12.193 3.079-16.75 3.079c-4.67 0-12.648-2.162-12.305-7.066.23-3.192 5.584-4.442 9.23-4.784 2.734-.232 6.268.112 19.827 8.771m112.247 0s12.191 3.079 16.865 3.079c4.558 0 12.532-2.162 12.19-7.066-.225-3.192-5.58-4.442-9.228-4.784-2.736-.232-6.268.112-19.827 8.771m-97.318-10.83c-1.254-.911-2.507-1.826-3.65-2.733-1.707-1.256-3.417-2.397-5.24-3.647 0 0 2.505-3.192 3.758-3.535 1.937-.683 4.329.339 4.782 4.443.345 3.192.345 5.475.345 5.475m-8.317 32.141c2.169 1.255 4.559 1.143 6.042 1.027 4.217-.115 7.634-2.507 7.52-10.37 0 0 5.24 2.621 13.788 4.673 0 0 1.367 1.708 1.593 5.126.346 2.852-1.595 5.925-3.871 5.7 0 0-11.966-2.166-19.257-3.415-4.218-.798-5.813-2.738-5.813-2.738m90.708-32.147c1.252-.911 2.506-1.826 3.758-2.733 1.596-1.256 3.304-2.397 5.127-3.647 0 0-2.505-3.192-3.759-3.535-1.937-.683-4.217.339-4.67 4.443-.344 3.19-.458 5.474-.458 5.474m8.313 32.142c-2.166 1.255-4.559 1.143-6.04 1.027-4.217-.115-7.52-2.507-7.52-10.37 0 0-5.242 2.621-13.676 4.673 0 0-1.479 1.708-1.708 5.126-.227 2.852 1.71 5.925 3.875 5.7 0 0 12.078-2.166 19.257-3.415 4.217-.798 5.81-2.738 5.81-2.738" fill="#171696"/><g fill="none" stroke="#000" stroke-width=".797"><path d="M414.517 444.859c25.64.227 40.796-9.12 49.113-14.702 19.484-13.104 23.587-13.559 26.777-13.333 3.648.341 9.004 1.596 9.228 4.786.345 4.9-7.633 7.063-12.193 7.063-4.67 0-16.864-3.073-16.864-3.073l-3.19 2.166c2.166 1.027 27.118 9.345 31.904 1.479 4.9-7.977 9.798-20.855 9.798-20.855s-5.47-9.803-17.663-9.803c-12.305 0-24.27 7.753-32.247 13.564-7.975 5.812-18 13.789-44.667 13.789-26.663 0-36.803-7.978-44.778-13.79-7.976-5.81-19.943-13.563-32.133-13.563-12.305 0-17.774 9.804-17.774 9.804s4.897 12.877 9.798 20.855c4.785 7.862 29.742-.454 31.904-1.479l-3.074-2.167s-12.309 3.073-16.864 3.073c-4.674 0-12.65-2.16-12.309-7.064.23-3.192 5.584-4.444 9.231-4.788 3.188-.226 7.291.23 26.776 13.334 8.322 5.586 23.475 14.59 49.227 14.702z"/><path d="M358.336 425.594s-12.194 3.079-16.747 3.079c-4.673 0-12.65-2.166-12.31-7.066.23-3.192 5.585-4.446 9.231-4.784 2.733-.232 6.267.112 19.827 8.771zm112.238 0s12.193 3.079 16.865 3.079c4.558 0 12.532-2.166 12.193-7.066-.23-3.192-5.582-4.446-9.227-4.784-2.735-.232-6.27.114-19.827 8.771zm-97.307-10.83c-1.254-.911-2.507-1.826-3.65-2.733-1.704-1.256-3.415-2.397-5.24-3.647 0 0 2.508-3.192 3.76-3.535 1.937-.683 4.328.339 4.782 4.447.347 3.185.347 5.469.347 5.469z"/><path d="M373.267 414.652s0-2.168-.345-5.357c-.453-4.103-2.847-5.13-4.783-4.558-1.254.455-3.763 3.533-3.763 3.533v.115a37.196 37.196 0 00-3.53-2.166c.91-1.026 6.152-4.216 7.406-4.216 1.143 0 16.865 6.38 21.878 10.713 1.254 1.143 2.165 8.204 1.48 10.485-8.434-2.17-13.902-5.36-18.35-8.433m-7.52 15.844s-3.415 3.416-3.53 9.686c-.115 7.404 5.241 7.749 8.773 7.635 4.217-.116 7.632-2.506 7.523-10.374 0 0-6.952-2.963-12.763-6.952z"/><path d="M368.597 432.315s-2.733 2.848-3.19 7.52c-.227 3.649 2.165 5.698 5.242 5.47 4.329-.224 6.04-6.15 3.987-9.457z"/><path d="M364.945 446.908c2.167 1.255 4.556 1.14 6.04 1.027 4.216-.117 7.631-2.509 7.522-10.371 0 0 5.243 2.62 13.788 4.672 0 0 1.369 1.708 1.593 5.13.345 2.848-1.593 5.925-3.87 5.696 0 0-11.967-2.166-19.258-3.416-4.22-.801-5.815-2.736-5.815-2.736zm90.71-32.144c1.255-.911 2.506-1.826 3.76-2.733 1.597-1.256 3.304-2.397 5.13-3.647 0 0-2.507-3.192-3.762-3.535-1.937-.683-4.216.339-4.67 4.447a104.806 104.806 0 00-.455 5.469h-.002z"/><path d="M455.655 414.652s.115-2.168.458-5.357c.452-4.103 2.731-5.13 4.67-4.558 1.253.455 3.759 3.533 3.759 3.533v.115a37.196 37.196 0 013.531-2.166c-.91-1.026-6.151-4.216-7.293-4.216-1.254 0-16.975 6.38-21.99 10.713-1.143 1.143-2.053 8.204-1.48 10.485 8.545-2.17 13.899-5.36 18.345-8.433m7.516 15.844s3.418 3.416 3.532 9.686c.228 7.404-5.244 7.749-8.775 7.635-4.216-.116-7.52-2.506-7.52-10.374 0 0 6.95-2.963 12.763-6.952z"/><path d="M460.326 432.315s2.734 2.848 3.192 7.52c.342 3.649-2.168 5.698-5.245 5.47-4.329-.224-5.925-6.15-3.987-9.457z"/><path d="M463.966 446.908c-2.166 1.255-4.559 1.14-6.04 1.027-4.215-.117-7.518-2.509-7.518-10.371 0 0-5.244 2.62-13.674 4.672 0 0-1.48 1.708-1.708 5.13-.228 2.848 1.708 5.925 3.875 5.696 0 0 12.077-2.166 19.253-3.416 4.218-.801 5.813-2.736 5.813-2.736z"/></g><path d="M391.389 444.287s3.76 2.739-.798 6.157m-10.482-7.982l11.51 5.016m-9.582-2.395l8.429 3.644m-5.461-5.805l6.38 2.852m46.26-1.487s-3.875 2.739.684 6.157m10.483-7.982l-11.51 5.016m9.684-2.395l-8.43 3.644m5.362-5.805l-6.268 2.852" fill="none" stroke="#fff" stroke-width=".797"/><g stroke="#000"><path d="M346.33 409.231c.164.265.27.541.32.825.042.29.03.612-.034.969-.163.847-.616 1.48-1.352 1.917-.74.435-1.587.554-2.524.375a4.293 4.293 0 01-1.269-.45 5.074 5.074 0 01-1.035-.694c-.125.15-.258.291-.39.44l-.546-.104c.175-1.103.349-2.206.532-3.309.179.034.366.068.554.107.034.427.105.815.195 1.173.086.358.235.698.431 1.036.187.308.423.577.717.794.285.217.639.37 1.059.446.315.063.597.073.854.034.246-.037.464-.112.632-.235a1.54 1.54 0 00.43-.467 2.06 2.06 0 00.236-.674 1.994 1.994 0 00-.123-1.136c-.152-.376-.442-.686-.84-.94a59.324 59.324 0 00-.947-.586 13.235 13.235 0 01-.918-.589c-.5-.347-.87-.739-1.094-1.202-.229-.45-.288-.993-.166-1.63a2.386 2.386 0 01.423-.975 2.64 2.64 0 01.803-.725 2.946 2.946 0 011.048-.378 3.369 3.369 0 011.168.019c.445.083.84.23 1.168.432.324.205.623.417.878.658l.37-.403c.183.033.363.067.548.105l-.551 3.196c-.184-.037-.37-.07-.557-.107a13.109 13.109 0 00-.135-1.114 4.15 4.15 0 00-.32-1 2.267 2.267 0 00-.601-.766c-.25-.21-.586-.35-1.002-.431a1.607 1.607 0 00-1.19.205c-.355.224-.576.521-.651.919-.078.411-.043.774.103 1.086.141.316.385.59.728.84.302.224.61.416.91.596.3.179.583.358.863.548.25.167.497.348.72.55.217.196.407.414.553.645m13.98 1.96a4.208 4.208 0 00-.542-.203 1.64 1.64 0 00-.65-.1c-.19.017-.388.158-.6.415a6.62 6.62 0 00-.667 1.02c-.683 1.239-1.372 2.48-2.054 3.722-.262.472-.589.828-.984 1.07a2.94 2.94 0 01-1.265.425 3.784 3.784 0 01-1.277-.086 4.857 4.857 0 01-1.102-.43c-.518-.286-.952-.604-1.284-.966-.332-.367-.582-.735-.724-1.118a2.597 2.597 0 01-.182-1.134 2.417 2.417 0 01.302-1.034l2.795-5.062a1.055 1.055 0 00.127-.398c.002-.115-.05-.257-.146-.414a1.747 1.747 0 00-.314-.357c-.143-.116-.255-.21-.358-.275l.235-.43c1.21.667 2.41 1.331 3.618 1.994l-.237.426a3.621 3.621 0 00-.46-.18 2.255 2.255 0 00-.433-.123c-.165-.024-.303 0-.41.094-.111.09-.2.192-.274.324-.87 1.58-1.742 3.155-2.611 4.733a3.888 3.888 0 00-.314.762c-.094.28-.121.571-.092.87.034.314.157.605.35.896.198.291.537.568 1.01.829.445.246.863.388 1.244.417.379.022.72-.022 1.023-.157a2.318 2.318 0 00.728-.487 2.957 2.957 0 00.498-.659l1.938-3.513c.246-.448.419-.83.508-1.154.093-.319.096-.548.022-.712-.082-.183-.24-.37-.45-.557a4.14 4.14 0 00-.518-.41l.235-.426c1.184.65 2.365 1.302 3.55 1.956l-.234.43m5.028 8.705c.152.311.24.653.247 1.015.005.364-.1.741-.323 1.131-.224.392-.506.684-.851.878a2.548 2.548 0 01-1.092.324 3.427 3.427 0 01-1.151-.107 4.704 4.704 0 01-1.143-.465l-4.068-2.342.246-.426c.101.051.247.112.452.19a2 2 0 00.45.141.63.63 0 00.399-.074.83.83 0 00.284-.314c1.17-2.027 2.34-4.062 3.509-6.09a1.098 1.098 0 00.14-.398.65.65 0 00-.133-.41 1.958 1.958 0 00-.326-.37c-.135-.117-.243-.212-.342-.277.078-.14.163-.282.244-.422 1.32.758 2.64 1.519 3.964 2.283.307.177.583.373.833.594.242.224.448.481.616.776.157.278.251.583.26.907a1.88 1.88 0 01-.27 1.008 2.106 2.106 0 01-.623.695 1.966 1.966 0 01-.806.34 2.97 2.97 0 01-.866.033 3.879 3.879 0 01-.927-.194l-.034.056a5.8 5.8 0 01.725.655c.251.275.452.56.59.863zm-.73-2.12c.254-.089.462-.212.636-.382a3.257 3.257 0 00.504-.672c.265-.466.347-.907.243-1.321-.1-.422-.437-.784-.992-1.105-.126-.071-.291-.166-.488-.273-.202-.112-.37-.2-.495-.265l-1.882 3.262c.255.146.506.291.764.437.334.193.638.313.923.367.286.05.549.039.789-.05zm-.713 3.187a1.893 1.893 0 00.201-1.527c-.153-.522-.55-.96-1.189-1.328a40.245 40.245 0 00-.654-.37c-.18-.095-.317-.164-.408-.212-.576 1.001-1.146 1.993-1.72 2.988a.724.724 0 00-.023.744c.132.247.381.473.753.684.597.347 1.159.444 1.678.28.52-.168.97-.58 1.36-1.258zm22.063 5.037a4.032 4.032 0 00-.56-.148 1.669 1.669 0 00-.654-.033c-.187.033-.37.195-.559.472a6.843 6.843 0 00-.561 1.08l-1.674 3.91c-.213.496-.504.884-.87 1.164a3.002 3.002 0 01-1.218.55 3.763 3.763 0 01-1.278.036 4.784 4.784 0 01-1.143-.314c-.541-.233-1.003-.51-1.372-.837-.368-.333-.65-.672-.833-1.04a2.597 2.597 0 01-.292-1.108 2.429 2.429 0 01.196-1.064l2.278-5.313a1.053 1.053 0 00.09-.404.829.829 0 00-.185-.4 1.864 1.864 0 00-.351-.324c-.153-.1-.274-.185-.381-.239l.19-.448 3.797 1.626c-.067.148-.129.299-.195.446a4.026 4.026 0 00-.473-.134 2.693 2.693 0 00-.444-.079c-.168-.01-.302.03-.399.131a1.113 1.113 0 00-.239.352c-.71 1.656-1.419 3.31-2.126 4.968a3.957 3.957 0 00-.243.784 2.078 2.078 0 000 .88c.066.307.214.585.438.855.226.269.588.514 1.088.725.469.204.9.3 1.284.292.375-.015.713-.093.996-.258.27-.155.504-.336.68-.554a2.98 2.98 0 00.432-.706c.526-1.232 1.053-2.457 1.58-3.687.2-.471.332-.868.391-1.196.056-.33.04-.558-.051-.711-.1-.176-.274-.345-.504-.51a4.342 4.342 0 00-.554-.358l.19-.447 3.726 1.595a14.41 14.41 0 00-.195.445m10.716 12.59c-1.4-.404-2.804-.811-4.205-1.217l.134-.47c.157.038.354.078.602.123.243.039.422.05.527.032a.945.945 0 00.39-.205.83.83 0 00.213-.376l1.975-6.836a1.608 1.608 0 00-.102-.028c-1.84 2.367-3.722 4.698-5.565 7.067-.11-.03-.218-.065-.334-.096-.224-3.024-.507-6.044-.73-9.064a.83.83 0 00-.089-.025c-.539 1.87-1.082 3.738-1.62 5.611-.157.538-.24.956-.252 1.266-.017.305.036.536.138.7.071.124.252.267.538.443.283.177.47.275.564.308l-.137.47-3.844-1.11c.045-.159.092-.316.137-.471.207.037.431.069.667.083.235.018.422-.002.574-.07.19-.082.35-.232.49-.477.13-.24.281-.656.454-1.255l1.389-4.81c.08-.276.112-.51.097-.709a1.107 1.107 0 00-.163-.514 1.432 1.432 0 00-.435-.41 2.38 2.38 0 00-.571-.275l.134-.47 3.241.938c.213 2.616.485 5.23.695 7.847 1.33-1.75 2.699-3.475 4.032-5.226.15-.195.291-.397.419-.622a3.304 3.304 0 00.233-.445c1.033.298 2.072.598 3.103.899l-.135.467a4.5 4.5 0 00-.493-.075 2.783 2.783 0 00-.457-.027.513.513 0 00-.385.18 1.093 1.093 0 00-.196.379l-1.96 6.776a.923.923 0 00-.034.41c.025.122.1.241.229.367.069.07.201.15.396.244.197.1.35.165.47.208a33.1 33.1 0 00-.138.466m10.185-3.093c.258.23.474.51.62.843s.2.722.143 1.165a2.352 2.352 0 01-.444 1.14 2.677 2.677 0 01-.881.722 3.554 3.554 0 01-1.107.35 4.712 4.712 0 01-1.234.011c-1.552-.195-3.103-.392-4.655-.585l.06-.487c.113.007.273.007.494 0 .214-.002.375-.019.47-.045a.61.61 0 00.338-.224.842.842 0 00.143-.396c.29-2.324.582-4.648.875-6.975a1.131 1.131 0 00-.022-.42.665.665 0 00-.283-.327 1.938 1.938 0 00-.445-.215c-.171-.056-.305-.103-.421-.124l.06-.485 4.542.572c.35.045.679.12 1 .23.308.111.597.265.865.475.25.195.46.44.594.736.134.299.182.64.134 1.032a2.025 2.025 0 01-.913 1.51c-.238.16-.504.274-.787.365a3.976 3.976 0 01-.93.182l-.01.062c.28.07.585.175.923.325.33.15.627.336.87.562zm-1.494-1.672c.198-.178.347-.374.443-.598a3.23 3.23 0 00.202-.817c.067-.531-.028-.963-.287-1.31-.257-.35-.701-.553-1.342-.633a31.808 31.808 0 00-.551-.066l-.57-.053c-.156 1.245-.31 2.491-.47 3.735.295.036.585.072.874.11a2.987 2.987 0 00.998-.02 1.51 1.51 0 00.702-.35zm.576 3.217c.07-.574-.067-1.064-.403-1.487-.346-.423-.88-.672-1.61-.764a28.652 28.652 0 00-.748-.087 14.039 14.039 0 00-.463-.042c-.145 1.145-.286 2.283-.43 3.424a.73.73 0 00.269.695c.216.174.537.287.96.34.684.09 1.237-.038 1.651-.392.416-.359.674-.911.773-1.684zm13.34 3.081h-2.675c-.582-.924-1.125-1.7-1.593-2.374-.479-.669-1.003-1.342-1.559-2.057h-1.014v3.102c0 .157.03.302.076.418.05.123.163.218.33.284.083.033.23.06.44.09.21.026.388.041.531.048v.49h-4.188v-.49c.11-.007.27-.026.49-.049a1.76 1.76 0 00.44-.09.597.597 0 00.304-.26.866.866 0 00.09-.442v-7.072c0-.157-.02-.302-.067-.43-.05-.12-.157-.216-.33-.28a2.598 2.598 0 00-.454-.115 3.536 3.536 0 00-.474-.064v-.49h4.575c.418 0 .81.038 1.181.124.37.091.699.224.997.414.286.187.523.416.691.717.17.296.258.653.258 1.075 0 .381-.058.708-.172.999a2.068 2.068 0 01-.52.75c-.204.206-.461.363-.752.513a6.034 6.034 0 01-.97.371c.482.643.899 1.172 1.222 1.611.315.437.724.961 1.187 1.59a2.946 2.946 0 001.049.934c.117.066.273.104.453.136.184.034.336.05.454.056-.002.16-.002.325-.002.49zm-3.674-7.287c0-.59-.18-1.052-.516-1.41-.34-.348-.83-.518-1.46-.518h-1.187v4.19h.915c.642 0 1.185-.192 1.606-.606.422-.412.644-.957.644-1.655zm15.086 6.559l-4.11.314a26.57 26.57 0 00-.037-.493 4.03 4.03 0 00.9-.206c.229-.088.343-.178.335-.28-.004-.042-.017-.088-.026-.15a.541.541 0 00-.052-.158c-.323-.708-.663-1.41-.989-2.121l-3.468.261a12.07 12.07 0 00-.25.864c-.064.249-.123.472-.17.677a4.179 4.179 0 00-.09.49 1.616 1.616 0 00-.012.305c.011.183.168.308.47.392.3.083.633.112 1.004.105l.037.491-3.722.282c-.011-.164-.022-.328-.037-.49a2.33 2.33 0 00.446-.115 1.447 1.447 0 00.433-.209c.18-.141.31-.28.403-.428a2.184 2.184 0 00.256-.578c.392-1.262.859-2.673 1.331-4.248.472-1.572.924-2.968 1.292-4.195l.558-.041c1.29 2.73 2.637 5.43 3.931 8.156.083.175.176.31.269.417.1.107.228.205.396.294.112.058.252.101.429.128.176.034.318.045.437.041.015.168.028.334.038.498zm-4.276-3.687c-.586-1.22-1.199-2.436-1.788-3.662-.385 1.3-.8 2.59-1.189 3.888zm18.332-7.715l-.499.135c-.193-.327-.493-.64-.896-.964-.406-.32-.756-.459-1.042-.429a6.87 6.87 0 00-.504.095c-.196.048-.41.101-.658.166l-1.601.436c.342 1.264.683 2.53 1.026 3.79.364-.101.733-.202 1.099-.3.328-.09.586-.191.75-.314a1.254 1.254 0 00.381-.442 1.43 1.43 0 00.125-.53 2.744 2.744 0 00-.032-.697l.504-.137c.34 1.24.675 2.477 1.009 3.712-.165.045-.336.09-.504.138a3.341 3.341 0 00-.318-.63c-.153-.223-.287-.38-.407-.466a1.02 1.02 0 00-.593-.206 2.666 2.666 0 00-.769.115l-1.097.299.88 3.25a.858.858 0 00.2.37c.087.098.213.156.381.192.079.018.236.011.47-.011a3.21 3.21 0 00.53-.068l.128.474-4.144 1.124-.129-.474c.135-.043.312-.11.53-.192.212-.084.355-.142.416-.194a.594.594 0 00.224-.336.943.943 0 00-.02-.435l-1.847-6.81a1.281 1.281 0 00-.18-.373c-.078-.095-.21-.155-.386-.187a2.834 2.834 0 00-.524-.023 2.755 2.755 0 00-.517.056l-.128-.475 7.5-2.033.64 2.37m11.046-.836c.363.904.716 1.81 1.08 2.71l-6.978 3.37-.213-.442c.098-.056.235-.14.42-.258.175-.11.297-.202.353-.269a.592.592 0 00.165-.373.907.907 0 00-.112-.432c-1.014-2.101-2.027-4.203-3.044-6.306a1.091 1.091 0 00-.25-.339.594.594 0 00-.416-.116 1.86 1.86 0 00-.476.044 2.251 2.251 0 00-.47.124c-.068-.146-.143-.297-.211-.443l3.765-1.819.213.444a3.334 3.334 0 00-.422.278 2.552 2.552 0 00-.359.3.48.48 0 00-.168.394c0 .146.038.287.106.422l2.856 5.917c.13.27.242.475.347.61a.616.616 0 00.363.262c.126.035.294.012.497-.066.204-.067.476-.183.817-.351.157-.073.311-.159.48-.247.166-.084.314-.184.453-.276.134-.1.25-.201.355-.305a.687.687 0 00.193-.293c.075-.275.148-.655.186-1.16.034-.492.051-.881.023-1.164.149-.07.298-.143.446-.213m5.22-9.69a4.883 4.883 0 011.71.878 6 6 0 011.398 1.636c.397.672.638 1.34.75 2.012a4.85 4.85 0 01-.078 1.93 4.608 4.608 0 01-.781 1.646 4.555 4.555 0 01-1.393 1.24c-.593.349-1.202.571-1.839.64-.639.067-1.246.032-1.837-.155a4.72 4.72 0 01-1.677-.896 5.864 5.864 0 01-1.347-1.57 5.796 5.796 0 01-.76-2.03 5.077 5.077 0 01.07-1.92 4.626 4.626 0 01.795-1.663 4.58 4.58 0 011.38-1.235 4.685 4.685 0 011.784-.629 4.486 4.486 0 011.826.112zm2.628 6.504a4.587 4.587 0 00-.23-1.517 8.045 8.045 0 00-.745-1.611 8.416 8.416 0 00-1.109-1.493 4.585 4.585 0 00-1.237-.933 2.789 2.789 0 00-1.297-.297c-.436.002-.881.14-1.31.392-.475.283-.825.63-1.026 1.053a3.04 3.04 0 00-.31 1.358c.01.468.093.96.274 1.484.18.528.419 1.048.723 1.564a8.624 8.624 0 001.064 1.45c.37.398.784.706 1.211.932a2.83 2.83 0 001.303.328c.444 0 .896-.127 1.355-.397a2.693 2.693 0 00.984-.985c.221-.403.347-.85.35-1.328zm12.29-6.673c-.725.515-1.456 1.033-2.182 1.546-1.003-.416-1.9-.734-2.67-1.011-.778-.275-1.6-.515-2.457-.778-.28.196-.553.392-.832.587l1.794 2.53c.09.126.201.222.302.296.118.072.26.078.434.039.09-.019.221-.082.412-.181.19-.097.336-.187.459-.269l.285.401c-1.139.81-2.278 1.615-3.416 2.423-.096-.13-.19-.266-.286-.398.09-.07.21-.176.373-.321a1.826 1.826 0 00.307-.33.57.57 0 00.094-.388.868.868 0 00-.176-.41c-1.366-1.924-2.729-3.85-4.09-5.771a1.232 1.232 0 00-.302-.307c-.112-.073-.255-.091-.428-.04a3.582 3.582 0 00-.863.391l-.285-.401c1.243-.881 2.486-1.76 3.73-2.643a5.32 5.32 0 011.034-.58 3.16 3.16 0 011.053-.242 2.05 2.05 0 01.975.182c.317.141.593.387.834.728.222.31.37.612.437.918.074.302.078.601.017.909-.05.285-.168.558-.322.851a5.603 5.603 0 01-.578.863c.769.249 1.414.436 1.932.606.508.176 1.148.366 1.887.614a2.923 2.923 0 001.396.153 1.52 1.52 0 00.448-.152c.17-.074.305-.156.404-.216.091.134.19.269.281.403zm-7.207-3.819c-.344-.484-.761-.759-1.238-.853-.482-.085-.98.056-1.494.42l-.97.688a6420.468 6420.468 0 002.426 3.422l.75-.532c.525-.37.852-.845.955-1.422.105-.583-.027-1.157-.43-1.723zm15.372-2.34c.272.92.545 1.845.824 2.766l-7.72 2.861c-.055-.151-.115-.306-.17-.459.13-.056.302-.136.504-.25.205-.11.34-.184.396-.243a.683.683 0 00.198-.36.86.86 0 00-.064-.425c-.817-2.198-1.629-4.392-2.446-6.593a1.139 1.139 0 00-.213-.353c-.09-.09-.224-.134-.401-.152a2.38 2.38 0 00-.523.028 2.498 2.498 0 00-.509.098c-.056-.151-.116-.307-.17-.459l7.193-2.67.817 2.213c-.163.063-.33.124-.489.183-.207-.302-.534-.57-.952-.832-.434-.269-.782-.361-1.058-.299-.14.031-.305.073-.493.138-.198.068-.409.139-.652.228l-1.458.541c.448 1.212.902 2.43 1.35 3.64.35-.128.695-.258 1.051-.389.332-.123.572-.242.706-.37a1.023 1.023 0 00.29-.457 1.758 1.758 0 00.06-.597 3.355 3.355 0 00-.085-.637l.493-.182c.443 1.198.886 2.396 1.333 3.595-.166.064-.333.123-.493.183a3.7 3.7 0 00-.383-.61c-.161-.197-.302-.337-.43-.41a1.014 1.014 0 00-.58-.156 2.437 2.437 0 00-.714.175l-1.053.39c.343.92.68 1.837 1.022 2.756.103.274.205.481.303.63a.633.633 0 00.361.276c.141.045.32.033.522-.016.207-.056.493-.146.853-.278.145-.056.332-.123.571-.21.235-.088.435-.165.585-.252.157-.081.325-.176.484-.286.158-.116.264-.218.302-.325.127-.28.227-.675.287-1.176.06-.5.097-.86.078-1.075.157-.061.312-.12.473-.179m8.288-6.79a4.771 4.771 0 011.232 1.48 5.99 5.99 0 01.642 2.053 5.678 5.678 0 01-.097 2.144 4.862 4.862 0 01-.826 1.747 4.563 4.563 0 01-1.362 1.204 4.627 4.627 0 01-1.764.593c-.689.092-1.334.056-1.942-.13-.613-.184-1.164-.456-1.635-.859a4.78 4.78 0 01-1.187-1.478 5.678 5.678 0 01-.63-1.976c-.104-.79-.067-1.509.095-2.164a5.05 5.05 0 01.822-1.738 4.64 4.64 0 013.137-1.814 4.741 4.741 0 011.887.118 4.517 4.517 0 011.628.822zm-.127 7.015a4.603 4.603 0 00.388-1.488 8.493 8.493 0 00-.063-1.773 8.147 8.147 0 00-.437-1.807 4.502 4.502 0 00-.763-1.342 2.822 2.822 0 00-1.079-.78c-.408-.169-.865-.218-1.357-.155-.554.073-1.012.256-1.365.568a2.99 2.99 0 00-.817 1.127 4.832 4.832 0 00-.325 1.471 8.118 8.118 0 00.05 1.721 8.16 8.16 0 00.414 1.75c.18.512.446.954.752 1.33.299.378.654.63 1.064.813.409.175.881.236 1.406.164a2.671 2.671 0 001.286-.518 2.778 2.778 0 00.846-1.085z" stroke-width=".784"/><path d="M468.871 261.938v61.881c0 12.307-1.708 61.314-54.354 80.348-52.757-19.034-54.466-68.036-54.466-80.348v-61.88z" fill="none" stroke-width="1.139"/></g><path d="M407.316 101.06c-4.083.034-8.6 1.993-13.238 6.97v.003c11.159-3.276 16.084 4.126 20.738 8.848a185.144 185.144 0 00-40.187 4.469c-4.316-9.542-19.574-21.154-31.426-3.579 10.797-5.1 16.869 1.972 22.32 5.86a183.334 183.334 0 00-32.113 12.3c-.036-.074-.06-.17-.097-.242-4.452-8.508-27.624-18.889-33.079 4.598 11.419-11.846 22.776 1.254 29.551-2.516a184.921 184.921 0 00-29.312 19.047c-.048-.06-.089-.142-.137-.199-6.19-7.357-31.075-12.548-31.305 11.555 8.411-13.732 21.951-4.066 27.946-8.508a185.828 185.828 0 00-26.551 27.207c-.142-.157-.278-.352-.422-.492-6.901-6.704-32.184-9.393-29.98 14.61 7.176-14.894 22.254-5.715 27.406-11.645-.787.905-1.198 2.046-1.418 3.324a184.53 184.53 0 00-18.774 31.965c-8.516-4.559-33.479-.333-24.824 22.14l.004.004c2.841-16.267 19.866-11.484 23.203-18.574-.035.074-.043.156-.074.23a183.218 183.218 0 00-11.586 37.387c-10.494.256-27.607 10.189-15.195 27.782-.887-11.867 8.005-14.91 13.629-18.559a186.012 186.012 0 00-1.895 26.48c0 2.668.068 5.318.18 7.957-9.473 4.117-21.91 21.338-2.274 32.059-5.556-9.389-.484-15.728 3.047-21.137a183.67 183.67 0 006.738 33.97c-8.868 5.709-17.914 21.677.735 31.05-5.947-9.306-.914-15.855 2.43-21.422a183.823 183.823 0 0015.167 32.05c-7.113 7.689-11.815 26.56 9.395 30.118-8.65-7.293-5.486-15.216-3.992-21.59a185.65 185.65 0 0023.93 28.734c-6.703 8-10.4 27.5 11.218 29.649-10.412-7.64-5.505-17.171-5.117-23.922a185.209 185.209 0 0034.426 24.414c-1.884 10.32 3.712 27.907 23.39 20.719-10.644-1.969-12.236-9.75-14.003-15.906a183.26 183.26 0 0038.503 13.355c-.184 10.45 6.906 25.133 24.891 17.156-10.944-1.273-12.949-9.17-15.176-15.238a185.716 185.716 0 0031.16 2.633c2.02 0 4.028-.045 6.032-.11 2.28 10.232 14.421 24.377 29.738 10.016-11.618 2.59-15.955-5.553-20.375-10.55a183.776 183.776 0 0040.277-7.91c6.32 8.407 21.669 15.974 30.614-1.946-8.7 5.582-15.085 1.618-20.48-1.594a183.942 183.942 0 0030.62-15.074c7.887 6.427 30.056 9.206 29.73-13.504-5.755 9.918-14.358 8.049-20.988 7.785a185.68 185.68 0 0029.282-25.238c9.283 4.964 28.409 4.982 27.132-16.07-5.284 10.155-13.95 8.697-20.582 8.73a185.093 185.093 0 0021.727-31.89c10.331 1.757 29.212-4.83 20.25-24.485h-.004c-1.252 11.075-9.477 12.97-15.621 15.262a183.238 183.238 0 0013.004-38.387c10.32-2.236 24.597-14.208 10.25-29.457 2.113 9.632-3.303 14.181-8.098 17.965a185.943 185.943 0 002.14-28.192c0-1.317-.022-2.63-.05-3.941 10.051-3.21 23.152-16.577 7.293-30.355 3.456 10.532-3.14 15.64-7.773 20.23a184.16 184.16 0 00-4.993-30.871c8.87-5.284 18.98-23.913-1.851-32.078 7.135 9.167 1.91 16.419-.832 22.445a183.49 183.49 0 00-12.895-31.176c7.492-7.267 13.186-26.371-8.156-30.648 8.499 7.638 4.928 15.539 3.25 21.894a185.317 185.317 0 00-19.324-26.66c3.968-9.72 2.134-28.003-18.578-25.027 8.755 3.601 9.757 10.137 10.175 16a185.672 185.672 0 00-23.77-20.195c2.861-9.903-2.327-30.12-23.144-22.32v.003c11.035 1.947 12.43 10.183 14.336 16.41a183.977 183.977 0 00-33.027-16.457c1.754-10.177-5.476-29.538-25.305-19.757 12.344.926 13.755 10.719 16.73 16.753a183.936 183.936 0 00-47.175-8.656c-1.593-6.959-8.437-16.132-17.39-16.058zm7.832 20.41c.917 0 1.83.022 2.743.036-6.205 3.72-11.544 15.967-24.887 12.55 14.374 16.239 30.152-2.277 31.894-12.32a179.5 179.5 0 0146.25 8.621c-6.938 2.125-15.809 9.99-26.316 2.614 7.518 19.959 28.42 8.827 34.02.101a179.423 179.423 0 0135.765 18.344c-7.237.404-17.647 9.28-28.156.207 5.43 20.474 27.121 11.724 33.727 3.64 9.762 7.023 18.787 15 26.949 23.793.405 1.13.986 2.11 1.922 2.829-6.244-4.792-20.923 5.851-30.512-6.989.913 22.413 26.746 16.679 33.422 9.57a180.429 180.429 0 0119.719 28.028c-6.29-3.578-20.032-1.414-24.106-14.734-6.515 20.705 17.816 24.397 27.293 20.582a178.881 178.881 0 0113.188 32.843c-5.906-4.18-18.883-4.915-20.473-18.25-9.793 18.687 11.911 26.675 22.34 25.2a180.013 180.013 0 015.062 34.8c-2.314-6.924-17.557-11.5-14.195-26.066-16.548 15.241 4.566 30.974 14.363 31.422.018 1.077.04 2.153.04 3.234 0 11.536-1.097 22.811-3.169 33.742-.402.738-.679 1.512-.722 2.364.4-7.818-16.779-13.71-11.63-28.852-17.977 13.5 1.355 31.224 11.07 32.688a178.734 178.734 0 01-14.308 40.16c-.424-7.185-10.716-17.134-2.054-28.399-20.76 6.862-9.518 28.651-.856 34.024a180.391 180.391 0 01-23.34 33.367c2.348-6.816-3.887-19.909 8.36-27.426-22.392-.966-19.05 24.598-12.578 32.047a180.875 180.875 0 01-31.145 26.25c1.549-7.034-2.553-19.092 9.176-25.578-20.696-1.836-20.337 20.113-15.297 29.488a179.218 179.218 0 01-33.563 15.93c-1.086-.257-2.15-.302-3.203.031 7.516-2.378 7.023-20.409 23.118-20.953-19.284-12.09-29.224 12.843-26.88 22.14.081.319.231.658.352.989a179.473 179.473 0 01-40.535 7.578c6.481-3.235 12.647-15.244 25.79-10.934-13.728-17.804-31.557 1.668-32.895 11.293-1.908.06-3.82.102-5.743.102a181.12 181.12 0 01-33.785-3.172c-.604-.692-1.3-1.25-2.164-1.594 7.32 2.92 18.515-11.29 31.27-1.535-7.101-21.51-30.772-8.574-34.93.074a10.905 10.905 0 00-.633 1.711 178.799 178.799 0 01-43.492-16.097c-.025-.012-.041-.035-.066-.047 7.107 3.404 19.238-10.023 31.3.566-5.588-21.806-29.801-10.758-34.746-2.422a180.432 180.432 0 01-31.636-22.3c7.086 1.378 17.742.288 22.39 11.375 4.421-21.29-20.271-22.526-29.273-17.758a180.802 180.802 0 01-25.93-31.793c6.183 3.77 20.394.731 25.004 14.238 5.92-21.151-19.18-23.887-28.266-19.555a179.077 179.077 0 01-16.593-36.93c2.533 7.321 20.434 7.117 20.84 22.981 12.335-19.007-12.622-29.087-22.036-26.87a179.486 179.486 0 01-6.8-37.31c4.962 5.243 18.638 7.29 18.511 21.165 12.069-17.268-8.318-27.902-18.87-27.797a182.924 182.924 0 01-.15-6.98c0-9.446.733-18.722 2.134-27.774 2.613 6.715 13.012 14.425 6.937 26.414 19.234-10.61 3.843-30.12-5.66-33.652a178.73 178.73 0 018.258-28.88c2.283 6.343 5.37 13.937-1.32 21.637 18.97-5.04 12.918-23.631 5.46-31.64a179.673 179.673 0 0115.153-27.106c.429 6.337.527 13.558-7.274 18.684 19.158.239 18.901-18.325 14.242-28.254a181.022 181.022 0 0122.102-23.648c-.304 6.935.356 15.828-9.273 20.859 19.389 2.184 20.716-17.04 16.824-27.258a180.343 180.343 0 0123.207-15.797c-1.788 6.696-3.108 15.453-13.551 18.293 18.44 6.267 23.91-12.178 22.34-22.992a178.793 178.793 0 0134-12.875c-5.444 4.753-8.862 17.401-22.442 16.11 17.175 14.154 30.057-7.978 29.551-17.852a180.769 180.769 0 0139.367-4.324z" fill="#338a00" stroke="#075400" stroke-width=".596"/><path d="M305.125 381.948c-.341 1.48-.909 3.533-1.14 6.156 0 .569-.568 3.646 1.14 3.758 1.255.115 1.596-3.192 1.596-3.192s-1.142 3.647.34 4.104c2.053.451 2.279-3.99 2.279-3.99-.228 1.255-1.596 4.447.343 4.783 2.05.345 2.62-4.33 2.62-4.33s-1.709 4.675.341 4.788c1.938.112 1.938-4.558 1.938-4.558s-1.027 5.585 1.708 5.13c1.478-.23 1.823-2.168 2.165-3.307.454-1.707 1.48-3.872.228-7.406-.91-2.62-.568-3.304-.568-3.304s-3.192 2.394-5.697 3.988c-1.143.683-7.296-2.621-7.296-2.621zm33.276-4.906c-.569-.344-.455 2.052-.683 3.188-.114 1.142.23 3.648 4.104 3.422 3.757-.344 7.52-1.14 9.912-.572 2.394.684 5.924.798 7.864.798 1.938 0 3.192-.226 4.1-.571.8-.339 2.508.459 3.304.459.8 0 2.051-1.255 1.937-2.053-.114-1.483-1.478-1.483-3.42-1.595-1.823-.227-4.328-.571-5.58-1.026-1.255-.457-3.533-1.71-6.382-2.28 0 0-5.469.23-6.606.23-1.142 0-7.865.34-8.55 0z" fill="#ad7d5a" stroke="#000" stroke-width=".57"/><path d="M320.055 385.14l-.228-5.242 2.165 1.826.57-3.99c.91-.228 2.393 1.597 2.393 1.597l-.23-3.988 3.305 3.646s-.228-3.078.909-4.9c0 0 2.506 2.165 2.506 4.672 0 2.17 2.165-3.077 2.165-3.077l1.824 5.813 1.478-2.167 1.255 4.555 2.733-3.987 2.165 4.673 4.9-.344.572 2.736 2.164-2.393 2.85 1.823s2.391-.683 3.646-.683c1.254 0 2.735 1.594 2.735 1.594s.91-1.59 1.823-2.162c.91-.57 2.166.91 2.504 1.821l1.825-3.304s2.394 2.395 2.733 3.304c0 0 .343-2.732.913-3.646.571-.91 1.478.343 2.165 1.483l1.48-4.9s1.595.338 2.733 2.163c1.255 1.821 1.255-2.737 1.255-2.737s2.732 3.65 3.42 6.154m68.6-.912s.91-2.503 2.166-3.758c0 0 2.392 2.851 2.392 3.76 0 0 .683-.341 1.937-1.25l1.823 1.82 2.166-1.479 2.052 1.823 3.761-1.595 1.479 1.594 5.809-.681 2.169.909 2.05-2.617 1.937 2.048 3.076-3.074s1.48 1.249 1.822 2.164c0 0 2.507-1.255 3.078-2.164 0 0 2.39-.912 2.732.566 0 0 1.479-1.14 1.367-2.393-.116-1.252 1.708-.34 2.277 1.257 0 0 .684-2.51 2.51-2.739 0 0 1.25 1.483.907 4.219 0 0 2.735-2.163 3.99-2.393 0 0 .57 3.074-.341 5.813 0 0 2.85-4.674 3.418-3.078.228.91.911 3.99.228 6.152l2.507-1.595.911 3.08 2.733-.571m-128.033 9.28s2.051-3.416 3.304-4.33c0 0 2.733 2.168 3.645 4.901 0 0 .344-1.821 1.255-3.416 0 0 3.418 1.59 3.987 3.76 0 0 1.254-2.166 2.165-2.733.911-.688 1.824 2.39 1.824 4.214 0 0 2.165-2.281 3.42-2.394 0 0 2.392 1.139 3.075 5.13 0 0 2.281-2.166 3.077-1.826 0 0 2.734 1.826 2.05 4.33-.34 1.367 2.736-1.591 6.495-2.504l3.304 2.505s3.077-4.101 3.987-5.471c0 0 2.51.91 2.51 2.395 0 0 1.14-4.335 2.049-4.787.91-.569 2.164 1.367 2.164 2.621 0 0 .343-3.304 2.168-3.989 0 0 1.822 1.252 1.822 2.509 0 0 1.938-3.76 3.42-4.676" fill="none" stroke="#060" stroke-width=".57"/><path d="M320.055 385.14l-.228-5.242 2.165 1.826.57-3.99c.91-.231 2.393 1.597 2.393 1.597l-.23-3.992 3.305 3.648s-.228-3.078.909-4.903c0 0 2.506 2.167 2.506 4.673 0 2.17 2.165-3.078 2.165-3.078l1.824 5.813 1.479-2.165 1.254 4.557 2.736-3.989 2.162 4.675 4.9-.344.571 2.733 2.164-2.391 2.85 1.822s2.393-.683 3.647-.683 2.735 1.598 2.735 1.598.91-1.598 1.822-2.173c.91-.565 2.168.915 2.505 1.826l1.825-3.304s2.392 2.395 2.733 3.304c0 0 .34-2.733.91-3.647.572-.91 1.48.344 2.166 1.483l1.478-4.9s1.598.34 2.734 2.166c1.252 1.822 1.252-2.733 1.252-2.733s2.733 3.645 3.416 6.15c0 0-18.866 6.478-32.172 4.707-15.662-2.085-28.56-5.047-28.56-5.047m129.342-.569s.91-2.508 2.167-3.763c0 0 2.392 2.853 2.392 3.763 0 0 .681-.341 1.937-1.254l1.822 1.822 2.167-1.478 2.053 1.82 3.757-1.596 1.48 1.596 5.812-.68 2.165.91 2.052-2.622 1.937 2.05 3.076-3.077s1.48 1.252 1.822 2.167c0 0 2.507-1.25 3.078-2.167 0 0 2.393-.91 2.732.57 0 0 1.482-1.142 1.37-2.391-.114-1.253 1.708-.344 2.278 1.25 0 0 .683-2.504 2.504-2.732 0 0 1.253 1.476.911 4.218 0 0 2.733-2.17 3.987-2.397 0 0 .571 3.077-.34 5.815 0 0 2.848-4.675 3.42-3.078.228.91.911 3.987.228 6.15l2.505-1.593.91 3.078 2.732-.571s-16.176 2.478-31.416 1.024c-15.242-1.453-29.543-6.835-29.54-6.835m-11.266 11.314c.74-.458-5.09 11.993-19.23 12.656-19.67.92-36.487-8.893-36.487-8.893s2.052-3.418 3.304-4.332c0 0 2.733 2.167 3.646 4.9 0 0 .343-1.824 1.254-3.417 0 0 3.419 1.59 3.987 3.76 0 0 1.255-2.166 2.168-2.733.91-.687 1.823 2.39 1.823 4.217 0 0 2.164-2.283 3.418-2.397 0 0 2.394 1.14 3.078 5.13 0 0 2.279-2.164 3.075-1.826 0 0 2.735 1.826 2.05 4.33-.341 1.37 2.734-1.59 6.496-2.503l3.304 2.504s3.075-4.1 3.987-5.472c0 0 2.509.915 2.509 2.397 0 0 1.14-4.331 2.05-4.786.91-.57 2.163 1.366 2.163 2.623 0 0 .344-3.306 2.167-3.99 0 0 1.824 1.252 1.824 2.51-.004-.003 1.933-3.764 3.416-4.678z" fill="#5ac800"/></g></svg>