<svg xmlns="http://www.w3.org/2000/svg" viewBox="0 0 1000 600"><path d="M0 0h1000v600H0z" fill="red"/><path d="M454.869 259.272c-11.177-6.943-23.032-12.701-35.225-17.443-10.5 15.58-16.596 34.208-16.596 54.36 0 9.992 1.524 19.645 4.403 28.79 5.08-11.685 11.516-23.031 19.306-33.87a188.215 188.215 0 0128.112-31.837zm-29.806-24.556c13.21 4.573 25.91 10.5 38.104 17.443 2.71-2.37 5.588-4.403 8.298-6.435-12.87-7.113-26.588-12.87-40.644-17.274-2.032 2.033-4.064 4.065-5.758 6.266zm11.855-12.023c15.241 4.064 29.805 9.652 43.522 16.934 3.218-2.032 6.436-3.895 9.484-5.757-14.564-7.452-29.975-12.87-45.894-16.766a57.437 57.437 0 00-7.112 5.589zm14.394-10.161c16.766 3.387 33.023 8.806 48.265 16.257 15.41-7.451 31.668-12.87 48.264-16.257-14.056-8.298-30.652-13.04-48.264-13.04s-34.04 4.742-48.265 13.04zm103.81 4.742a209.349 209.349 0 00-45.893 16.596 283.47 283.47 0 019.484 5.757c13.886-7.282 28.45-12.87 43.522-16.934-2.201-2.033-4.572-3.895-7.112-5.42zm13.21 11.346c-14.056 4.234-27.604 9.991-40.644 17.104a158.93 158.93 0 018.468 6.435c12.023-6.943 24.725-12.87 37.934-17.443-1.694-2.201-3.557-4.233-5.758-6.096zm11.177 13.378a198.118 198.118 0 00-35.055 17.274c10.33 9.314 19.644 19.983 28.112 31.837a204.81 204.81 0 0119.305 33.87c2.71-9.314 4.234-18.798 4.234-28.79 0-20.152-6.097-38.78-16.596-54.19zm-8.298 66.385c-10.161-16.427-22.354-30.991-35.902-43.353-3.048 2.201-6.266 4.403-9.145 6.604 22.862 21.338 41.321 48.095 53.006 79.255 2.71-4.064 5.25-8.298 7.282-12.532-4.234-10.16-9.314-20.152-15.241-29.974zm-53.684-44.03c3.049-2.202 6.097-4.404 9.315-6.436-2.71-2.37-5.589-4.572-8.468-6.774-3.217 2.032-6.435 4.064-9.653 6.266h.17c2.879 2.202 5.758 4.572 8.636 6.943zm-17.95-13.549c3.217-2.032 6.604-4.064 9.652-5.927-3.217-2.032-6.435-4.064-9.652-5.927-3.218 1.863-6.266 3.895-9.484 5.927 3.218 1.863 6.266 3.895 9.484 5.927zm-9.145 6.605c-3.218-2.202-6.266-4.234-9.484-6.266l-8.636 6.605c3.217 2.201 6.265 4.233 9.314 6.435a173.309 173.309 0 018.806-6.774zm9.145 6.774c-2.88 2.201-5.758 4.572-8.806 7.113 3.048 2.37 5.927 4.91 8.806 7.45 2.879-2.54 5.757-5.08 8.806-7.45-2.88-2.371-5.758-4.912-8.806-7.113zm0 31.668a213.913 213.913 0 00-33.362 47.587c-6.266 11.854-11.177 24.217-14.903 36.579 14.226 7.96 30.652 12.701 48.265 12.701s34.039-4.742 48.264-12.701c-3.726-12.362-8.637-24.725-14.903-36.58-9.145-17.78-20.322-33.7-33.361-47.586zm-55.885 64.183c11.007-28.112 27.265-52.667 47.248-72.99-2.88-2.709-5.758-5.249-8.806-7.958-23.2 22.523-41.83 50.465-53.176 82.81a94.433 94.433 0 0010.33 9.823c1.356-3.895 2.88-7.79 4.404-11.685zm64.521-72.99c19.983 20.323 36.24 44.878 47.418 72.99 1.524 3.895 2.879 7.79 4.233 11.685 3.726-3.048 7.282-6.266 10.5-9.822-11.516-32.346-30.144-60.288-53.345-82.811-3.048 2.71-5.927 5.25-8.806 7.959zm-88.23 63.845c11.685-31.16 30.144-57.748 53.175-79.085a186.939 186.939 0 00-9.314-6.774c-13.548 12.531-25.74 27.095-35.902 43.522a215.114 215.114 0 00-15.24 29.805c2.031 4.403 4.571 8.468 7.281 12.532zm80.102-159.187c59.61 0 108.213 48.603 108.213 108.213 0 59.61-48.603 108.214-108.213 108.214-59.61 0-108.214-48.603-108.214-108.214 0-59.61 48.603-108.213 108.214-108.213zm47.756-23.709c-3.048 3.557-6.435 8.129-9.822 15.41-.847-1.862-.847-4.063-.34-6.434.848-7.79 3.05-12.532 7.114-19.137 1.354-2.37 2.71-4.403 3.386-6.943 2.54-7.62 2.033-17.781-3.556-25.74.847 8.975-1.863 16.426-4.91 20.998-.509.847-1.017 1.355-1.694 2.033-3.218 3.217-6.774 6.435-11.347 13.886-2.54 4.064-5.08 8.975-7.451 16.765-1.016-1.693-1.355-3.725-1.185-6.096-.34-7.96 1.016-12.87 3.895-20.152 1.016-2.54 2.032-4.742 2.37-7.452 1.186-7.79-.846-17.781-7.62-24.725 2.201 8.637.846 16.427-1.524 21.508-.508.846-.847 1.524-1.355 2.201-2.71 3.726-5.589 7.451-9.145 15.41-1.693 4.573-3.556 9.823-4.572 17.782-1.355-1.524-2.033-3.556-2.202-5.927-1.524-7.79-1.016-12.87.678-20.49.677-2.541 1.354-4.912 1.185-7.622 0-7.959-3.556-17.442-11.346-23.37 3.556 8.298 3.387 16.258 1.862 21.677-.338.677-.677 1.524-1.016 2.201-2.032 4.234-4.403 8.299-6.604 16.766-1.016 4.742-2.032 10.33-1.863 18.29-1.355-1.355-2.37-3.218-3.048-5.42-2.71-7.62-3.049-12.531-2.371-20.49.17-2.71.339-5.081 0-7.621-1.355-7.96-6.435-16.766-14.903-21.338 4.742 7.62 5.758 15.58 5.08 20.999l-.507 2.54c-1.355 4.403-3.049 8.806-3.895 17.612-.34 4.742-.508 10.33 1.016 18.29-1.694-1.186-2.88-2.879-3.895-4.911-3.895-7.113-4.911-12.024-5.589-19.814-.17-2.71-.339-5.08-1.355-7.62-2.37-7.621-8.806-15.58-17.95-18.629 5.927 6.605 8.298 14.225 8.298 19.814 0 .847 0 1.693-.17 2.54-.677 4.572-1.524 9.314-1.016 17.951.508 4.742 1.186 10.33 3.895 17.95-1.863-.846-3.387-2.37-4.742-4.233-4.91-6.266-6.604-11.007-8.467-18.628-.677-2.71-1.185-4.911-2.54-7.451-3.557-6.944-11.177-13.887-20.66-15.58 6.773 5.757 10.33 13.04 11.346 18.458.169.847.169 1.694.169 2.54.17 4.573 0 9.315 1.863 17.952 1.185 4.572 2.71 9.991 6.604 16.934-1.862-.508-3.556-1.693-5.25-3.387-5.927-5.419-8.467-9.822-11.346-17.104-1.016-2.54-2.032-4.741-3.556-6.943-4.742-6.266-13.21-11.854-23.031-12.024 7.79 4.573 12.362 11.008 14.225 16.258l.508 2.54c.847 4.572 1.355 9.314 4.572 17.443 1.863 4.403 4.403 9.483 9.314 15.75-2.032-.17-3.895-1.186-5.757-2.541-6.605-4.403-9.823-8.467-14.056-15.072-1.355-2.37-2.54-4.403-4.573-6.266-5.588-5.588-14.902-9.822-24.555-8.467 8.298 3.387 13.886 9.144 16.596 14.056.339.677.677 1.524 1.016 2.37 1.524 4.234 2.71 8.807 7.113 16.427 2.54 4.065 5.758 8.637 11.685 14.225-2.032 0-4.065-.677-6.097-1.693-7.282-3.387-11.007-6.774-16.088-12.701-1.863-2.032-3.387-3.895-5.588-5.589-6.436-4.572-16.258-7.282-25.572-4.403 8.806 2.032 15.241 6.774 18.459 11.177.677.678 1.016 1.355 1.355 2.202 2.201 4.064 4.234 8.467 9.822 15.072 3.048 3.725 6.943 7.79 13.548 12.362-1.863.339-3.895 0-6.266-.847-7.62-2.032-11.854-4.91-17.782-9.991-2.032-1.694-3.895-3.218-6.265-4.572-7.113-3.557-17.274-4.573-26.08-.34 8.975.509 16.088 4.404 20.152 8.13.508.677 1.016 1.185 1.524 2.032 2.88 3.556 5.42 7.62 12.024 13.378 3.557 3.048 8.129 6.435 15.41 9.992-1.862.677-4.063.677-6.265.17-7.96-.848-12.532-3.05-19.306-7.114-2.37-1.354-4.403-2.71-6.943-3.387-7.62-2.54-17.612-2.032-25.572 3.557 8.807-.847 16.427 1.863 21 4.91.677.509 1.354 1.017 1.862 1.694 3.387 3.218 6.605 6.774 13.887 11.347 4.064 2.54 9.145 5.25 16.765 7.451-1.693 1.016-3.725 1.355-6.096 1.355-7.96.17-12.87-1.186-20.152-4.065-2.54-1.016-4.742-2.032-7.452-2.37-7.79-1.186-17.781.846-24.725 7.62 8.637-2.201 16.597-.847 21.508 1.524.846.508 1.524.847 2.201 1.355 3.726 2.71 7.451 5.589 15.58 9.145 4.403 1.693 9.653 3.556 17.612 4.572-1.524 1.355-3.556 2.032-5.757 2.202-7.96 1.693-12.87 1.016-20.66-.678-2.541-.677-4.912-1.185-7.622-1.185-7.959 0-17.442 3.556-23.2 11.346 8.128-3.556 16.088-3.387 21.507-1.862.847.338 1.524.677 2.37 1.016 4.065 2.032 8.299 4.403 16.766 6.604 4.573 1.016 10.161 2.032 18.12 1.863-1.354 1.355-3.217 2.37-5.419 3.048-7.451 2.71-12.531 3.049-20.321 2.371-2.71-.17-5.08-.339-7.79 0-7.79 1.355-16.597 6.435-21.169 15.072 7.451-4.911 15.41-5.927 21-5.25.846.17 1.523.339 2.37.508 4.403 1.525 8.806 3.049 17.612 3.895 4.742.34 10.33.508 18.29-1.016-1.186 1.694-2.879 2.88-4.911 3.895-6.943 3.895-12.024 4.911-19.814 5.589-2.71.338-5.08.508-7.62 1.355-7.621 2.37-15.411 8.806-18.629 17.95 6.774-5.927 14.395-8.128 19.983-8.298.847 0 1.694 0 2.54.17 4.403.677 9.145 1.524 17.951 1.016 4.742-.339 10.33-1.186 17.782-3.895-.678 1.863-2.202 3.387-4.234 4.742-6.266 4.91-11.007 6.604-18.628 8.467-2.54.677-4.911 1.185-7.282 2.54-7.113 3.557-13.887 11.177-15.58 20.66 5.588-6.773 12.87-10.33 18.29-11.346.846-.169 1.693-.169 2.54-.169 4.572-.17 9.483 0 17.95-1.863 4.573-1.185 9.992-2.71 17.105-6.604-.508 1.862-1.863 3.725-3.557 5.25-5.419 5.927-9.822 8.467-17.104 11.346-2.37 1.185-4.572 2.032-6.774 3.556-6.435 4.742-12.023 13.21-12.193 23.031 4.573-7.79 11.177-12.362 16.427-14.225.847-.17 1.524-.339 2.37-.508 4.573-.847 9.315-1.355 17.444-4.572 4.403-1.863 9.483-4.403 15.918-9.145-.338 1.863-1.185 3.726-2.71 5.588-4.402 6.605-8.297 9.823-15.071 14.056-2.202 1.355-4.234 2.54-6.266 4.573-5.588 5.588-9.653 14.902-8.298 24.555 3.218-8.298 8.975-13.886 13.887-16.596.846-.339 1.524-.677 2.37-1.016 4.403-1.355 8.976-2.71 16.427-7.113 4.065-2.54 8.637-5.758 14.225-11.685.17 2.032-.508 4.065-1.693 6.097-3.387 7.282-6.774 11.007-12.701 16.088-2.032 1.863-3.895 3.387-5.42 5.588-4.572 6.436-7.281 16.258-4.402 25.572 1.862-8.806 6.604-15.241 11.177-18.459.677-.508 1.354-1.016 2.032-1.355 4.064-2.201 8.467-4.234 15.241-9.822 3.556-3.048 7.62-6.943 12.193-13.548.339 1.863 0 4.064-.677 6.266-2.202 7.62-4.911 11.854-10.161 17.782-1.694 2.032-3.218 3.895-4.403 6.435-3.556 7.112-4.742 17.104-.508 25.91.677-8.975 4.403-16.088 8.298-19.983.508-.677 1.185-1.185 1.863-1.694 3.725-2.878 7.62-5.419 13.378-12.023 3.048-3.557 6.435-8.129 9.992-15.41.677 1.862.677 4.063.338 6.265-1.016 7.96-3.048 12.532-7.112 19.306-1.524 2.37-2.71 4.403-3.557 6.943-2.37 7.62-1.862 17.781 3.726 25.74-.847-8.975 1.694-16.595 4.911-21.168.508-.677 1.016-1.354 1.524-1.862 3.218-3.387 6.774-6.605 11.516-13.887 2.37-4.064 5.08-9.145 7.282-16.765 1.016 1.693 1.355 3.725 1.355 6.096.338 7.96-1.016 12.87-4.065 20.152-1.016 2.54-1.862 4.742-2.37 7.452-1.186 7.79.846 17.781 7.62 24.725-2.201-8.637-.847-16.597 1.694-21.508.338-.846.677-1.524 1.185-2.201 2.71-3.726 5.758-7.451 9.145-15.58 1.863-4.403 3.726-9.653 4.742-17.612 1.185 1.524 1.862 3.556 2.201 5.757 1.524 7.96 1.016 12.87-.847 20.66-.677 2.541-1.185 4.912-1.185 7.622 0 7.959 3.726 17.442 11.516 23.2-3.557-8.128-3.557-16.088-1.863-21.507.17-.847.508-1.524.847-2.37 2.032-4.065 4.403-8.299 6.604-16.766 1.016-4.573 2.032-10.161 1.863-18.12 1.524 1.354 2.37 3.217 3.048 5.419 2.88 7.451 3.049 12.531 2.54 20.49-.338 2.541-.508 4.912 0 7.621 1.186 7.96 6.266 16.766 14.903 21.338-4.742-7.62-5.927-15.58-5.08-20.999 0-.847.169-1.693.508-2.54 1.354-4.403 3.048-8.806 3.895-17.612.169-4.742.338-10.33-1.016-18.29 1.524 1.186 2.879 2.879 3.895 4.911 3.895 6.943 4.91 12.024 5.588 19.814.17 2.71.339 5.08 1.186 7.62 2.54 7.621 8.806 15.411 18.12 18.629-5.927-6.774-8.298-14.395-8.468-19.983 0-.847 0-1.694.17-2.54.677-4.403 1.693-9.145 1.016-17.951-.339-4.742-1.186-10.33-3.726-17.782 1.694.847 3.218 2.202 4.573 4.234 4.91 6.266 6.773 11.007 8.636 18.628.508 2.54 1.186 4.911 2.371 7.282 3.726 7.113 11.177 13.887 20.83 15.58-6.943-5.588-10.5-12.87-11.516-18.29-.169-.846-.169-1.693-.169-2.54 0-4.572.17-9.314-1.694-17.95-1.185-4.573-2.878-9.992-6.773-17.105 2.032.508 3.725 1.863 5.25 3.557 5.927 5.419 8.467 9.822 11.515 17.104 1.016 2.37 1.863 4.572 3.556 6.774 4.742 6.435 13.21 12.023 22.862 12.193-7.62-4.573-12.193-11.177-14.056-16.427-.338-.847-.508-1.524-.677-2.37-.677-4.573-1.355-9.315-4.572-17.444-1.863-4.403-4.234-9.483-9.145-15.75 2.032.17 3.895 1.017 5.758 2.541 6.604 4.403 9.822 8.298 13.886 15.072 1.355 2.202 2.71 4.403 4.573 6.266 5.588 5.588 14.902 9.653 24.555 8.298-8.298-3.218-13.886-8.975-16.427-13.887-.508-.846-.846-1.524-1.016-2.37-1.524-4.403-2.879-8.976-7.282-16.427-2.54-4.065-5.758-8.637-11.515-14.225 1.862 0 3.895.508 6.096 1.693 7.113 3.387 11.008 6.774 16.088 12.701 1.694 2.032 3.218 3.895 5.42 5.42 6.435 4.741 16.257 7.281 25.57 4.572-8.636-2.032-15.071-6.774-18.458-11.347-.508-.677-1.016-1.354-1.355-2.032-2.201-4.064-4.064-8.467-9.653-15.241-3.217-3.556-7.112-7.62-13.717-12.193 2.032-.339 4.064 0 6.266.677 7.62 2.202 11.854 5.08 17.95 10.161 2.033 1.694 3.896 3.218 6.267 4.403 7.112 3.556 17.104 4.742 25.91.508-8.975-.677-15.919-4.403-19.983-8.298-.677-.508-1.185-1.185-1.694-1.863-2.71-3.725-5.419-7.62-11.854-13.378-3.726-3.048-8.298-6.435-15.41-9.992 1.862-.677 3.894-.677 6.265-.338 7.79 1.016 12.532 3.048 19.137 7.282 2.37 1.354 4.403 2.54 6.943 3.387 7.62 2.37 17.781 1.862 25.74-3.726-8.975.847-16.426-1.694-20.998-4.911l-2.033-1.524c-3.217-3.218-6.435-6.774-13.886-11.516-4.064-2.37-8.976-5.08-16.766-7.282 1.694-1.016 3.895-1.355 6.097-1.355 8.129-.338 13.04 1.016 20.152 4.065 2.54 1.016 4.742 1.862 7.452 2.37 7.79 1.186 17.781-.846 24.725-7.62-8.637 2.201-16.427.847-21.508-1.694-.677-.338-1.524-.677-2.201-1.185-3.726-2.71-7.451-5.589-15.41-9.145-4.404-1.693-9.823-3.556-17.782-4.742 1.524-1.185 3.556-1.862 5.927-2.201 7.79-1.524 12.87-1.016 20.49.847 2.541.677 4.912 1.185 7.622 1.185 7.959 0 17.442-3.726 23.37-11.346-8.298 3.387-16.258 3.387-21.508 1.693-.846-.17-1.693-.508-2.37-.847-4.234-2.032-8.299-4.403-16.766-6.604-4.742-1.016-10.16-2.032-18.29-1.863 1.355-1.524 3.218-2.37 5.42-3.048 7.62-2.88 12.7-3.049 20.49-2.54 2.71.338 5.081.508 7.79 0 7.79-1.186 16.597-6.266 21.17-14.903-7.621 4.742-15.411 5.927-21 5.25-.847-.17-1.693-.339-2.54-.678-4.403-1.354-8.806-3.048-17.443-3.895-4.742-.17-10.5-.338-18.29 1.186 1.017-1.694 2.71-3.049 4.912-4.065 6.943-3.895 11.854-4.91 19.644-5.588 2.71-.17 5.08-.339 7.62-1.186 7.621-2.54 15.58-8.806 18.629-18.12-6.605 5.927-14.225 8.298-19.814 8.468-.847 0-1.693 0-2.54-.17-4.573-.677-9.314-1.693-17.951-1.016-4.742.339-10.33 1.186-17.95 3.895.846-1.863 2.37-3.387 4.233-4.742 6.266-4.91 11.007-6.773 18.628-8.636 2.71-.508 4.911-1.186 7.451-2.371 6.944-3.726 13.887-11.177 15.58-20.83-5.757 6.943-12.87 10.5-18.459 11.516-.846.169-1.693.169-2.54.169-4.572 0-9.314-.17-17.781 1.694-4.742 1.185-10.161 2.878-17.104 6.773.508-2.032 1.693-3.725 3.387-5.25 5.419-5.927 9.822-8.467 17.104-11.515 2.54-1.016 4.741-1.863 6.943-3.556 6.266-4.742 11.854-13.21 12.024-22.862-4.573 7.62-11.008 12.193-16.258 14.056-.846.338-1.693.508-2.54.677-4.572.847-9.314 1.355-17.443 4.572-4.234 1.863-9.314 4.234-15.75 9.145.17-1.863 1.186-3.895 2.541-5.758 4.403-6.604 8.467-9.822 15.072-13.886 2.37-1.355 4.403-2.71 6.266-4.573 5.588-5.588 9.822-14.902 8.467-24.555-3.387 8.298-9.144 13.886-14.056 16.596-.677.339-1.524.677-2.201.847-4.403 1.524-8.976 2.879-16.596 7.282-4.065 2.54-8.637 5.758-14.225 11.515 0-1.862.677-3.895 1.693-5.927 3.387-7.282 6.774-11.007 12.701-16.257 2.032-1.694 3.895-3.218 5.589-5.42 4.572-6.435 7.282-16.257 4.403-25.57-2.033 8.636-6.774 15.071-11.177 18.458-.678.508-1.355 1.016-2.202 1.355-4.064 2.201-8.467 4.064-15.072 9.653-3.725 3.217-7.79 7.112-12.193 13.717-.508-1.863-.17-4.064.678-6.266 2.201-7.62 4.91-11.854 9.991-17.95 1.694-2.033 3.387-3.727 4.572-6.267 3.557-7.112 4.573-17.104.34-25.91-.509 8.975-4.235 15.919-8.13 19.983-.677.677-1.185 1.185-1.862 1.694-3.726 2.71-7.79 5.419-13.548 12.023z" fill="#ff0"/></svg>