<svg data-name="Layer 1" xmlns="http://www.w3.org/2000/svg" viewBox="0 0 750 500"><defs><clipPath id="a"><path fill="none" d="M0 0h750v500H0z"/></clipPath></defs><g clip-path="url(#a)"><path d="M750 0H0v500" fill="#009e49"/><path d="M0 500h750V0" fill="#ce1126"/><path d="M0 500L750 0" stroke="#fcd116" stroke-width="210"/><path d="M0 500L750 0" stroke="#000" stroke-width="150"/><g fill="#fff"><path d="M478.671 96.756l18.93 67.392 33.7-9.465"/><path data-name="t" d="M478.671 96.756l54.927 43.4-21.7 27.463"/><g data-name="c"><path data-name="t" d="M560.894 100.073L502.651 138.9l19.414 29.122"/><path data-name="t" d="M560.894 100.073l-24.3 65.648-32.824-12.148"/></g><g data-name="c"><path data-name="t" d="M583.148 179.3l-54.927-43.4-21.7 27.463"/><path data-name="t" d="M583.148 179.3l-69.943-2.821 1.411-34.972"/></g><g data-name="c"><path data-name="t" d="M514.679 224.943l24.3-65.648-32.824-12.148"/><path data-name="t" d="M514.679 224.943l-18.931-67.392 33.7-9.465"/></g><g data-name="c"><path data-name="t" d="M450.108 173.93l69.943 2.822 1.411-34.972"/><path data-name="t" d="M450.108 173.93l58.244-38.83 19.414 29.122"/></g></g><g data-name="star" fill="#fff"><g data-name="c"><path data-name="t" d="M193.671 286.756l18.93 67.392 33.7-9.465"/><path data-name="t" d="M193.671 286.756l54.927 43.4-21.7 27.463"/></g><g data-name="c"><path data-name="t" d="M275.894 290.073L217.651 328.9l19.414 29.122"/><path data-name="t" d="M275.894 290.073l-24.3 65.648-32.824-12.148"/></g><g data-name="c"><path data-name="t" d="M298.148 369.3l-54.927-43.4-21.7 27.463"/><path data-name="t" d="M298.148 369.3l-69.943-2.821 1.411-34.972"/></g><g data-name="c"><path data-name="t" d="M229.679 414.943l24.3-65.648-32.824-12.148"/><path data-name="t" d="M229.679 414.943l-18.931-67.392 33.7-9.465"/></g><g data-name="c"><path data-name="t" d="M165.108 363.93l69.943 2.822 1.411-34.972"/><path data-name="t" d="M165.108 363.93l58.244-38.83 19.414 29.122"/></g></g></g></svg>