<svg xmlns="http://www.w3.org/2000/svg" xmlns:xlink="http://www.w3.org/1999/xlink" viewBox="0 0 1200 600"><clipPath id="a"><path d="M0 0v150h700v150H600zm600 0H300v350H0v-50z"/></clipPath><path fill="#012169" d="M0 0h1200v600H0z"/><path d="M0 0l600 300m0-300L0 300" stroke="#fff" stroke-width="60"/><path d="M0 0l600 300m0-300L0 300" stroke="#c8102e" stroke-width="40" clip-path="url(#a)"/><path d="M300 0v350M0 150h700" stroke="#fff" stroke-width="100"/><path d="M300 0v350M0 150h700" stroke="#c8102e" stroke-width="60"/><path d="M0 300h600V0h600v600H0z" fill="#012169"/><path d="M989.722 232.949v93.45c0 80.992-38.339 108.787-89.617 130.832-51.278-22.045-90.096-49.84-90.096-130.831v-93.451h179.713z" fill="#fff" stroke="#fff" stroke-width="9.6" stroke-linejoin="round"/><use xlink:href="#b" width="100%" height="100%" stroke="#fff" stroke-width="9.6" stroke-linejoin="round"/><use xlink:href="#c" width="100%" height="100%" stroke="#fff" stroke-width="9.6" stroke-linejoin="round"/><g stroke="#000" stroke-width="1.438"><g id="b" fill="#fcea83"><path d="M754.417 449.563c2.875 7.668 23.483 17.732 47.444 4.792 16.294-9.105 26.838-22.044 36.901-45.048 2.876-5.75 4.313-12.94-2.396-17.252-5.271-3.834-13.898-8.147-17.732-11.981-1.916-1.917-3.833-3.355-5.271-4.793.958.959 1.917 1.917 2.875 3.355 9.585 11.502-.479 28.275-11.022 38.339-7.668 7.188-21.566 24.92-41.694 8.147-4.313-3.834-14.377 11.98-9.105 24.44zm291.373 0c-3.355 7.668-23.962 17.732-47.444 4.792-16.294-9.105-26.838-22.044-37.38-45.048-2.397-5.75-3.835-12.94 2.875-17.252 5.271-3.834 13.898-8.147 17.731-11.981 1.917-1.917 3.355-3.355 5.272-4.793-.959.959-1.917 1.917-2.875 3.355-9.585 11.502.479 28.275 10.543 38.339 7.667 7.188 22.045 24.92 42.172 8.147 4.314-3.834 13.898 11.98 9.106 24.44z"/><path d="M900.105 490.778c38.339 0 97.285-17.253 128.914-77.636 5.272-10.064 0-15.336-6.23-18.69-6.71-2.876-14.856-9.585-19.17-13.898 7.668 7.668 6.23 12.94.96 21.566-24.442 40.735-57.988 61.342-104.474 61.342-46.486 0-80.032-20.607-104.473-61.342-5.271-8.627-6.71-13.898.48-21.566-3.835 4.313-12.46 11.022-19.17 13.898-6.23 3.354-11.502 8.626-6.23 18.69 31.63 60.384 91.054 77.636 129.394 77.636z"/></g><path d="M811.446 409.787c-.958-4.792-7.189-2.875-9.105 2.875-2.397-3.354-4.793-6.709-6.71-10.543-5.75-8.626-6.71-14.377 1.438-22.524 3.834-3.834 11.502-8.147 16.773-3.355 11.023 9.106 5.272 23.962-2.396 33.547zm176.838 0c.958-4.792 7.668-2.875 9.585 2.875 2.396-3.354 4.792-6.709 6.709-10.543 5.75-8.626 6.71-14.377-1.917-22.524-3.355-3.834-11.022-8.147-16.773-3.355-10.543 9.106-5.272 23.962 2.396 33.547zm-233.867 39.776c-4.792-7.189-8.626-25.879-9.585-30.671-1.437-4.313-1.917-8.147 3.355-10.064 5.272-1.917 10.064 4.792 12.46 10.543 2.396 5.751 6.23 14.377 10.543 24.92-10.543-6.23-19.17-1.917-16.773 5.272zm291.373 0c4.313-7.189 8.147-25.879 9.585-30.671.958-4.313 1.917-8.147-3.355-10.064-5.271-1.917-10.064 4.792-12.46 10.543-2.396 5.751-6.23 14.377-10.543 24.92 10.543-6.23 18.69-1.917 16.773 5.272z" id="c" fill="#c8102e"/><g fill="#00493d" stroke="none"><path d="M782.213 406.432l-3.834 1.917c-.958.48-.958 1.438-.958 1.917h-.48l-1.917-4.313h.48c0 .479.479.958 1.437.479l8.147-4.313c.959-.48.959-.959.48-1.438l.479-.48 2.396 4.793h-.48c-.478-.479-.958-.958-1.916-.479l-3.355 1.917 1.438 2.875 3.834-1.437c.958-.48.48-1.438.48-1.917h.478l1.917 4.313c-.479-.48-.958-.959-1.917-.48l-8.147 4.314c-.958.479-.958.958-.479 1.437l-.48.48-2.395-4.313.479-.48c.48.48.958.959 1.917.48l3.834-1.917zm8.147 6.23c.958-.48.958-.958.48-1.917h.478l4.793 7.189-3.355 2.396v-.48c1.917-1.437 1.917-3.354 1.438-3.833-.48-.48-.959-.959-.959-1.438-.479 0-.479-.48-1.437.48-.48.478-3.355 2.395-3.355 2.395.48.48.959 1.917 3.355.48h.479l-5.272 3.833v-.479c2.397-1.917 1.438-3.354.959-3.834l-3.355 2.397c-.958.479-.958.958-.958 1.437.479 0 .479.48.958.959.48.958 1.917 1.917 4.313.958l.48.48-3.834 1.437-4.793-7.668h.48c.479.48.958.959 1.916.48zm7.667 18.211l-3.355 2.875c-.479.48-.479 1.438 0 1.917h-.479l-3.355-3.354.48-.48c.479.48.958.959 1.917 0l6.23-6.23c.958-.479.958-.958.479-1.917l3.355 3.834c-.48-.479-1.438-.479-1.917 0l-2.876 2.876 2.396 2.396 2.876-2.396c.958-.959.48-1.438 0-1.917l.48-.48 3.354 3.834h-.48c-.479 0-.958-.479-1.916.48l-6.23 5.75c-.959.959-.959 1.438-.48 1.917v.48l-3.354-3.834c.479 0 1.437.48 1.917 0l3.354-3.355zm7.189 10.064l1.438 1.438 1.917-4.313s-1.438.479-3.834 1.917l.479.958-.48.48-.958-.96c-.479.48-.958.48-1.437.96-1.438.958-.959 1.437-.48 1.916v.48l-2.396-2.397h.48l1.916-.479 9.585-5.272.48.48s-.48.479-4.793 10.064c0 .958-.48 1.437 0 2.396l-3.834-3.355.48-.48c.479.96 1.437.96 1.916 0 0-.478.48-1.437.48-1.916l-1.438-1.438.479-.479zm3.834 9.585l.48-.48c.478.48.958.48 1.916 0l6.23-8.146-.479-.48c-.958-.479-2.396-.479-3.834.959v-.48l1.917-2.395 7.189 5.271-2.397 2.876h-.479c1.438-1.438.959-3.355 0-3.834v-.48l-6.23 8.147c-.958.48-.48 1.438 0 1.917h-.48z"/><path d="M821.51 452.439l-2.396 3.355c-.48.958 0 1.437.479 1.917l-.48.479-3.833-2.876v-.479c.958.48 1.438.48 1.917-.48l5.271-7.188c.48-.958 0-1.437-.479-1.917l.48-.479 3.833 2.876v.479c-.958-.48-1.437-.48-1.917.48l-2.396 3.354 2.876 1.917 2.396-3.355c.48-.958 0-1.438-.48-1.917l.48-.48 3.834 2.876v.48c-.48-.48-1.438-.48-1.917.479l-4.793 7.668c-.958.479-.479.958 0 1.437v.48l-4.313-2.876h.48c.479 0 .958 0 1.437-.48l2.396-3.833zm9.585 13.418l.48-.48c.478.48 1.437.48 1.916-.478l3.834-8.147c.48-.959 0-1.438-.48-1.917l8.148 3.833-1.917 3.834-.48-.479c1.438-1.917 0-3.834-.479-4.313-.479 0-.958-.48-1.437-.48-.48 0-.48 0-.959.96-.479.478-1.917 3.354-1.917 3.354.48.48 1.438 1.438 3.355-.959h.48l-2.876 5.751-.48-.479c1.438-2.875-.479-3.355-.958-3.355l-1.917 3.834c-.48.959 0 1.438.48 1.438v.48zm13.897 6.71c-1.438-.958-1.438-3.834 0-6.71.958-2.875 2.875-5.27 4.792-4.312 1.438.479.959 3.354 0 6.23-1.437 3.354-3.354 5.271-4.792 4.792h-.48c3.355 1.438 5.752-.48 7.19-3.834 1.437-2.875.958-6.23-1.918-7.668-2.875-1.437-5.75.48-7.188 3.834-1.438 3.355-.959 6.71 1.917 7.668zm14.857.958l1.917-5.75c.48-.96 0-1.439-.48-1.918l2.397.48v.479c-.48 0-.959 0-1.438.958l-1.917 5.751c-.958 2.396-2.396 4.313-5.271 3.355-1.917-.48-3.355-2.876-2.397-5.272l2.397-6.23c.479-.958 0-1.438-.48-1.917v-.48l4.314 1.918v.479c-.48-.48-1.438-.48-1.438.48l-2.396 6.23c-.48 1.916-.48 3.833.958 4.312 1.438.48 2.876-.479 3.834-2.875z"/><path d="M864.162 467.295c0-.48 0-.48-.48-.48l3.355.48 2.876 9.105 1.438-5.75c.479-.959 0-1.438-.48-1.917l2.876.479-.48.48c-.479 0-.958 0-1.437.958l-2.396 10.543h-.48l-3.834-11.502-2.396 7.668c0 1.438.48 1.438.959 1.917v.48l-2.876-.96v-.479c.48.48 1.438 0 1.438-.958l2.396-8.626-.479-1.438z"/><path d="M880.456 476.88c-.958 4.313-2.875 5.272-3.834 5.272h-.958s-.48-.48 0-.959l1.437-9.585c.48-.479.48-.958.959-.479h.958c.959 0 1.917 1.917 1.438 5.751l1.438.48c.958-4.793-.959-6.71-3.355-7.19-1.917-.479-4.792-.958-4.792-.958v.48c.479.479 1.437.479.958 1.916l-1.438 8.627c-.479.958-.958 1.437-1.437 1.437h-.48l4.793.959c2.396.48 4.792 0 5.75-5.272zm4.313-3.834c0-.958-.958-1.438-1.438-1.438v-.479l8.627.959-.48 3.833c0-2.396-1.437-3.354-2.396-3.354-.48-.48-.958-.48-1.438-.48-.479 0-.479 0-.479 1.438 0 .48-.48 3.834-.48 3.834.48 0 1.918.48 2.876-2.396l-.479 6.23h-.48c0-2.875-1.437-2.875-1.916-2.875l-.48 4.313c0 .958 0 .958.48.958l.958.48c1.438 0 2.876-.48 3.834-3.355h.48l-.959 3.834-9.105-.959c.958 0 1.437-.48 1.917-1.438zm15.815 5.751c0 4.313-1.438 5.75-2.875 5.75-.48-.478-.48-.478-.959-.478l-.48-.48.48-10.064c0-.479 0-.479.48-.479h.958c.958 0 2.396 1.438 2.396 5.751h1.917c0-4.792-2.396-6.23-4.792-6.23-1.917-.48-4.793-.48-4.793-.48v.48c.48 0 1.438.48 1.438 1.438l-.48 9.105c0 .959-.479 1.438-.958 1.438v.48h4.313c2.397 0 4.793-.96 5.272-6.231h-1.917zm13.898 3.834c0 .958.48.958 1.438.958v.48l-5.272.479c.48-.48 1.438-.959 1.438-1.917l-.959-9.105c-.479-.959-.958-.959-1.917-.959v-.48l5.272-.478c-.48.479-1.438.958-.958 1.917zm4.792.958v-.48c.48 0 .958-.478.958-1.437l-1.916-10.064h-.48c-.958.48-1.917 1.438-1.437 3.355h-.48l-.479-3.355 8.626-1.438.48 3.355h-.48c0-1.917-1.437-2.396-2.875-2.396h-.48l1.918 10.064c0 .958.479 1.438 1.437 1.438v.479zm20.607-9.585l-1.917-5.75c0-.96-.958-.96-1.438-.96v-.479l2.397-.958v.48c-.48.478-.48.478-.48 1.437l1.917 6.23c.48 1.917.48 4.792-2.396 5.75-1.917.48-4.313-.478-4.792-3.354l-1.917-6.23c-.48-.958-.959-.958-1.438-.958l-.48-.48 4.793-1.437v.479c-.48.48-.958.958-.48 1.917l1.439 6.23c.479 1.917 1.917 2.875 3.354 2.875 1.438-.479 1.917-2.396 1.438-4.792zm5.272-3.354c2.396-.958 1.917-2.396 1.438-3.834-.48-1.438-1.438-2.396-2.396-1.917-.48 0-.959.48-.48.959l1.438 4.792.48.48.958 3.833c.479.959 1.437.959 1.917.48v.479l-4.313 1.917-.48-.48c.959-.479.959-.958.959-1.917l-3.355-8.147c-.48-1.437-.958-.958-1.917-.958v-.48l4.793-1.916c1.916-.48 3.833 0 4.792 1.917.48 2.396-.48 3.834-2.396 4.792-.48 0-.959.48-.959.48zm11.981 1.437c-1.438.48-3.355-1.438-4.792-4.792-1.438-2.876-1.438-5.751 0-6.23 1.437-.48 3.354 1.437 4.792 4.313 1.438 2.875 1.438 5.75 0 6.709 2.875-.958 3.834-4.313 2.396-7.668-1.438-2.875-4.313-4.792-7.188-3.834-2.876 1.438-3.834 4.793-2.397 7.668 1.438 3.355 4.314 5.272 7.189 3.834zm.479-13.418h-.958l2.875-1.917 8.626 4.792-2.875-5.271c-.48-.959-1.438-.959-1.917-.959v-.479l2.396-.958c-.48.479-.958.958 0 1.917l4.792 9.584-.479.48-10.543-5.751 3.834 7.188c.479.959 1.438.959 1.917.48v.479l-2.396 1.437v-.479c.479-.48.479-.958 0-1.917l-3.834-7.668-1.438-.958zm21.565 1.438v-.48c0-.478.48-.958 0-1.916l-5.75-8.147h-.48c-.959.48-1.438 2.396 0 3.834l-.48.479-1.916-3.355 7.188-4.792 1.917 2.875c-1.437-1.437-2.875-1.437-3.834-.958l-.479.48 5.75 8.146c.48.959 1.439.959 1.918.48v.479zm5.272-11.502l2.875 3.355c.48.479 1.438.479 1.917 0v.479l-3.834 3.355v-.48c.48-.479.48-.958 0-1.917l-5.75-7.188c-.48-.959-.959-.48-1.917-.48l3.834-3.354v.48c0 .478-.48.958 0 1.916l2.396 2.876 2.875-1.917-2.396-3.355c-.48-.959-1.438-.48-1.917-.48l3.834-3.354v.48c-.48.479-.48.958 0 1.916l5.75 7.189c.48.479.96.479 1.438 0l.48.479-3.834 3.355-.48-.48c.48-.479.96-.958.48-1.917l-2.876-3.354zm4.313-10.064c-.48-.48-1.438-.48-1.917 0v-.48l6.23-5.75 2.876 2.875h-.48c-1.437-1.917-3.354-.958-4.313-.479 0 .48-.48.48-.958.959 0 0 0 .479.479 1.437l2.875 2.876c.48-.48 1.917-1.438 0-3.834h.48l3.833 4.313v.48c-2.396-2.397-3.354-.96-3.833-.48l2.875 2.875c.48.959.958.959.958.959l1.438-1.438c.48-.48.959-1.917 0-4.792h.48l1.916 3.354-6.23 6.23-.479-.479c.48-.479.959-.958 0-1.917zm11.497-13.419c-.48.48-.48 1.438.48 1.917.958.958 1.916.958 3.833 0 .959-.48 2.876-.959 4.313.48 2.396 2.395 1.438 4.312.959 5.27-.48.48-1.438.96-1.917 1.438-.48 0-.48 0-.48.48v.479l-3.354-2.875h.48c1.916.958 3.833 1.437 4.791 0 .959-.959 0-1.917-.479-2.397-.958-.958-1.917-.958-3.354 0-1.438.48-3.355.48-4.793-.479-1.917-1.917-1.917-3.355-.958-4.792.479-.48 1.438-.959 1.917-1.438.479 0 .479 0 0-.958l3.354 2.396h-.479c-2.396-.959-3.834-.48-4.313.479zm4.32-3.834c-.958-.48-1.438 0-1.917.48h-.48l5.273-7.669 3.354 2.397-.48.479c-1.916-1.438-3.833-.48-4.312 0 0 .48-.48.958-.48 1.438-.479 0-.479.479.48.958.479.48 3.354 2.396 3.354 2.396.48-.479 1.438-1.437-.479-3.354v-.48l4.792 3.834c-2.875-1.437-3.354 0-3.833.48l3.354 2.396c.959.479 1.438.479 1.438.479 0-.48.48-.959.958-1.438.48-.958.959-2.396-.958-4.313l.48-.48 2.395 2.876-4.792 7.189h-.48c.48-.959.48-1.438-.478-2.396zm12.94-8.626l-1.438 2.396c-1.917-1.917-2.875-3.354-2.875-3.354l4.313.958h.959c.479 0 1.437.48 1.916.48 1.438.478.959.958.48 1.916h.479l2.396-4.313c-.958.959-1.438.48-2.396.48-10.064-1.918-11.023-2.397-11.023-2.397v.48l7.668 8.626c.48.479.48 1.437.48 1.917h.479l1.437-2.397-.479-.479c-.48.959-.958 1.438-1.917 0l-.958-.958 1.437-3.355zm-2.88-10.543c-.48.48-.48 1.438.959 1.917 1.437.48 1.916 0 3.354-.959 1.438-.958 2.875-1.916 4.792-.958 2.876 1.438 2.397 3.834 1.917 4.792-.479.48-.958 1.438-1.437 1.917v.959l-3.834-1.917c2.396.48 4.313 0 4.792-1.438.48-.958-.48-1.917-.958-2.396-.959-.48-1.917 0-3.355.958-1.438 1.438-2.875 1.917-4.792.959-1.917-.959-2.876-2.396-1.917-3.834 0-.958.958-1.438 1.438-1.917 0-.48 0-.48-.48-.958v-.48l3.834 1.917h-.48c-2.395-.479-3.833.48-3.833 1.438z"/></g></g><use height="100%" width="100%" xlink:href="#d" stroke="#fff" stroke-width="9.6" stroke-linejoin="round"/><use height="100%" width="100%" xlink:href="#e" stroke="#fff" stroke-width="9.6" stroke-linejoin="round"/><use height="100%" width="100%" xlink:href="#f" stroke="#fff" stroke-width="9.6" stroke-linejoin="round"/><use height="100%" width="100%" xlink:href="#g" stroke="#fff" stroke-width="9.6" stroke-linejoin="round"/><g stroke="#000" stroke-width="1.438"><g id="d" fill="#073163"><path d="M863.203 232.47c-6.23 1.438-10.543 1.917-16.294-3.355-3.834-3.834-2.875-10.543.958-12.94 4.314-2.874 8.147-4.791 13.42-3.354 5.27 1.438 19.168 14.377 15.814 14.857-3.355 0-8.626 3.354-13.898 4.792zm14.857-23.004c1.917-1.438 4.313-2.396 10.543-2.875 5.751-.48 10.064-.48 11.502 3.833 1.917 5.272 3.354 11.502 7.188 14.378-2.396 1.437-14.377 2.875-18.69.479-5.75-2.876-7.188-13.898-10.543-15.815zm41.214.48c1.917-1.438 4.313-1.438 10.543-.958 6.23.479 8.626.958 10.064 5.271 1.438 4.792 0 11.023 2.876 15.336-2.876.958-12.46.958-15.815-2.397-5.272-3.833-4.793-14.856-7.668-17.252z" fill="#fff"/><path d="M948.028 212.821c-4.313-.958-7.189-1.438-9.105 0 2.396 2.875.479 14.377 5.271 18.21 3.355 2.397 11.981 2.876 13.898-2.395 2.396-4.793 2.396-11.981-10.064-15.815zm-49.361-4.792c1.438-1.438 4.313-1.917 10.064-1.917 6.23 0 10.064.959 11.98 4.792 1.918 4.793 1.439 11.023 4.793 14.857-1.438 1.917-14.377 1.917-18.21-.959-5.272-3.354-5.752-14.377-8.627-16.773zm-40.735 4.313c0-2.396 3.355-2.875 11.98-3.355 8.627-.958 9.106-.479 11.982 5.751 1.438 3.355 3.354 9.106 7.188 11.023-10.543 2.396-13.897 3.833-19.648.479-4.313-2.396-9.106-8.147-10.064-10.543-.48-1.438-.48-2.876-1.438-3.355z"/></g><g fill="#f9d050" stroke-width=".647"><g id="f"><path d="M880.935 163.46c-10.064-7.668-22.045-14.856-33.067-16.294 7.188 4.313 27.316 20.128 32.588 25.4"/><path d="M886.686 156.271c-11.98-8.147-25.879-17.253-39.297-18.21 10.064 5.27 24.92 17.73 33.067 27.795m21.565-23.003c6.71-14.856 13.898-23.003 23.483-32.109-4.793 10.064-10.065 30.671-12.46 38.818"/><path d="M912.565 140.457c4.792-10.543 11.98-19.649 24.441-25.4-6.23 6.23-15.815 24.92-18.211 34.985"/><path d="M916.878 150.041c5.75-8.147 17.253-23.483 37.86-31.63-11.981 11.981-29.713 34.026-34.026 42.652m2.875-.479c8.626-4.792 25.879-12.46 38.339-10.064-7.668 2.876-30.671 13.419-40.735 23.003"/><path d="M921.67 157.23c8.147-8.626 23.003-21.566 38.818-26.837-11.502 11.022-35.943 35.942-39.297 39.776m-22.524-18.211c-5.75-17.732-14.377-34.505-27.316-39.776 7.188 10.543 16.294 25.878 21.086 48.881m-4.793-9.584c-9.585-11.502-22.524-23.003-37.38-25.4 10.063 5.751 26.837 22.525 33.067 38.819"/><path d="M892.916 151c-11.98-21.566-21.086-25.4-26.358-29.713 4.313 8.147 14.856 29.713 21.087 38.819"/><path d="M868.954 149.562c5.75 3.355 14.377 11.502 17.253 16.773" fill="none"/><path d="M868.954 159.626c2.875 2.396 8.147 5.272 12.94 9.585m44.089-2.397c4.792-3.834 15.335-10.064 20.607-11.98m-23.961 8.626c4.792-6.23 14.377-14.856 17.732-17.732m-4.314-11.981c-4.313 4.792-14.377 16.773-18.21 22.524m5.75-26.837c-3.355 4.313-10.064 16.773-11.98 21.086m-25.88-20.127c2.875 7.668 8.147 20.607 10.064 25.879m-14.377-17.732c1.917 2.875 5.75 9.585 7.189 14.377"/></g><g id="g"><path d="M897.708 136.143c0-4.313 2.875-9.105 5.75-9.105 3.355 0 5.752 5.75 5.752 9.105 0 3.834-2.876 7.189-5.751 7.189-2.876 0-5.751-2.876-5.751-7.189z"/><path d="M891.478 139.977c.48-4.792 3.834-8.626 6.71-8.147 2.875.48 4.312 6.23 3.833 9.585-.48 3.834-3.834 6.709-6.23 6.23-2.396 0-4.792-3.355-4.313-7.668zm12.94 1.438c-.958-4.313.958-9.105 3.834-9.585 2.875-.479 5.75 4.313 6.23 8.147.958 3.834-1.438 7.668-3.834 7.668-2.396.48-5.75-1.917-6.23-6.23z"/><path d="M897.229 145.249c0-4.792 2.875-9.105 5.75-9.105 3.355 0 5.752 5.271 5.752 9.105 0 3.834-2.876 7.189-5.751 7.189-2.876 0-5.751-2.876-5.751-7.189z"/><path d="M888.603 147.645c0-4.313 3.355-9.105 6.23-9.105 2.875 0 5.75 5.75 5.75 9.105 0 3.834-3.354 7.189-5.75 7.189-2.875 0-6.23-2.876-6.23-7.189zm17.732-1.917c0-4.313 2.875-9.105 5.75-9.105 3.355 0 5.752 5.75 5.752 9.105 0 3.834-2.876 7.189-5.751 7.189-2.876 0-5.751-2.876-5.751-7.189z"/><path d="M904.418 149.562c0-4.792 3.355-9.105 6.23-9.105 2.875 0 5.75 5.271 5.75 9.105 0 3.834-2.875 7.189-5.75 7.189s-6.23-2.876-6.23-7.189z"/><path d="M896.75 153.875c0-4.792 2.875-9.105 5.75-9.105 3.355 0 5.752 5.75 5.752 9.105 0 3.834-2.876 7.189-5.751 7.189-2.876 0-5.751-2.876-5.751-7.189zm-11.981 0c0-4.792 2.396-9.105 4.792-9.105 2.397 0 4.313 5.75 4.313 9.105 0 3.834-2.396 7.189-4.313 7.189-2.396 0-4.792-2.876-4.792-7.189zm26.837-.958c0-4.313 2.396-8.626 4.792-8.626 2.397 0 4.793 5.271 4.793 8.626 0 4.313-2.876 7.189-4.793 7.189-2.396 0-4.792-2.876-4.792-7.189z"/><path d="M914.482 161.064c.958-4.792 3.834-8.626 5.75-8.147 1.918.48 2.397 6.23 1.439 9.585-.48 4.313-3.355 6.709-5.272 6.23-1.917-.48-2.875-3.834-1.917-7.668z"/><path d="M905.376 159.626c.48-4.313 3.355-8.626 5.75-8.147 2.876 0 4.314 5.75 3.835 9.105-.48 4.314-2.876 7.189-5.272 6.71-2.396 0-4.792-3.355-4.313-7.668zm-13.418 1.438c-1.438-4.792-4.313-8.147-6.23-7.668-1.917.48-2.396 6.23-1.438 9.585.959 3.834 3.834 6.23 5.751 5.75 1.438-.478 2.875-3.833 1.917-7.667z"/><path d="M888.603 160.105c0-4.313 2.396-8.626 4.792-8.626 2.876 0 4.793 5.271 4.793 8.626 0 4.313-2.396 7.189-4.793 7.189-1.917 0-4.792-2.876-4.792-7.189z"/><path d="M895.791 162.022c0-4.792 2.875-9.105 5.75-9.105 3.355 0 5.752 5.271 5.752 9.105 0 3.834-2.876 7.189-5.751 7.189-2.876 0-5.751-2.876-5.751-7.189zm2.397-52.716c-.958 3.834-4.313 7.189-1.917 12.46-4.313-1.438-8.147-1.917-11.502 1.917 4.314-.48 8.147.959 10.064 3.834-3.834-.48-5.75 1.438-6.709 3.834 3.355-.959 6.71-1.917 8.147-1.438-1.438 1.438-3.834 3.834-4.313 5.75 2.875-2.395 6.23-1.916 8.147-3.354-1.438 3.355 1.438 6.71 3.834 10.064-.48-4.792 2.396-8.147.958-10.543 4.313.959 4.793 4.792 11.023 4.792-2.396-1.437-3.834-6.23-6.71-6.23 1.438-.479 7.189-.958 8.147 0-.958-1.917-4.313-3.834-6.23-3.834 1.917-1.916 5.272-5.75 7.668-6.709-3.355.48-8.626.959-10.543 3.834 4.792-3.834 3.834-11.022 9.105-11.98-2.875-.48-7.188 1.437-10.543 4.792 1.438-2.876 1.438-6.71 3.355-7.668-3.834.958-8.147 5.75-9.585 8.147 0-2.396-1.438-6.23-2.396-7.668zm2.396 7.668c0 1.438 0 4.313-.48 5.272m6.71-5.751c-.958.958-2.875 4.313-2.875 7.189"/><path d="M909.689 122.246c-1.438.958-2.875 2.396-3.355 4.313" fill="none"/></g></g><g id="e" fill="#059334"><path d="M858.89 169.69c-3.355 0-6.23-1.438-8.147-3.834-3.355-4.313-12.46-6.23-16.294-2.396-1.438.958-3.355.958-4.792 1.438-2.397 0-5.272 2.396-4.313 7.188 1.916-1.438 2.396 0 3.833 0 .959-.48.48.48.48 1.438 0 2.396 5.271 7.188 10.064 6.71 5.271 0 7.667 1.916 8.626 2.875 1.437 1.437.479.958 1.437 3.354 1.438 1.438 1.917 1.917-.479 3.834-3.354 2.876-5.75 9.585 0 14.856 6.23 4.793 22.045 11.981 39.777-1.917 17.252-13.418 44.09-5.75 46.006-.958 2.397 4.792 3.355 7.668 3.834 10.064.48 1.917 2.876 3.834 6.23 3.355 3.355 0 7.189 1.437 9.106 2.875 2.396 1.438 5.75.959 4.792-3.355-1.917-13.418-10.064-15.335-11.022-21.565 4.792.479 8.147.479 10.064-1.438 1.437-1.917 3.354-5.271 5.271-6.23 1.438-.958 1.438-1.917-.479-1.438-2.396.48-3.834 1.438-8.147.959-22.045-2.396-83.866-19.17-95.847-15.815z"/><path d="M956.654 185.984c-2.396 1.438-4.792 3.834-9.105 9.585-4.793 6.23-19.17 12.46-36.902 12.46-17.252 0-27.795-2.876-35.463-9.106-4.313-3.354-7.668-5.271-10.543-6.709-5.272-2.396-6.23-7.668-4.793-11.98-1.437 2.395-2.396 4.791-5.271 4.312-1.917 0-5.75 0-4.792 1.917-.48-.958-.48-2.396-.959-2.875l-.958-.959c1.437.959 4.792-1.917 7.188-1.917 1.917.48 4.313-1.917 3.834-4.792-.48-2.396-.958-4.313-1.438-6.23 3.834-1.917 54.154 7.188 64.218 8.147 10.064.48 38.818 4.792 34.984 8.147z" fill="#000"/><path d="M865.6 167.773c4.792-4.792 10.543-7.189 16.294-5.75h1.438c2.875-2.397 9.584-2.876 13.418-.96h1.917c5.751-1.916 16.773 0 20.607 3.835l1.438.958c12.94-.958 20.607 4.792 29.713 13.898.958.958 2.396 2.875 4.792 3.355 2.875.479 3.355 1.916.958 3.354-2.875 1.438-5.271 3.834-10.063 9.106-4.314 5.75-18.211 11.501-35.464 11.501-16.773 0-26.837-2.875-34.505-8.626-4.313-3.355-7.668-5.272-10.064-6.71-2.875-.958-6.709-4.792-5.271-8.626.958-3.833-1.438-8.626-3.355-13.418 1.438-.959 5.272-2.396 7.189-1.438l.958-.48z"/><g fill="#00493d"><path d="M950.424 179.754c-9.105-9.105-16.773-14.856-29.713-13.898 0 .48 0 1.917-.479 2.876 7.668 2.875 18.69 11.501 23.483 17.731 1.917-1.917 5.271-4.313 6.709-6.709zm-31.15-14.856c-3.834-3.834-14.856-5.75-20.607-3.834 0 1.917 0 4.792-.959 6.71 3.355 1.437 6.23 4.792 9.106 8.146 1.917-.479 6.71-1.917 9.105-2.396.959-1.917 2.876-6.23 3.355-8.626zm-22.524-3.834c-3.834-1.917-10.543-1.438-13.419.958-.958 1.917-1.437 5.751-1.437 7.668 1.917 0 4.792 1.438 5.75 2.396 2.876-.958 6.71-2.875 8.148-4.313.479-1.917 1.437-4.792.958-6.709zm-31.15 6.709c4.792-4.792 10.543-7.189 16.294-5.75-.958 1.437-1.438 4.312-1.438 7.188-5.271-.48-11.98.958-14.856 2.875v-4.313z"/><path d="M941.798 187.422c-4.313-6.23-14.856-13.419-22.045-16.773 0 .479-.958 2.396-1.438 3.834 2.876 4.313 8.627 13.897 11.023 19.17 2.396-.96 9.105-3.835 12.46-6.231zm-36.422 10.543c.958-6.71 1.438-16.294 1.438-19.649 2.396-.479 7.188-1.917 9.105-2.396 2.396 3.834 8.147 13.898 10.543 18.69-5.75 1.438-15.335 3.834-21.086 3.355zm-16.773-23.004c2.396-.958 5.75-2.875 8.147-4.792 1.917 1.437 5.75 4.792 7.189 6.709 0 4.313-1.438 16.773-1.917 21.086-3.834 0-10.064-.958-13.419-2.875.48-7.189.958-15.336 0-20.128zm-23.962 5.751c.48-.958.958-4.313.958-5.75 3.834-2.397 13.42-4.793 20.608-.96.479 4.793 0 16.774-.48 19.65-6.23-4.793-16.294-11.502-21.086-12.94z"/></g><g fill="none"><path d="M840.679 172.086c-.958 0-1.438-2.875-3.355-2.875-.479 0-1.917.479-2.396 0 0 .958.48 1.917.959 2.396.479 1.437 2.875.479 4.792.479z" fill="#000" stroke="none"/><path d="M840.679 180.233c5.75 0 6.71-7.189 9.585-7.668m-6.23 8.147c4.313 1.917 7.668-8.147 11.022-7.668m-19.648-4.792c1.438 0 2.396-1.917 4.792.48.959.958 2.397 1.437 3.355 1.437m-.959 5.272c-1.917 2.875-5.272 4.792-7.189 3.834m-.958-15.815c-1.438.958-2.396 2.875-3.355 4.313m-1.437 2.875v2.396"/></g></g></g><g transform="translate(.002 -.032)" stroke-width="1.438"><path d="M989.72 232.95v93.451c0 80.991-38.339 108.79-89.617 130.83-51.278-22.045-90.096-49.84-90.096-130.83V232.95h179.71z" fill="#fff"/><path d="M900.1 312.02c4.313 0 11.022-3.834 16.773-9.585 6.23-6.709 16.773-9.105 27.796 0 11.022 9.106 17.732 5.272 23.482 0 5.75-5.271 10.543-7.188 21.566-7.188v-62.301h-179.71v62.3c11.022 0 15.815 1.918 21.566 7.19 5.75 5.27 12.46 9.105 23.483 0 11.502-9.106 21.566-6.71 28.275 0 5.272 5.75 11.981 9.584 16.773 9.584z" fill="#cf142b"/><path d="M900.1 359.95c5.75 0 17.252-6.23 20.128-7.668 10.543-6.23 18.211-.479 24.441 2.396 6.71 2.876 19.169 6.23 26.837 0 7.668-6.23 11.981-5.75 17.252-5.75.958-7.189.958-14.377.958-22.524v-5.751c-6.709-1.438-10.064.479-17.252 6.71-7.188 6.23-15.336 4.791-25.879.958-10.064-4.314-20.128-11.981-30.192 0-2.875 3.354-9.584 8.147-16.294 8.147-7.188 0-13.419-4.793-16.294-8.147-10.543-11.981-20.128-4.314-30.192 0-10.543 3.833-19.169 5.271-26.358-.959-6.709-6.23-10.064-8.147-17.252-6.71v5.752c0 8.147.48 15.336 1.438 22.524 5.272 0 9.106-.48 16.773 5.75 7.668 6.23 20.607 2.876 26.837 0 6.71-2.875 14.377-8.626 24.92-2.396 2.876 1.438 13.898 7.668 20.128 7.668zm0 20.6c7.189 0 15.815-2.875 23.482-7.189 9.585-5.271 16.294-2.875 25.879 1.918 10.064 4.792 18.211 3.354 23.962 0 2.875-1.917 5.272-5.751 11.502-4.314-2.875 11.981-7.189 22.524-12.46 31.15-9.585 2.397-14.856 2.397-24.92-1.917-10.064-4.792-22.524-7.667-29.233-3.354-6.23 3.834-12.939 5.75-18.211 5.75-5.272 0-11.981-1.916-18.211-5.75-6.71-4.313-19.169-1.438-29.233 3.354-10.064 4.314-15.336 4.314-24.92 1.917-5.272-8.626-9.585-19.169-12.46-31.15 6.23-1.437 8.626 2.397 11.502 4.314 5.272 3.354 13.898 4.792 23.482 0 10.064-4.793 16.773-7.189 26.358-1.917 7.668 4.313 16.294 7.188 23.482 7.188zm0 76.68c19.169-8.147 36.901-17.252 51.278-29.713-3.834-1.438-6.23-.48-9.585-2.875-3.354-2.397-13.419-3.355-22.045 1.437-9.105 4.313-12.939 5.272-19.649 5.272-6.709 0-10.543-.959-19.649-5.272-8.626-4.792-18.69-3.834-22.045-1.437-3.354 2.396-5.75 1.437-9.584 2.875 14.377 12.46 31.63 21.566 51.278 29.713z" fill="#0b50a0"/><g id="h"><path d="M831.1 383.43l23.962-73.802 23.962 73.802-62.78-45.527h77.636z" fill="#f9d050"/><path d="M835.89 376.72l49.84-36.422h-61.342l49.361 36.422-18.69-58.467z" fill="#024919"/></g><use xlink:href="#h" height="100%" width="100%" x="90.097"/><use xlink:href="#h" height="100%" width="100%" y="52.237" x="45.048"/><path d="M989.72 232.95v93.451c0 80.991-38.339 108.79-89.617 130.83-51.278-22.045-90.096-49.84-90.096-130.83V232.95h179.71z" fill="none" stroke="#000"/><path d="M862.208 280.702s-3.037-.024-4.253-.736c-1.323-.774-2.739-3.511-2.739-3.511s-3.348.543-4.888.21c-1.608-.349-3.91-2.188-3.91-2.188 1.537-.227 2.686-.46 4.175-1.664 0 0-2.964-.157-4.652-.807-1.47-.566-3.869-2.44-3.869-2.44 1.37-.34 2.853-.299 3.932-1.638 0 0-2.903.026-4.218-.455-1.313-.48-3.398-2.326-3.398-2.326 1.595-.139 3.113-.434 4.139-1.724 0 0-2.94.1-4.186-.39-1.72-.675-4.352-2.926-4.352-2.926 1.655-.124 3.3-.267 4.553-1.206l-.93-1.889c-1.124-2.28-3.476-1.476-5.04-2.104-1.535-.618-2.395-2.3-2.479-3.244-.148-1.664.703-4.206 4.458-3.675-1.867-2.846.077-4.89 2.064-5.709 1.909-.786 3.595-.571 4.89 2.543 0 0 1.743-1.409 2.687-1.618 1.314-.29 2.795.145 3.262 1.375.192.506.262 1.564-.06 2.195-.51.999-1.632 1.683-1.998 3.144-.415 1.654 1.113 4.54 1.113 4.54s7.218 5.717 10.538 8.85c1.767 1.666 4.976 5.272 4.976 5.272l.177-.103h7.155l.639 12.072-7.786.152z" fill="#e4c900" stroke="#806600" stroke-width=".697"/><path d="M852.804 262.287c-2.122-1.886-7.788-6.095-7.788-6.095s-1.297-3.144-1.467-5.304a5.337 5.337 0 01.564-2.822c.453-.874 1.782-1.192 2.032-2.144.078-.3-.026-.665-.226-.903-.238-.284-.646-.473-1.016-.451-1.397.082-3.611 2.144-3.611 2.144s-1.385-2.488-2.596-3.047c-.512-.237-1.172-.216-1.693 0-.492.203-.976.619-1.129 1.128-.486 1.619 1.016 4.966 1.016 4.966s-3.258-.828-4.514 0c-.479.316-.725 1.01-.678 1.58.053.624.507 1.216 1.016 1.58 1.387.995 4.966 1.242 4.966 1.242l4.176 5.643-4.402 1.241c1.677.913 2.99 1.223 7.562 1.242-.931 1.957-2.296 2.627-3.499 3.499l7.675 1.128c-.667 1.92-2.673 2.098-3.612 2.935 1.471.978 3.588 1.472 5.886 1.83.365.058.735.111 1.108.163-1.523-.21-1.263-9.76.23-9.555z" fill="#fee46e"/><path d="M851.247 264.44c-4.09-7.098-5.009-5.963-10.123-9.563 3.614 6.412 3.293 5.888 10.123 9.563z" fill="#ffefa7"/><path d="M842.294 240.84c1.367 1.696 1.523 2.474 1.211 4.455.648.674 1.27.837 1.807.674 1.08-.329 1.584-1.19 1.333-2.383-.802-.503-.932-2.017-4.351-2.746zm-8.172.898c-.565-.02-1.252.039-2.105.227 1.947.977 2.41 1.62 2.948 3.553.869.345 1.5.236 1.922-.135.847-.746.95-1.739.227-2.72-.703-.095-1.299-.864-2.992-.925zm-2.421 7.677c-.906.276-2.135-.617-4.924 1.49 2.177.077 2.866.468 4.16 2 .934-.048 1.464-.41 1.692-.923.459-1.032.138-1.976-.928-2.567z" fill="#377bc8" stroke="#2c5aa0" stroke-width=".697"/><path d="M897.612 286.245c-1.26-.368-2.8-2.026-4.138-2.018-1.408.008-2.402.794-3.11 1.85-.338.505.192 2.392.72 2.754l2.426 1.668s-1.519 1.745-1.634 2.727c-.1.854.329 1.539.94 2.213.798.878.994 1.218 2.265 1.403.759.11 2.555-.221 2.555-.221s-.042 1.4.402 2.046c.804 1.171 2.169 2.203 3.728 2.039 1.218-.129 1.613-.313 2.257-1.22.51-.719.408-2.556 1.237-3.313l3.37-3.078c1.455.88 1.417 2.193 1.236 3.547 0 0 2.163-1.367 2.807-2.346.67-1.02.935-3.428.935-3.428 1.37 1.235 1.823 2.34 1.53 3.815 0 0 2.202-1.375 2.91-2.346.798-1.092 1.486-3.454 1.486-3.454 1.003.975 1.214 2.363.832 4.06 0 0 2.46-1.649 3.118-2.977.52-1.05.832-2.887.832-2.887 2.99.217 4.921-1.085 5.053-2.432.102-1.045-1.08-2.47-3.488-2.883 0 0-.89-1.327-1.226-2.308-.231-.675-.248-1.442 0-2.112.497-1.34 1.656-2.468 2.839-3.432 1.628-1.325 5.17-2.991 5.17-2.991l-1.036-5.19-12.065-1.848-13.336 3.287c2.43 1.115 7.875 4.928 7.43 6.373-.166.541-1.324 1.053-1.878 1.777-.408.533-.096 1.385.304 1.936.561.77 1.901.947 2.332 1.672.388.652.564 1.233.102 1.847-.914 1.213-3.985 1.723-5.475 2.376-2.715 1.191-7.312 3.788-7.312 3.788-1.43.186-2.8-.309-4.118-.693z" fill="#e4c900" stroke="#806600" stroke-width=".697"/><path d="M902.307 288.792s3.352-1.764 5.132-2.643c2.807-1.387 7.713-1.753 8.946-4.63 0 0 .349-.64.235-1.526-.171-1.327-2.484-2.423-1.76-3.871l.586-1.174s2.46 1.06 3.168 1.877c.575.665.657 1.772 1.408 2.23.77.47 2.698.234 2.698.234l1.173 3.402s1.786-.014 2.464.821c.198.245.236.647.117.939-.188.464-1.273.582-1.746.748-.922.323-2.346-.72-2.346-.72s.494 2.307.25 3.054c-.167.517-.82 1.408-.82 1.408-.52-.881-.857-1.31-3.198-2.496 0 0-.282 1.967-.91 3.202-.292.572-1.174 1.526-1.174 1.526s-.535-1.086-.939-1.526c-.756-.823-2.96-1.207-2.96-1.207s-.434 2.413-1.054 3.699c-.228.474-.618 1.173-.618 1.173s-.423-1.108-.822-1.525c-.472-.495-1.76-1.056-1.76-1.056l-4.545 3.754s-.687 2.221-1.757 2.935c-.619.413-.95.211-1.617-.117-.324-.16-.614-.472-.704-.821-.29-1.122.442-2.528.442-2.528s-2.445.958-4.054.501c-.612-.174-1.376-.655-1.407-1.29-.074-1.466 2.058-2.848 2.058-2.848s-2.407-.566-3.406-1.937c-.326-.447-.557-1.193-.235-1.642.37-.518 1.253-.477 1.877-.352 1.191.237 1.734 1.656 2.938 1.82l4.34.586z" fill="#ffe66f"/><path d="M917.938 284.359c-5.907-.303-10.523 2.555-15.242 5.739 6.053.028 10.69-1.993 15.242-5.74z" fill="#ffefa7"/><path d="M922.003 269.91s-.23 4.317-2.033 5.422c-.776.475-1.863.673-2.71.338-.82-.323-1.394-1.203-1.694-2.032-.192-.531-.508-1.864-.508-1.864s-2.756-1.26-4.235-1.355c-2.178-.139-6.437 1.186-6.437 1.186.727-2.26 2.684-4.112 4.743-5.929l7.114-.508 5.76 4.743z" fill="#efd300" stroke="#806600" stroke-width=".697"/><path d="M935.781 241.223c1.684-.224 5.14-1.055 6.301-2.428l2.057-2.428c-.321 4.037-2.03 6.654-5.657 8.428-2.894 1.415-6.235 1.742-9.387 1.428-1.984-.198-5.657-1.428-5.657-1.428 2.015 2.615.99 4.462-1.543 5.713 0 0 .375-2.505-.386-2.857-1.642-.758-3.492.23-5.236 1.391-1.288.858-3.237 1.258-4.55 1.24-2.188-.029-3.4-.06-5.447-.92-1.233-.52-3.374-2.501-4.28-2.304-1.959.425-4.431.664-5.545 2.502-.387.639-.34 1.638 0 2.31.761 1.506 2.473 2.292 3.985 2.694 4.496 1.197 8.166 1.189 12.605.429 4.574-.783 9.915-2.351 14.488-3.297 4.533-.939 10.378-2.711 13.813-3.568 6.071-1.514 8.795-1.722 13.338-1.642 7.957.141 10.562 4.834 10.32 9.956-.249 5.262-5.043 7.644-9.148 9.12-7.218 2.596-17.128 1.118-23.356.94 0 0 2.088 1.943 3.035 2.83 1.11 1.041 1.664 3.216 3.035 3.747 1.88.728 4.756-.715 6.744-.843 2.78-.178 7.503.187 7.503.187.724-.818 1.192-1.386 1.944-1.63.539-.176 1.387-.186 1.82-.002.855.363 1.431 1.481 1.072 3.563 0 0 .594.923 1.499 1.136.958.225 2.077.027 2.624.218.9.316 2.36 1.31 2.36 1.31s-1.547.545-2.19.98c-.44.298-1.029 1.285-1.029 1.285s2.119.04 3.004.476c.948.468 1.823 1.788 1.823 1.788s-1.275-.1-1.883.326c-.465.326-1.227 1.223-1.227 1.223s2.48-.224 3.325.596c.748.726 1.609 2.026 1.609 2.026s-1.338-.032-1.971.17c-.412.132-1.14.664-1.14.664s1.714.992 2.467 2.145c.602.92.751 2.979.751 2.979s-1.01-.84-1.63-1.15c-.387-.192-1.266-.161-1.266-.161l.402 4.226c.098 1.04 1.41 2.165 1.644 2.969.295 1.014.221 1.395-.308 2.283-.678 1.138-2.078 1.37-3.29 1.142-.667-.126-1.606-1.063-1.606-1.063s-.683 1.403-1.144 1.833c-.772.72-1.104.629-2.11.586-.773-.033-1.46-.194-1.995-.814-.615-.714-1.041-2.851-1.041-2.851l-2.374.521c-.516.114-2.079-.76-2.253-1.31-.365-1.155-.4-2.322.308-3.259.674-.889 2.535-.935 3.483-1.425 1.215-.628 2.383-2.444 2.383-2.444s-3.967-3.39-5.682-5.497c-.944-1.16-2.566-3.87-2.566-3.87s-5.058 1.693-6.965 2.037c-4.705.848-9.715 0-9.715 0-7.19 0-11.974-12.267-18.513-15.068-1.995-.854-2.934-.72-5.021-.203-7.576 1.877-15.664 12.542-23.17 14.741-3.08.903-9.53 1.222-9.53 1.222s-1.057 2.527-2.055 3.248c-1.087.785-3.814.836-3.814.836s-.697 3.022-1.496 4.17c-.835 1.2-3.128 2.362-3.128 2.362.338-1.379.54-2.434.061-4.175 0 0-1.14 2.41-2.25 3.552-.965.994-3.32 2.222-3.32 2.222.189-1.286.729-2.506 0-3.961 0 0-.97 2.435-1.813 3.335-.841.899-3.067 1.877-3.067 1.877.431-1.39.707-2.78 0-4.17 0 0-.922 2.497-1.748 3.336-1.14 1.157-3.884 2.425-3.884 2.425.463-1.434.908-2.868.565-4.302l-1.866-.003c-2.252-.005-2.396 2.292-3.445 3.338-1.03 1.027-2.703 1.05-3.505.73-1.414-.565-2.672-2.55-.955-5.467-2.97.384-4.517-1.862-4.51-3.86.007-1.92.586-3.614 3.581-3.41 0 0-.387-1.662-.236-2.536.21-1.218 1.073-2.275 2.24-2.156.48.048 1.371.427 1.78.957.644.838.821 2.059 1.894 2.969 1.214 1.03 4.1.946 4.1.946s5.61-3.665 9.311-5.143c1.97-.787 7.561-1.976 7.561-1.976l.176-16.583c3.36.25 1.915.285 4.757.183 4.082-.148 14.805 1.85 14.805 1.85l7.636-.63s12.736-2.32 18.795-3.046c3.053-.365 6.137-.628 9.202-.434 4.617.29 8.582 1.673 12.922 1.957 3.649.239 6.14.688 9.789.435 5.209-.362 14.52.063 17.478-5.622.768-1.475.374-3.496-.772-4.633-1.512-1.499-2.587-2.063-4.604-1.548-1.064.272-2.416 1.173-2.549 2.283a3.13 3.13 0 00.473 2.064c.782 1.221 1.665 1.59 1.665 1.59s-2.26.366-3.288-.549c-1.083-.962-2.056-4.018-2.056-4.018-.509.78-.883 1.635-.797 2.745.073.957-.003 1.556.962 3.008 0 0-2.39-.185-3.535-1.643-.77-.98-1.398-3.928-1.398-3.928-.678.744-1.092 1.948-1.121 2.836-.042 1.282.458 1.845.71 3.192 0 0-2.356-.77-3.289-2.192-.723-1.104-1.109-4.003-1.109-4.003-2.71.75-7.885 1.811-13.519 3.155-3.969.947-10.03 2.403-14.315 3-7.358 1.028-12.714.496-17.237-1.636-2.354-1.11-3.415-2.177-4.021-4.697-.345-1.43.162-3.457 1.33-5.034 1.63-2.2 4.459-3.846 7.619-4.716 0 0 8.37-2.496 13.244-3 7.816-.806 10.994.407 14.26.864 2.122.297 4.406-.19 5.075-1.076.562-.746 1.493-1.55.239-3.349 0 0 1.588.035 2.643 2.202.43.885-.1 2.93-.1 2.93z" fill="#fee46e"/><path d="M944.148 236.369s-2.274 3.868-3.92 5.024c-2.073 1.456-4.61 2.262-6.99 2.606-2.314.334-4.675-.25-6.992-.56-2.686-.358-6.684-2.14-6.684-2.14.81 1.428 1.632 2.854 1.844 4.28 0 0-2.528-.672-3.861-.232-1.05.346-3.044 1.318-4.06 1.79-1.579.735-4.112-.013-5.79-.255-1.734-.25-2.343-1.176-3.902-.674l-1.518.488 4.917 2.885 4.918.744 3.073-.651 3.38-2.047 2.69-.186.768 1.21.077 2.14 1.766-1.768.462-1.49-.539-2.604 3.611 1.116 4.61.372 4.764-.93 4.226-2.047 2.074-2.605 1.076-4.467zm12.588 12.943a6.254 6.254 0 00-3.213 1.021c-1.415 1.359-1.296 2.982-1.28 4.34-.726-1.26-1.3-3.44-1.938-5.225-1.763 1.809-1.857 4.414-2.34 6.555-.991-1.89-1.445-4.134-2.049-6.024-2.037 1.713-2.57 3.78-3.219 5.491-.509-1.098-1.006-2.243-1.134-4.96-.261.099-.426.172-.651.261-6.042.821-19.646 5.258-30.207 6.322-5.851.59-12.24.2-15.925-2.432-1.625-1.16-2.725-2.754-3.023-4.893l-.543 2.497 1.736 3.285 3.907 2.233 7.378 1.71 8.03-.79 4.557-.526 23.858-5.49.518 3.094 1.61 2.037 2.157.974-.841-2.746.33-1.86.84-1.196 1.208 3.455 1.645 1.373 2.23.575-.913-1.682-.073-2.215.694-1.638 1.134 2.923 1.317 1.107 2.962.265-1.829-2.08-.365-1.861 1.207-1.506 2.779-.664 2.158.84 1.682 1.596.513 2.48-.442 1.848c4.162-3.686.138-8.648-4.465-8.494zm4.465 8.494c-.037.034-.068.068-.107.1l.073.045.034-.145zm3.665-4.643c-.225 2.796-1.192 4.99-2.712 6.648-7.205 7.861-23.288 5.235-31.004 2.544l-3.473-.551a35.499 35.499 0 00-1.724-.74c-2.58-.569-2.024-.28-4.868-.458-3.066-.194-6.15.069-9.202.434-6.06.726-18.796 3.045-18.796 3.045l-7.635.63s-10.724-1.997-14.806-1.85c-2.842.103-1.397.067-4.757-.183l-.03 2.795s3.513.923 6.778 1.585l-.948.064-4.725 8.346c-.205-1.564-.853-3.904-.853-3.904l-.495 6.283-.906 1.601-5.549 1.388-5.642 2.561-4.432 3.172-4.432-1.22-1.713-3.05s.406 3.524 1.41 4.636c1.231 1.365 4.835 1.586 4.835 1.586s5.235-3.71 8.06-5.001c1.226-.561 2.497-.952 3.779-1.3.444.506 1.035 1.107 1.7 1.587.634.456 1.994 1.168 1.994 1.168.159-3.832 2.367-3.787 5.687-5.796l.34 2.345s6.254-2.136 7.955-4.043c1.136-1.274 2.238-2.774 2.733-4.552.368-1.322.304-3.553.216-5.029 1.392-.008 2.79-.048 4.245-.1 6.387-.226 13.236-3.118 19.586-3.976 5.085-.687 10.708-1.683 15.336-.822 3.887.724 5.378 2.277 8.73 4.767 2.82 2.093 5.68 7.725 9.456 7.725 0 0 2.136-.132 3.529-.329 1.754-.248 2.989-.983 4.75-1.15 2.397-.23 5.693.254 5.693.254 1.553-2.191 2.348-2.236 2.794-1.957.983.614 1.117 1.973.231 3.35.978.744 1.602 1.966 4.576 1.792-1.31 1.153-1.705 1.729-2.243 3.15 1.116-.408 2.286-.02 3.956.513-1.182 1.12-1.507 2.233-1.916 3.218 1.11-.16 1.94.108 3.933.483-1.138.66-1.993.973-2.184 1.887 1.299.82 1.179.497 3.069 2.27-1.201.174-1.934.176-2.402 1.11l2.29 4.034-.305-3.758s.88-.031 1.267.162c.62.308 1.63 1.149 1.63 1.149s-.15-2.059-.752-2.98c-.752-1.151-2.466-2.144-2.466-2.144s.727-.531 1.14-.663c.633-.202 1.97-.171 1.97-.171s-.86-1.3-1.609-2.027c-.845-.82-3.325-.595-3.325-.595s.762-.897 1.227-1.223c.608-.427 1.884-.326 1.884-.326s-.875-1.32-1.823-1.788c-.885-.436-3.004-.476-3.004-.476s.587-.986 1.028-1.285c.643-.435 2.19-.979 2.19-.979s-1.459-.995-2.36-1.311c-.546-.191-1.665.008-2.624-.218-.905-.212-1.498-1.136-1.498-1.136.359-2.082-.218-3.2-1.074-3.563-.432-.184-1.28-.174-1.82.002-.75.245-1.219.813-1.942 1.631 0 0-4.724-.366-7.504-.188-1.987.128-4.864 1.571-6.744.844-1.37-.531-1.925-2.707-3.035-3.747-.947-.888-3.035-2.83-3.035-2.83l-.143-.208 7.094.443 7.149.107h4.501c5.177-1.264 11.206-2.645 13.68-8.979l.089-4.703zm-53.529 12.074c-1.873-.039-4.004.583-5.696 1.31-4.836 2.08-12.416 8.379-12.416 8.379-2.144 1.339-5.225 3.556-7.512 4.484-3.495 1.418-10.975 1.653-10.975 1.653s-1.015 3.86-2.379 4.596c-1.207.652-3.908-.823-3.908-.823s.044 2.187-.113 3.36c-.143 1.071-1.19 3.088-1.19 3.088s-.27-1.593-.623-2.264c-.517-.982-2.095-2.4-2.095-2.4s-.424 2.22-.85 3.223c-.549 1.294-2.152 3.498-2.152 3.498s-.214-1.32-.454-1.92c-.436-1.09-1.756-2.95-1.756-2.95s-.532 2.296-.962 3.361c-.366.906-1.36 2.538-1.36 2.538s-.26-.849-.452-1.234c-.536-1.073-1.927-2.95-1.927-2.95s-.955 2.454-1.586 3.567c-.394.696-1.36 1.92-1.36 1.92s-.02-2.208-.623-2.88c-.564-.629-1.68-.9-2.435-.755-2.48.476-3.444 2.93-5.097 5.114-.356.47-1.12.741-.825.206.452-.82.11-1.582-.214-2.008-.365-.478-1.065-.764-1.567-.454-.767.473 1.819-3.201 1.756-3.201 0 0-2.61.09-3.852-.206-.718-.17.631.235.465-1.922-.157-2.032-1.75-1.832-1.31-1.99 1.218-.435 3.224.482 3.224.482s-.929-.963-.51-1.822c.191-.391 1.294-1.189 1.469-2.2.253-1.473-.94-2.636-.986-2.525-.524 1.27-2.031.938-2.242 2.156-.15.875.237 2.537.237 2.537-2.995-.205-3.573 1.49-3.58 3.409-.008 1.998 1.54 4.243 4.51 3.86-1.718 2.917-.46 4.902.954 5.466.802.32 2.475.297 3.505-.73 1.049-1.046 1.193-3.343 3.445-3.338l1.866.004c.343 1.434-.102 2.868-.565 4.301 0 0 2.743-1.267 3.884-2.425.826-.838 1.748-3.335 1.748-3.335.707 1.39.431 2.779 0 4.169 0 0 2.225-.977 3.067-1.876.842-.9 1.813-3.336 1.813-3.336.729 1.456.189 2.676 0 3.962 0 0 2.355-1.229 3.32-2.223 1.11-1.141 2.25-3.552 2.25-3.552.48 1.742.277 2.796-.062 4.175 0 0 2.294-1.162 3.129-2.362.799-1.148 1.496-4.169 1.496-4.169s2.727-.052 3.813-.836c.999-.722 2.056-3.248 2.056-3.248s6.45-.32 9.53-1.222c7.506-2.2 15.594-12.864 23.17-14.742 2.086-.517 3.026-.652 5.021.203 6.538 2.8 11.322 15.068 18.512 15.068 3.238 0 5.011.848 9.715 0 1.907-.344 6.965-2.036 6.965-2.036s1.623 2.71 2.566 3.869c1.716 2.108 5.682 5.498 5.682 5.498s-1.167 1.815-2.382 2.443c-.949.49-2.81.536-3.483 1.425-.71.937-.673 2.103-.308 3.258.174.55 1.737 1.424 2.252 1.31l2.374-.52s.427 2.136 1.042 2.85c.535.62 1.222 1.04 1.994 1.073 1.007.043 1.339-.124 2.11-.844.461-.43 1.145-1.832 1.145-1.832s.938.936 1.606 1.062c1.211.229 2.611-.004 3.29-1.142.529-.889-.138-3.112-.433-4.126 0 0-.027 2.151.16 2.897-.83-1.873-3.117-1.817-3.865.074-1.128-.71-1.433-1.939-1.433-1.939l-.588 2.457c-.3.466-.066 1.102-.647 1.437-.089-2.368-1.632-2.608-2.992-1.995-.427-.855-.205-2.287-.205-2.287s-1.333.64-2.296.905c-.573.158-.198-.399-.351-1.085-.18-.805-1.32-.588-1.09-.726 1.218-.737 2.522-1.01 3.683-1.874 1.062-.79 2.35-3.363 2.35-3.363s-4.128-3.49-6.015-5.803c-1.516-1.858-3.333-5.72-3.333-5.72s-7.452 2.342-11.619 2.53c-2.485.113-5.987.013-8.268-1.187-4.066-2.14-6.59-7.436-10.309-10.361-2.366-1.862-4.333-4.005-7.138-4.38a7.025 7.025 0 00-.786-.059z" fill="#e4c900"/><path d="M934.302 236.32l.066.154.013-.058-.079-.096zm.066.154l-.381 1.663-1.816 1.816-2.131.67-3.554-.383-5.368-.765h-5.998l-6.71.956-6.553 1.626-3.71 1.624s2.523.46 3.789.383c3.768-.227 7.39-1.885 11.13-2.486 2.252-.36 4.52-.754 6.79-.67 2.95.111 5.814 1.396 8.762 1.53 1.555.072 3.255.434 4.658-.381.806-.469 1.609-1.338 1.815-2.391.198-1.01-.555-2.807-.724-3.192zm18.87 10.035l-7.776.554-9.262 2.215c10.604 1.891 23.35-6.057 28.246 4.62l.071-1.662-2.132-3.234-3.202-1.833-5.946-.66zm11.208 7.388l-.003.09.114.138c-.035-.08-.075-.15-.11-.228zm-48.645 10.188c11.838 7.67 13.26 19.316 28.81 14.17-13.979 1.103-14.852-12.53-28.81-14.17zm-11.94 1.817c-13.742 5.445-17.27 5.238-19.01 7.203-.736.83-.763 1.936-1.436 3.087-.669 1.144-1.981 2.331-3.537 3.335 9.716-.199 17.382-10.493 23.982-13.625zm46.942 11.279c1.4 5.666 4.904 9.056 8.688 12.433-1.656-5.712-4.513-9.402-8.688-12.433zm-90.156 7.226c-7.593.667-7.975 3.687-11.01 5.088 8.056-.788 7.417-1.81 11.01-5.088z" fill="#fff1a1"/><path d="M935.781 241.223c1.684-.224 5.14-1.055 6.301-2.428l2.057-2.428c-.321 4.037-2.03 6.654-5.657 8.428-2.894 1.415-6.235 1.742-9.387 1.428-1.984-.198-5.657-1.428-5.657-1.428 2.015 2.615.99 4.462-1.543 5.713 0 0 .375-2.505-.386-2.857-1.642-.758-3.492.23-5.236 1.391-1.288.858-3.237 1.258-4.55 1.24-2.188-.029-3.4-.06-5.447-.92-1.233-.52-3.374-2.501-4.28-2.304-1.959.425-4.431.664-5.545 2.502-.387.639-.34 1.638 0 2.31.761 1.506 2.473 2.292 3.985 2.694 4.496 1.197 8.166 1.189 12.605.429 4.574-.783 9.915-2.351 14.488-3.297 4.533-.939 10.378-2.711 13.813-3.568 6.071-1.514 8.795-1.722 13.338-1.642 7.957.141 10.562 4.834 10.32 9.956-.249 5.262-5.043 7.644-9.148 9.12-7.218 2.596-17.128 1.118-23.356.94 0 0 2.088 1.943 3.035 2.83 1.11 1.041 1.664 3.216 3.035 3.747 1.88.728 4.756-.715 6.744-.843 2.78-.178 7.503.187 7.503.187.724-.818 1.192-1.386 1.944-1.63.539-.176 1.387-.186 1.82-.002.855.363 1.431 1.481 1.072 3.564 0 0 .594.922 1.499 1.135.958.226 2.077.027 2.624.218.9.316 2.36 1.31 2.36 1.31s-1.547.545-2.19.98c-.44.299-1.029 1.285-1.029 1.285s2.119.04 3.004.477c.948.467 1.823 1.787 1.823 1.787s-1.275-.1-1.883.326c-.465.326-1.227 1.223-1.227 1.223s2.48-.224 3.325.596c.748.726 1.609 2.026 1.609 2.026s-1.338-.032-1.971.17c-.412.133-1.14.664-1.14.664s1.714.993 2.467 2.145c.602.92.751 2.979.751 2.979s-1.01-.84-1.63-1.15c-.387-.192-1.266-.161-1.266-.161l.402 4.226c.098 1.04 1.41 2.165 1.644 2.969.295 1.014.221 1.395-.308 2.283-.678 1.138-2.078 1.37-3.29 1.142-.667-.126-1.606-1.063-1.606-1.063s-.683 1.403-1.144 1.833c-.772.72-1.144.92-2.15.876-.773-.033-1.42-.484-1.955-1.104-.615-.714-1.041-2.851-1.041-2.851l-2.374.521c-.516.114-2.079-.76-2.253-1.31-.365-1.155-.4-2.322.308-3.259.674-.889 2.535-.935 3.483-1.425 1.215-.627 2.383-2.443 2.383-2.443s-3.967-3.39-5.682-5.498c-.944-1.16-2.566-3.87-2.566-3.87s-5.058 1.693-6.965 2.037c-4.705.848-9.715 0-9.715 0-7.19 0-11.974-12.267-18.513-15.068-1.995-.854-2.934-.72-5.021-.203-7.576 1.877-15.664 12.542-23.17 14.742-3.08.902-9.53 1.221-9.53 1.221s-1.057 2.527-2.055 3.249c-1.087.784-3.814.835-3.814.835s-.697 3.022-1.496 4.17c-.835 1.2-3.128 2.362-3.128 2.362.338-1.379.54-2.434.061-4.175 0 0-1.14 2.41-2.25 3.552-.965.994-3.32 2.222-3.32 2.222.189-1.285.729-2.506 0-3.961 0 0-.97 2.435-1.813 3.335-.841.899-3.067 1.877-3.067 1.877.431-1.39.707-2.78 0-4.17 0 0-.922 2.498-1.748 3.336-1.14 1.157-3.884 2.425-3.884 2.425.463-1.434.908-2.868.565-4.301l-1.866-.004c-2.252-.005-2.396 2.292-3.445 3.338-1.03 1.027-2.703 1.05-3.505.73-1.414-.564-2.672-2.55-.955-5.467-2.97.384-4.517-1.862-4.51-3.86.007-1.92.586-3.614 3.581-3.41 0 0-.387-1.661-.236-2.536.21-1.218 1.073-2.275 2.24-2.156.48.048 1.371.427 1.78.957.644.839.821 2.059 1.894 2.969 1.214 1.03 4.1.947 4.1.947s5.61-3.665 9.311-5.144c1.97-.787 7.561-1.976 7.561-1.976l.176-16.583c3.36.25 1.915.285 4.757.183 4.082-.147 14.805 1.85 14.805 1.85l7.636-.63s12.736-2.32 18.795-3.045c3.053-.366 6.137-.628 9.202-.435 4.617.29 8.582 1.673 12.922 1.957 3.649.239 6.14.688 9.789.435 5.209-.361 14.52.063 17.478-5.622.768-1.475.374-3.496-.772-4.632-1.512-1.5-2.587-2.064-4.604-1.549-1.064.272-2.416 1.174-2.549 2.283-.071.602.019 1.132.473 1.843.782 1.221 1.665 1.81 1.665 1.81s-2.625.145-3.654-.769c-1.083-.962-1.69-3.797-1.69-3.797-.509.78-.883 1.635-.797 2.745.073.957-.003 1.556.962 3.009 0 0-2.39-.186-3.535-1.644-.77-.98-1.398-3.927-1.398-3.927-.678.743-1.092 1.947-1.121 2.835-.042 1.283.458 1.845.71 3.192 0 0-2.356-.769-3.289-2.192-.723-1.103-1.109-4.003-1.109-4.003-2.71.75-7.885 1.811-13.519 3.156-3.969.947-10.03 2.402-14.315 3-7.358 1.027-12.714.496-17.237-1.637-2.354-1.11-3.415-2.177-4.021-4.697-.345-1.43.162-3.457 1.33-5.034 1.63-2.2 4.459-3.846 7.619-4.716 0 0 8.37-2.496 13.244-3 7.816-.806 10.994.407 14.26.864 2.122.297 4.406-.19 5.075-1.076.562-.746 1.493-1.55.239-3.349 0 0 1.588.036 2.643 2.203.43.885-.1 2.93-.1 2.93h0z" fill="none" stroke="#806600" stroke-width=".697"/><path d="M879.187 264.843c1.815 1.129 3.808-.35 4.219-.502 0 0-.87-.606-1.457-2.063-.395-.98-.532-2.71-.569-3.521-.135-3.014 1.067-3.481 1.106-3.253 0 0 1.997-.685 2.825-1.323.785-.603 1.147-1.652 1.364-2.618.324-1.448-.247-3.576-.247-3.576-2.9-.168-3.638.216-4.318 1.104 0 0-.06-1.48-.463-2.832-.201-.674-.665-1.677-1.14-2.327-.49-.667-.988-.972-.988-.972-.018.769-.709 1.471-1.062 2.007 0 0-.294-2.944-1.033-4-.57-.814-2.141-1.899-2.13-1.895.012.003-1.786.102-2.704.482-1.191.492-3.025 2.814-3.025 2.814-.009-.643-.213-1.607.186-2.264 0 0-.583-.011-1.355.288-.75.29-1.682.886-2.214 1.345-1.068.922-1.916 2.137-1.916 2.137-.048-1.164-.444-1.834-3.043-3.257 0 0-1.628 1.486-2.135 2.88-.338.931-.596 2.01-.26 2.941.353.984 1.667 2.636 1.667 2.636.155-.171.917.87-.821 3.336-.468.664-1.516 2.049-2.376 2.66-1.28.912-2.339.954-2.339.954.646 1.682.823 2.37 3.284 2.695-5.61 4.026-6.246 10.448-1.94 15.919.281-.657 1.243-2.15 1.81-2.722-.06-.047.073 3.161 1.674 4.795.52.53.773 3.481 1.523 4.409.685.846 1.647 1.767 1.647 1.767s.746-2.34 1.841-2.704c1.102-.368 3.161-.956 3.84-1.17 1.368-.432 3.802-3.345 3.802-3.345l-.428 3.562c7.38-2.616 9.065-7.627 7.175-14.387z" fill="#fee46e"/><path d="M864.88 255.754c.322 2.11-.689 6.289-1.486 7.429l4.797 1.923 4.735.546c-.387-1.938 1.51-5.726 2.455-7.015l-3.48.075-1.553-1.552-2.842.63-2.626-2.036z" fill="#504416"/><path d="M865.826 256.952c-.627 2.27-.267 2.688-.15 3.585l1.384-2.964-1.234-.621zm6.717 2.185l-.39 3.248c.572-.7 1.1-.865 1.765-3.124l-1.375-.124zm-6.86 2.287c-.572.7-1.1.866-1.765 3.125l1.375.123.39-3.248zm6.035 1.723l-1.383 2.964 1.234.621c.627-2.27.266-2.688.15-3.585z" fill="#fff"/><path d="M869.449 244.046c-.953-.002-1.877.043-2.562.153-1.733.276-1.807.998-1.807.998 3.163.08 5.42 1.273 7.32 2.904l-1.812 2.65s.558.944 1.037 1.106c.477.162 1.49-.25 1.49-.25l-.276-3.487c2.731-.019 5.321.454 7.72 1.598 0 0 .183-.76-1.057-1.876-1.474-1.327-4.51-3.071-6.013-3.455-.783-.2-2.452-.337-4.04-.34zm-1.118 9.353a1.52 1.49 15.929 00-1.465 1.075 1.52 1.49 15.929 001.053 1.851 1.52 1.49 15.929 001.872-1.016 1.52 1.49 15.929 00-1.054-1.85 1.52 1.49 15.929 00-.406-.06zm4.556 1.3a1.52 1.49 15.929 00-1.465 1.076 1.52 1.49 15.929 001.053 1.85 1.52 1.49 15.929 001.872-1.016 1.52 1.49 15.929 00-1.053-1.85 1.52 1.49 15.929 00-.407-.06zm-9.291 4.657c-3.25.001-6.835 4.148-6.797 9.012 2.31-3.182 7.174-6.866 7.109-9a3.707 3.707 0 00-.313-.013zm11.108 4.297c-.413 1.997 1.262 6.203.781 9.907 2.138-4.743 1.433-9.083-.781-9.907zm-12.523 3.422s-.85 1.726-.892 3.126c-.028.936 0 1.918.343 2.79.355.9 2.604 2.605 2.604 2.605l-.605 2.11s2.416-1.044 2.915-1.86c.382-.624 1.535-3.192 1.535-3.192l-2.532 1.971s-2.556-2.02-2.973-3.126c-.643-1.7-.394-4.424-.394-4.424z" fill="#ffefa7"/><path d="M866.291 247.441c-.898-.051-1.531.275-1.735.989-.272.952.395 1.977 1.806 2.38 1.41.402 2.783-.317 3.054-1.269.272-.952-.733-1.521-2.143-1.924a4.55 4.55 0 00-.982-.176zm9.881 2.86c-.706-.029-1.22.176-1.39.77-.272.953.514 2.288 1.924 2.69 1.41.403 2.518-.116 2.79-1.067.272-.952-.47-1.722-1.88-2.124-.528-.151-1.02-.252-1.444-.27z" fill="#fff"/><path d="M866.301 247.203a2.764 2.764 0 00-.894.09c-.532.152-.92.528-1.075 1.075-.156.546-.034 1.117.312 1.594.347.476.91.874 1.656 1.087 1.52.434 3.01-.322 3.33-1.445.161-.562-.08-1.06-.52-1.408-.438-.347-1.045-.605-1.764-.81a4.673 4.673 0 00-1.045-.183zm-.016.468c.28.017.592.072.931.169.691.197 1.255.458 1.603.733.348.276.468.51.357.901-.223.78-1.446 1.492-2.746 1.12-.664-.189-1.132-.517-1.404-.892-.272-.374-.355-.8-.24-1.205.116-.405.364-.646.77-.762a2.2 2.2 0 01.729-.064zm9.897 2.402a3.098 3.098 0 00-.435.018c-.556.063-1.024.359-1.184.92-.32 1.124.545 2.552 2.066 2.986.746.213 1.434.173 1.98-.05.545-.221.951-.641 1.107-1.188a1.52 1.52 0 00-.346-1.481c-.37-.41-.963-.736-1.695-.945-.54-.154-1.042-.25-1.493-.26zm-.024.478c.392.01.869.089 1.387.237.677.193 1.18.473 1.464.786.284.313.368.65.252 1.055-.115.406-.41.722-.839.896-.429.175-1 .207-1.663.018-1.3-.371-1.964-1.622-1.741-2.402.111-.39.337-.525.778-.576.11-.012.232-.017.362-.014z" style="text-indent:0;text-decoration-line:none;text-transform:none" color="#000" fill="#d1b948"/><path d="M866.35 245.326c-.645-.086-1.42.024-1.887.476-.28.27-.324 1.136-.324 1.136l1.01.012 1.136.324 2.451 1.099 2.686-.155s-1.468-.6-2.185-1.007c-.97-.549-1.784-1.736-2.887-1.884zm12.865 3.672c-.927-.237-1.99.255-2.964.215-.824-.034-2.444-.314-2.444-.314l2.2 1.549 2.66.36 1.109.316.864.523s.419-.758.324-1.136c-.158-.63-.758-1.133-1.351-1.4-.127-.056-.265-.079-.398-.113zm-15.586 14.264c-2.576 6.23 7.39 9.381 8.848 2.525-2.676-.188-5.477-.675-8.848-2.525z" fill="#e4c900"/><path d="M863.391 262.626l-.203.495c-.69 1.67-.536 3.21.127 4.398.664 1.187 1.816 2.002 3.097 2.389 1.28.386 2.699.343 3.923-.294 1.223-.636 2.206-1.884 2.595-3.712l.117-.52-.543-.032c-2.641-.185-5.356-.658-8.662-2.472l-.45-.252zm.31.763c2.915 1.489 6.41 2.223 8.776 2.434-.394 1.269-1.185 2.784-2.041 3.23-.975.506-2.863.64-3.934.317-1.07-.323-2.456-1.654-2.982-2.596-.465-.831-.197-2.163.182-3.385z" style="text-indent:0;text-decoration-line:none;text-transform:none" color="#000" fill="#806600"/><path d="M867.727 257.805c-1.241 4.1-2.321 8.733-1.48 13 2.966-3.18 4.483-7.647 5.592-11.783.006-.167-.815-.537-.92-.669-.257-.324-.693-1.09-.693-1.09s-.829.523-1.297.634c-.4.094-1.202-.092-1.202-.092z" fill="#377bc8" stroke="#2c5aa0" stroke-width=".697"/><path d="M875.206 239.046c.011.004-1.786.103-2.705.482-1.19.492-3.024 2.814-3.024 2.814-.01-.642-.214-1.606.185-2.264 0 0-.583-.01-1.354.288-.75.291-1.683.886-2.215 1.345-1.068.922-1.915 2.137-1.915 2.137.94-.033 3.033-1.92 3.843-1.737.686.155.21 1.992.873 2.076.904.115 1.708-1.3 2.832-2.29.998-.878 2.383-1.546 3.046-1.329.667.218 1.495 1.52 1.847 2.793.416 1.505.723 3.126 1.414 3.464.686.335 1.282-1.53 1.98-1.295.83.278 1.215 3.118 2.008 3.535 0 0-.06-1.48-.463-2.832-.201-.674-.665-1.677-1.14-2.327-.49-.667-.988-.972-.988-.972-.018.77-.708 1.471-1.062 2.008 0 0-.294-2.945-1.032-4-.57-.815-2.142-1.9-2.13-1.896zm-11.964 10.506c-1.023 1.734.262 3.4 2.33 3.77l-.8 2.04 1.174 2.301 2.141.746 2.025-.8 1.346 1.826 1.88.423 2.418-1.454.967-1.638 1.511-.092 1.291-.62.459-1.608c-1.201.86-2.386 1.702-4.818.69-.07 1.289-.384 2.089-.83 2.545-.532.545-1.252.6-1.965.413-.889-.233-1.65-1.239-2.001-1.771-.88.527-1.631.927-2.175.749-1.137-.371-1.774-1.047-1.96-1.827-.197-.827.113-1.77.87-2.59-4.503-1.19-2.888-2.388-3.863-3.103zm-2.326.583c-.468.664-2.758 4.323-3.618 4.936-1.28.91-2.339.952-2.339.952.646 1.682.822 2.37 3.283 2.695-5.61 4.026-6.246 10.448-1.939 15.919.28-.657 1.242-2.149 1.81-2.722-.06-.047.073 3.162 1.674 4.796.52.53.773 3.48 1.523 4.408.685.847 1.647 1.768 1.647 1.768s.746-2.34 1.841-2.705c1.103-.367 3.161-.956 3.84-1.17 1.367-.43 3.802-3.344 3.802-3.344l-.428 3.562c7.38-2.616 9.064-7.627 7.175-14.388 1.815 1.13 3.808-.35 4.218-.5 0 0-.869-.608-1.457-2.065-.395-.98-.504-2.711-.568-3.52l-.175-2.22s-.835 2.492-1.033 3.185c-.198.694.07 3.16.07 3.16-1.198-.423-2.405-.816-3.462-1.734 0 0 1.268 5.003 1.405 7.386.074 1.288-.365 3.575-.861 4.766-.527 1.262-3.09 3.197-3.09 3.197s.616-3.202.604-4.3c-.017-1.56-.636-5.523-.636-5.523s-.885 4.061-1.589 5.271c-.8 1.378-2.27 3.806-2.27 3.806.412-3.884.206-4.107-.294-5.576 0 0-.92 4.832-2.627 6.908-.426.518-2.043.934-2.967 1.415-1.025.535-1.342 1.11-1.342 1.11s-.967-2.703-1.236-3.328c-.596-1.383-1.779-2.836-2.182-4.286-.592-2.133 2.266-6.718 2.266-6.718-1.058.02-2.117 1.263-3.258 2.633-.933 1.12-1.998 2.3-2.512 3.153 0 0-.914-3.331-.899-4.32.022-1.4.549-2.804 1.269-4.005 1.168-1.95 6.306-5.953 6.306-5.953-1.414.38-2.694.883-5.375.103 0 0 2.121-2.488 2.469-3.073 1.065-1.793.664-2.473.955-3.68zm9.573 2.047c-1.063-.019-2.4.122-2.4.122l.143.92.965.373 1.307 1.944 3.326-.892.442-.762s-1.877-1.394-2.87-1.62a4.81 4.81 0 00-.913-.085z" fill="#e4c900"/><path d="M879.187 264.843c1.815 1.129 3.808-.35 4.219-.502 0 0-.87-.606-1.457-2.063-.395-.98-.532-2.71-.569-3.521-.135-3.014 1.067-3.481 1.106-3.253 0 0 1.997-.685 2.825-1.323.785-.603 1.147-1.652 1.364-2.618.324-1.448-.247-3.576-.247-3.576-2.9-.168-3.638.216-4.318 1.104 0 0-.06-1.48-.463-2.832-.201-.674-.665-1.677-1.14-2.327-.49-.667-.988-.972-.988-.972-.018.769-.709 1.471-1.062 2.007-.328-2.717-.933-4.268-3.162-5.896-2.59.062-4.086 1.32-5.73 3.296-.009-.642-.213-1.606.186-2.263 0 0-.583-.012-1.355.287-.75.291-1.682.887-2.214 1.346-1.068.922-1.916 2.137-1.916 2.137-.048-1.164-.444-1.834-3.043-3.257 0 0-1.628 1.485-2.135 2.88-.337.931-.596 2.01-.26 2.941.353.984 1.667 2.636 1.667 2.636.156-.171.917.87-.821 3.336-.468.664-1.515 2.048-2.376 2.66-1.28.912-2.339.954-2.339.954.646 1.682.823 2.37 3.284 2.695-5.61 4.026-6.246 10.448-1.94 15.918.281-.657 1.243-2.148 1.81-2.721-.06-.048.073 3.161 1.674 4.795.52.53.773 3.48 1.523 4.409.685.846 1.647 1.767 1.647 1.767s.746-2.34 1.841-2.704c1.103-.368 3.161-.956 3.84-1.17 1.368-.432 3.802-3.345 3.802-3.345l-.427 3.562c7.38-2.616 9.064-7.627 7.175-14.387z" fill="none" stroke="#806600" stroke-width=".697"/><path d="M861.223 242.63s-1.183 1.827-1.008 3.017c.14.946 1.767 3.075 1.767 3.075s1-3.092.843-4.24c-.115-.843-1.602-1.852-1.602-1.852zm4 3.945a1.58 1.58 0 00-.646.169c-.441.216-.742.284-.929.938.543-.087.893-.284 1.338-.483.106-.053.27-.053.554.056.568.22 1.357.852 2.228 1.104 1.247.36 2.86-.065 3.496-.134-.069.262-.19 1.032-.467 1.435-.14.205-1.178.601-1.656 1.055a14 14 0 00-.67.673c-.198.216-.364.389-.464.661-.2.55-.09 1.134-.09 1.134l.023.312.299.096c1.1.358 1.29.76 1.563 1.616l.043.134.1.079c.116.102.202.184.305.25.103.065.238.12.359.133.24.029.286-.02.51-.007l.19.013.148-.13c.684-.582 1.068-.82 2.191-.544l.294.074.194-.25s.393-.441.513-1.014c.06-.284-.078-.431-.132-.719-.054-.288-.13-.607-.214-.925-.167-.638-.696-1.8-.708-2.05-.022-.487.234-1.138.314-1.397.507.396 1.648 1.732 2.89 2.082.874.247 1.878.126 2.476.24.3.056.437.143.5.244l.882 1.116c.186-.654-.036-1.071-.296-1.488-.261-.416-.492-.37-.913-.45-.84-.16-1.812-.061-2.388-.223-1.417-.4-2.778-1.917-2.778-1.917l-.4-.348-.3.443s-.544.824-.485 2.13c.023.506.524 1.492.688 2.119.081.313.156.617.201.86.046.244.037.445.038.44-.022.11-.127.263-.22.414-1.06-.155-2.235.347-2.891.867-.116.002-.273-.007-.264-.004-.014-.01-.056-.05-.09-.077-.281-.799-1.178-2.025-2.173-2.458.001-.177-.006-.363.032-.469-.002.006.106-.167.273-.35.168-.182.392-.402.626-.625.47-.445 1.452-.882 1.739-1.3.74-1.078.71-2.065.71-2.065l-.028-.537-.523.085s-1.816.58-3.23.17c-.575-.165-1.348-.761-2.147-1.07a1.54 1.54 0 00-.615-.108zm-1.918 2.535c-.774 1.045-.896 2.162-.447 3.027.375.72 1.13 1.177 2.012 1.469-.05.141-.064.164-.126.371-.134.45-.273.975-.22 1.484.11 1.04.691 1.878 1.44 2.516.652.558 1.532.792 2.348.752.503-.025.949-.218 1.305-.401.127-.066.14-.082.244-.144.199.406.498.902 1.057 1.289.672.465 1.534.727 2.383.599.972-.148 1.906-.552 2.55-1.379.314-.403.473-.923.596-1.376.045-.161.036-.169.065-.297.947.283 1.842.198 2.518-.268.803-.555 1.239-1.57 1.21-2.778-.692.352-.075 1.382-1.594 2.324-.494.341-1.21.416-2.136 0l-.706-.579.046 1.003s-.061.34-.172.745c-.11.405-.3.878-.43 1.047-.468.6-1.273.9-2.087 1.023-.545.083-1.216-.108-1.704-.446-.467-.323-.893-1.214-.914-1.303l-.23-.97-.49.543c-.12.133-.457.273-.748.423-.291.15-.635.274-.917.288-.593.03-1.272-.165-1.692-.524-.626-.534-1.21-1.428-1.29-2.184-.023-.212.066-.714.187-1.117.12-.403.356-.724.356-.724l.401-.517-.809.05c-.931-.198-1.59-.66-1.867-1.193-1.004-1.111-.097-1.917-.139-2.753zm21.9.365s-1.794.074-2.337.728c-.74.893-1.521 4.045-1.521 4.045s2.505-.949 3.123-1.678c.777-.918.736-3.095.736-3.095z" style="text-indent:0;text-decoration-line:none;text-transform:none" color="#000" fill="#806600"/><path d="M867.072 248.081a.996.996 0 00-.965.723.996.996 0 00.685 1.23.996.996 0 001.23-.683.996.996 0 00-.684-1.23.996.996 0 00-.266-.04zm9.932 2.844a.996.996 0 00-.935.722.996.996 0 00.684 1.231.996.996 0 001.23-.685.996.996 0 00-.683-1.23.996.996 0 00-.296-.038z" fill="#2b2200"/><path d="M839.961 281.706c-.73.339-1.794-.467-3.97 1.828 1.797-.074 2.387.268 3.54 1.707.767-.113 1.183-.512 1.341-1.04.32-1.06.001-1.98-.91-2.495zm51.148 2.94c-.883.342-2.175-.459-4.803 1.845 2.177-.081 2.894.259 4.296 1.693.927-.116 1.429-.517 1.619-1.045.382-1.062-.006-1.981-1.112-2.493zm-54.916 3.412c-.56.66-1.8.43-3.05 3.58 1.626-.929 2.282-.896 3.811-.127.667-.47.918-1.036.892-1.596-.054-1.128-.647-1.82-1.653-1.857zm55.992 4.888c-.636.7-2.15.561-3.469 3.799 1.91-1.048 2.704-1.064 4.6-.409.777-.519 1.046-1.102.98-1.66-.134-1.12-.892-1.768-2.11-1.73zm-52.04 2.656c-.297-.015-.62.078-.955.285-.229.905-1.408 1.426-1.253 4.917 1.058-1.763 1.645-2.116 3.291-2.332.398-.802.394-1.444.148-1.92-.31-.598-.735-.924-1.23-.95zm111.248.373c-.21.011-.434.07-.67.177-.308.87-1.527 1.231-1.687 4.722 1.21-1.612 1.825-1.886 3.48-1.884.468-.743.523-1.382.321-1.887-.304-.763-.812-1.16-1.444-1.128zm-51.56 2.36c-.359.023-.736.156-1.119.405-.18.93-1.545 1.598-.989 5.05 1.087-1.889 1.756-2.315 3.716-2.74.394-.848.322-1.486-.025-1.928-.435-.555-.983-.825-1.582-.787zm64.578.238c-.602-.055-1.132.325-1.5 1.123.227.906-.514 2.133 1.221 4.927.068-2.177.393-2.867 1.66-4.157-.038-.933-.337-1.463-.76-1.693a1.619 1.619 0 00-.621-.2zm-7.12 1.013c-.384.035-.765.27-1.116.706.024.946-.955 1.897.118 5.142.533-2.08.995-2.643 2.497-3.488.165-.913-.009-1.52-.368-1.874-.361-.358-.747-.52-1.131-.485z" fill="#377bc8" stroke="#2c5aa0" stroke-width=".697"/></g></svg>